solid Created by Gmsh
facet normal 0.258171 -0 0.966099
  outer loop
    vertex -1.959434878635765e-15 2.5 8
    vertex 3.990706310892502 5.944030340518857 6.933560639397535
    vertex -1.959434878635765e-15 10 8
  endloop
endfacet
facet normal 0.258171 -0 0.966099
  outer loop
    vertex 3.990706310892502 5.944030340518857 6.933560639397535
    vertex 3.990706310892502 13.44403034051886 6.933560639397535
    vertex -1.959434878635765e-15 10 8
  endloop
endfacet
facet normal 0.705683 -0 0.708528
  outer loop
    vertex 3.990706310892502 5.944030340518857 6.933560639397535
    vertex 6.9174510501499 9.388060681037715 4.018565785050687
    vertex 3.990706310892502 13.44403034051886 6.933560639397535
  endloop
endfacet
facet normal 0.258171 -0 0.966099
  outer loop
    vertex -1.959434878635765e-15 10 8
    vertex 3.990706310892502 13.44403034051886 6.933560639397535
    vertex -1.959434878635765e-15 17.5 8
  endloop
endfacet
facet normal 0.846724 0 -0.532032
  outer loop
    vertex 7.799423297454585 2.5 -1.780167471650528
    vertex 4.987918414869844 7.020179516581718 -6.254651859744258
    vertex 7.799423297454585 10 -1.780167471650528
  endloop
endfacet
facet normal 0.846724 0 -0.532032
  outer loop
    vertex 4.987918414869844 7.020179516581718 -6.254651859744258
    vertex 4.987918414869844 14.52017951658172 -6.254651859744258
    vertex 7.799423297454585 10 -1.780167471650528
  endloop
endfacet
facet normal 0.330279 0 -0.943883
  outer loop
    vertex 4.987918414869844 7.020179516581718 -6.254651859744258
    vertex -5.231098774268963e-14 11.54035903316344 -8
    vertex 4.987918414869844 14.52017951658172 -6.254651859744258
  endloop
endfacet
facet normal 0.846724 0 -0.532032
  outer loop
    vertex 7.799423297454585 10 -1.780167471650528
    vertex 4.987918414869844 14.52017951658172 -6.254651859744258
    vertex 7.799423297454585 17.5 -1.780167471650528
  endloop
endfacet
facet normal 0.999326 0 -0.0367212
  outer loop
    vertex 7.799423297454585 17.5 -1.780167471650528
    vertex 7.90904068053692 13.44403034051886 1.202944518093868
    vertex 7.799423297454585 10 -1.780167471650528
  endloop
endfacet
facet normal 0.999326 0 -0.0367212
  outer loop
    vertex 7.90904068053692 13.44403034051886 1.202944518093868
    vertex 7.90904068053692 5.944030340518857 1.202944518093868
    vertex 7.799423297454585 10 -1.780167471650528
  endloop
endfacet
facet normal 0.943217 0 0.332177
  outer loop
    vertex 7.90904068053692 13.44403034051886 1.202944518093868
    vertex 6.9174510501499 9.388060681037715 4.018565785050687
    vertex 7.90904068053692 5.944030340518857 1.202944518093868
  endloop
endfacet
facet normal 0.999326 0 -0.0367212
  outer loop
    vertex 7.799423297454585 10 -1.780167471650528
    vertex 7.90904068053692 5.944030340518857 1.202944518093868
    vertex 7.799423297454585 2.5 -1.780167471650528
  endloop
endfacet
facet normal -0.330279 0 0.943883
  outer loop
    vertex -1.959434878635765e-15 17.5 8
    vertex -4.987918414869853 14.52017951658173 6.254651859744251
    vertex -1.959434878635765e-15 10 8
  endloop
endfacet
facet normal -0.330279 0 0.943883
  outer loop
    vertex -4.987918414869853 14.52017951658173 6.254651859744251
    vertex -4.987918414869853 7.020179516581734 6.254651859744251
    vertex -1.959434878635765e-15 10 8
  endloop
endfacet
facet normal -0.846724 0 0.532032
  outer loop
    vertex -4.987918414869853 14.52017951658173 6.254651859744251
    vertex -7.79942329745458 11.54035903316347 1.780167471650555
    vertex -4.987918414869853 7.020179516581734 6.254651859744251
  endloop
endfacet
facet normal -0.330279 0 0.943883
  outer loop
    vertex -1.959434878635765e-15 10 8
    vertex -4.987918414869853 7.020179516581734 6.254651859744251
    vertex -1.959434878635765e-15 2.5 8
  endloop
endfacet
facet normal 0.618216 0.129789 -0.775219
  outer loop
    vertex 3.47106991294043 2.5 -7.20775094321937
    vertex 1.780167471650471 7.020179516581718 -7.799423297454599
    vertex 6.254651859744222 2.5 -4.98791841486989
  endloop
endfacet
facet normal 0.430214 -0.129789 -0.893348
  outer loop
    vertex 1.780167471650471 7.020179516581718 -7.799423297454599
    vertex 4.987918414869844 7.020179516581718 -6.254651859744258
    vertex 6.254651859744222 2.5 -4.98791841486989
  endloop
endfacet
facet normal 0.430214 0.129789 -0.893348
  outer loop
    vertex 1.780167471650471 7.020179516581718 -7.799423297454599
    vertex -5.231098774268963e-14 11.54035903316344 -8
    vertex 4.987918414869844 7.020179516581718 -6.254651859744258
  endloop
endfacet
facet normal 0.893348 0.129789 -0.430214
  outer loop
    vertex 6.254651859744222 2.5 -4.98791841486989
    vertex 4.987918414869844 7.020179516581718 -6.254651859744258
    vertex 7.799423297454585 2.5 -1.780167471650528
  endloop
endfacet
facet normal -0.893348 0.129789 -0.430214
  outer loop
    vertex -7.799423297454601 2.5 -1.780167471650461
    vertex -8 7.020179516581734 4.826841534423019e-14
    vertex -6.254651859744278 2.5 -4.987918414869819
  endloop
endfacet
facet normal -0.966682 -0.129789 -0.220639
  outer loop
    vertex -8 7.020179516581734 4.826841534423019e-14
    vertex -7.207750943219377 7.020179516581734 -3.471069912940415
    vertex -6.254651859744278 2.5 -4.987918414869819
  endloop
endfacet
facet normal -0.966682 0.129789 -0.220639
  outer loop
    vertex -8 7.020179516581734 4.826841534423019e-14
    vertex -7.79942329745458 11.54035903316347 1.780167471650555
    vertex -7.207750943219377 7.020179516581734 -3.471069912940415
  endloop
endfacet
facet normal -0.618216 0.129789 -0.775219
  outer loop
    vertex -6.254651859744278 2.5 -4.987918414869819
    vertex -7.207750943219377 7.020179516581734 -3.471069912940415
    vertex -3.471069912940525 2.5 -7.207750943219324
  endloop
endfacet
facet normal 0.90064 0.0270163 0.433725
  outer loop
    vertex 6.254651859744245 17.5 4.98791841486986
    vertex 6.60386136267599 13.44403034051886 4.51541970392069
    vertex 7.799423297454592 17.5 1.780167471650504
  endloop
endfacet
facet normal 0.930043 -0.0270163 0.366455
  outer loop
    vertex 6.60386136267599 13.44403034051886 4.51541970392069
    vertex 7.90904068053692 13.44403034051886 1.202944518093868
    vertex 7.799423297454592 17.5 1.780167471650504
  endloop
endfacet
facet normal 0.930043 0.0270163 0.366455
  outer loop
    vertex 6.60386136267599 13.44403034051886 4.51541970392069
    vertex 6.9174510501499 9.388060681037715 4.018565785050687
    vertex 7.90904068053692 13.44403034051886 1.202944518093868
  endloop
endfacet
facet normal 0.999635 0.0270163 -1.74562e-15
  outer loop
    vertex 7.799423297454592 17.5 1.780167471650504
    vertex 7.90904068053692 13.44403034051886 1.202944518093868
    vertex 7.799423297454585 17.5 -1.780167471650528
  endloop
endfacet
facet normal -0.220639 0.129789 0.966682
  outer loop
    vertex -1.959434878635765e-15 2.5 8
    vertex -4.987918414869853 7.020179516581734 6.254651859744251
    vertex -3.47106991294046 2.5 7.207750943219355
  endloop
endfacet
facet normal -0.775219 -0.129789 0.618216
  outer loop
    vertex -4.987918414869853 7.020179516581734 6.254651859744251
    vertex -7.207750943219342 7.020179516581734 3.471069912940489
    vertex -3.47106991294046 2.5 7.207750943219355
  endloop
endfacet
facet normal -0.775219 0.129789 0.618216
  outer loop
    vertex -4.987918414869853 7.020179516581734 6.254651859744251
    vertex -7.79942329745458 11.54035903316347 1.780167471650555
    vertex -7.207750943219342 7.020179516581734 3.471069912940489
  endloop
endfacet
facet normal -0.618216 0.129789 0.775219
  outer loop
    vertex -3.47106991294046 2.5 7.207750943219355
    vertex -7.207750943219342 7.020179516581734 3.471069912940489
    vertex -6.254651859744226 2.5 4.987918414869884
  endloop
endfacet
facet normal 0.883717 -0.194758 -0.425575
  outer loop
    vertex 7.799423297454585 17.5 -1.780167471650528
    vertex 4.987918414869844 14.52017951658172 -6.254651859744258
    vertex 6.254651859744222 17.5 -4.98791841486989
  endloop
endfacet
facet normal 0.425575 0.194758 -0.883717
  outer loop
    vertex 4.987918414869844 14.52017951658172 -6.254651859744258
    vertex 1.780167471650471 14.52017951658172 -7.799423297454599
    vertex 6.254651859744222 17.5 -4.98791841486989
  endloop
endfacet
facet normal 0.425575 -0.194758 -0.883717
  outer loop
    vertex 4.987918414869844 14.52017951658172 -6.254651859744258
    vertex -5.231098774268963e-14 11.54035903316344 -8
    vertex 1.780167471650471 14.52017951658172 -7.799423297454599
  endloop
endfacet
facet normal 0.611551 -0.194758 -0.766861
  outer loop
    vertex 6.254651859744222 17.5 -4.98791841486989
    vertex 1.780167471650471 14.52017951658172 -7.799423297454599
    vertex 3.47106991294043 17.5 -7.20775094321937
  endloop
endfacet
facet normal 0.999494 -0.0318121 -1.74537e-15
  outer loop
    vertex 7.799423297454585 2.5 -1.780167471650528
    vertex 7.90904068053692 5.944030340518857 1.202944518093868
    vertex 7.799423297454592 2.5 1.780167471650504
  endloop
endfacet
facet normal 0.929912 0.0318121 0.366403
  outer loop
    vertex 7.90904068053692 5.944030340518857 1.202944518093868
    vertex 6.60386136267599 5.944030340518857 4.51541970392069
    vertex 7.799423297454592 2.5 1.780167471650504
  endloop
endfacet
facet normal 0.929912 -0.0318121 0.366403
  outer loop
    vertex 7.90904068053692 5.944030340518857 1.202944518093868
    vertex 6.9174510501499 9.388060681037715 4.018565785050687
    vertex 6.60386136267599 5.944030340518857 4.51541970392069
  endloop
endfacet
facet normal 0.900513 -0.0318121 0.433664
  outer loop
    vertex 7.799423297454592 2.5 1.780167471650504
    vertex 6.60386136267599 5.944030340518857 4.51541970392069
    vertex 6.254651859744245 2.5 4.98791841486986
  endloop
endfacet
facet normal -0.611551 -0.194758 -0.766861
  outer loop
    vertex -3.471069912940525 17.5 -7.207750943219324
    vertex -7.207750943219377 14.52017951658173 -3.471069912940415
    vertex -6.254651859744278 17.5 -4.987918414869819
  endloop
endfacet
facet normal -0.956259 0.194758 -0.21826
  outer loop
    vertex -7.207750943219377 14.52017951658173 -3.471069912940415
    vertex -8 14.52017951658173 4.826841534423019e-14
    vertex -6.254651859744278 17.5 -4.987918414869819
  endloop
endfacet
facet normal -0.956259 -0.194758 -0.21826
  outer loop
    vertex -7.207750943219377 14.52017951658173 -3.471069912940415
    vertex -7.79942329745458 11.54035903316347 1.780167471650555
    vertex -8 14.52017951658173 4.826841534423019e-14
  endloop
endfacet
facet normal -0.883717 -0.194758 -0.425575
  outer loop
    vertex -6.254651859744278 17.5 -4.987918414869819
    vertex -8 14.52017951658173 4.826841534423019e-14
    vertex -7.799423297454601 17.5 -1.780167471650461
  endloop
endfacet
facet normal -0.611551 -0.194758 0.766861
  outer loop
    vertex -6.254651859744226 17.5 4.987918414869884
    vertex -7.207750943219342 14.52017951658173 3.471069912940489
    vertex -3.47106991294046 17.5 7.207750943219355
  endloop
endfacet
facet normal -0.766861 0.194758 0.611551
  outer loop
    vertex -7.207750943219342 14.52017951658173 3.471069912940489
    vertex -4.987918414869853 14.52017951658173 6.254651859744251
    vertex -3.47106991294046 17.5 7.207750943219355
  endloop
endfacet
facet normal -0.766861 -0.194758 0.611551
  outer loop
    vertex -7.207750943219342 14.52017951658173 3.471069912940489
    vertex -7.79942329745458 11.54035903316347 1.780167471650555
    vertex -4.987918414869853 14.52017951658173 6.254651859744251
  endloop
endfacet
facet normal -0.21826 -0.194758 0.956259
  outer loop
    vertex -3.47106991294046 17.5 7.207750943219355
    vertex -4.987918414869853 14.52017951658173 6.254651859744251
    vertex -1.959434878635765e-15 17.5 8
  endloop
endfacet
facet normal -0.900083 -0.04433 0.433457
  outer loop
    vertex -6.254651859744226 2.5 4.987918414869884
    vertex -7.207750943219342 7.020179516581734 3.471069912940489
    vertex -7.79942329745458 2.5 1.780167471650555
  endloop
endfacet
facet normal -0.97397 0.04433 0.222302
  outer loop
    vertex -7.207750943219342 7.020179516581734 3.471069912940489
    vertex -8 7.020179516581734 4.826841534423019e-14
    vertex -7.79942329745458 2.5 1.780167471650555
  endloop
endfacet
facet normal -0.97397 -0.04433 0.222302
  outer loop
    vertex -7.207750943219342 7.020179516581734 3.471069912940489
    vertex -7.79942329745458 11.54035903316347 1.780167471650555
    vertex -8 7.020179516581734 4.826841534423019e-14
  endloop
endfacet
facet normal -0.999017 -0.04433 5.98127e-15
  outer loop
    vertex -7.79942329745458 2.5 1.780167471650555
    vertex -8 7.020179516581734 4.826841534423019e-14
    vertex -7.799423297454601 2.5 -1.780167471650461
  endloop
endfacet
facet normal -0.222302 -0.04433 -0.97397
  outer loop
    vertex -3.471069912940525 2.5 -7.207750943219324
    vertex -1.780167471650573 7.020179516581718 -7.799423297454576
    vertex -5.231098774268963e-14 2.5 -8
  endloop
endfacet
facet normal -6.47971e-15 0.04433 -0.999017
  outer loop
    vertex -1.780167471650573 7.020179516581718 -7.799423297454576
    vertex 1.780167471650471 7.020179516581718 -7.799423297454599
    vertex -5.231098774268963e-14 2.5 -8
  endloop
endfacet
facet normal -6.47971e-15 -0.04433 -0.999017
  outer loop
    vertex -1.780167471650573 7.020179516581718 -7.799423297454576
    vertex -5.231098774268963e-14 11.54035903316344 -8
    vertex 1.780167471650471 7.020179516581718 -7.799423297454599
  endloop
endfacet
facet normal 0.222302 -0.04433 -0.97397
  outer loop
    vertex -5.231098774268963e-14 2.5 -8
    vertex 1.780167471650471 7.020179516581718 -7.799423297454599
    vertex 3.47106991294043 2.5 -7.20775094321937
  endloop
endfacet
facet normal 0.222365 -0.037372 0.974247
  outer loop
    vertex -1.959434878635765e-15 17.5 8
    vertex 3.990706310892502 13.44403034051886 6.933560639397535
    vertex 3.47106991294047 17.5 7.207750943219351
  endloop
endfacet
facet normal 0.678715 0.037372 0.733451
  outer loop
    vertex 3.990706310892502 13.44403034051886 6.933560639397535
    vertex 6.60386136267599 13.44403034051886 4.51541970392069
    vertex 3.47106991294047 17.5 7.207750943219351
  endloop
endfacet
facet normal 0.678715 -0.037372 0.733451
  outer loop
    vertex 3.990706310892502 13.44403034051886 6.933560639397535
    vertex 6.9174510501499 9.388060681037715 4.018565785050687
    vertex 6.60386136267599 13.44403034051886 4.51541970392069
  endloop
endfacet
facet normal 0.623054 -0.037372 0.781285
  outer loop
    vertex 3.47106991294047 17.5 7.207750943219351
    vertex 6.60386136267599 13.44403034051886 4.51541970392069
    vertex 6.254651859744245 17.5 4.98791841486986
  endloop
endfacet
facet normal -0.966682 0.129789 -0.220639
  outer loop
    vertex -7.79942329745458 11.54035903316347 1.780167471650555
    vertex -6.254651859744264 11.54035903316345 -4.987918414869836
    vertex -7.207750943219377 7.020179516581734 -3.471069912940415
  endloop
endfacet
facet normal -0.618216 -0.129789 -0.775219
  outer loop
    vertex -6.254651859744264 11.54035903316345 -4.987918414869836
    vertex -1.780167471650573 7.020179516581718 -7.799423297454576
    vertex -7.207750943219377 7.020179516581734 -3.471069912940415
  endloop
endfacet
facet normal -0.430214 0.129789 -0.893348
  outer loop
    vertex -6.254651859744264 11.54035903316345 -4.987918414869836
    vertex -5.231098774268963e-14 11.54035903316344 -8
    vertex -1.780167471650573 7.020179516581718 -7.799423297454576
  endloop
endfacet
facet normal -0.618216 0.129789 -0.775219
  outer loop
    vertex -7.207750943219377 7.020179516581734 -3.471069912940415
    vertex -1.780167471650573 7.020179516581718 -7.799423297454576
    vertex -3.471069912940525 2.5 -7.207750943219324
  endloop
endfacet
facet normal -0.611551 -0.194758 -0.766861
  outer loop
    vertex -3.471069912940525 17.5 -7.207750943219324
    vertex -1.780167471650573 14.52017951658172 -7.799423297454576
    vertex -7.207750943219377 14.52017951658173 -3.471069912940415
  endloop
endfacet
facet normal -0.611551 0.194758 -0.766861
  outer loop
    vertex -1.780167471650573 14.52017951658172 -7.799423297454576
    vertex -6.254651859744264 11.54035903316345 -4.987918414869836
    vertex -7.207750943219377 14.52017951658173 -3.471069912940415
  endloop
endfacet
facet normal -0.425575 -0.194758 -0.883717
  outer loop
    vertex -1.780167471650573 14.52017951658172 -7.799423297454576
    vertex -5.231098774268963e-14 11.54035903316344 -8
    vertex -6.254651859744264 11.54035903316345 -4.987918414869836
  endloop
endfacet
facet normal -0.956259 -0.194758 -0.21826
  outer loop
    vertex -7.207750943219377 14.52017951658173 -3.471069912940415
    vertex -6.254651859744264 11.54035903316345 -4.987918414869836
    vertex -7.79942329745458 11.54035903316347 1.780167471650555
  endloop
endfacet
facet normal 0.222019 0.0671597 -0.972727
  outer loop
    vertex 3.47106991294043 17.5 -7.20775094321937
    vertex 1.780167471650471 14.52017951658172 -7.799423297454599
    vertex -5.231098774268963e-14 17.5 -8
  endloop
endfacet
facet normal -6.47144e-15 -0.0671597 -0.997742
  outer loop
    vertex 1.780167471650471 14.52017951658172 -7.799423297454599
    vertex -1.780167471650573 14.52017951658172 -7.799423297454576
    vertex -5.231098774268963e-14 17.5 -8
  endloop
endfacet
facet normal -6.47144e-15 0.0671597 -0.997742
  outer loop
    vertex 1.780167471650471 14.52017951658172 -7.799423297454599
    vertex -5.231098774268963e-14 11.54035903316344 -8
    vertex -1.780167471650573 14.52017951658172 -7.799423297454576
  endloop
endfacet
facet normal -0.222019 0.0671597 -0.972727
  outer loop
    vertex -5.231098774268963e-14 17.5 -8
    vertex -1.780167471650573 14.52017951658172 -7.799423297454576
    vertex -3.471069912940525 17.5 -7.207750943219324
  endloop
endfacet
facet normal 0.622886 0.0440005 0.781074
  outer loop
    vertex 6.254651859744245 2.5 4.98791841486986
    vertex 6.60386136267599 5.944030340518857 4.51541970392069
    vertex 3.47106991294047 2.5 7.207750943219351
  endloop
endfacet
facet normal 0.678531 -0.0440005 0.733252
  outer loop
    vertex 6.60386136267599 5.944030340518857 4.51541970392069
    vertex 3.990706310892502 5.944030340518857 6.933560639397535
    vertex 3.47106991294047 2.5 7.207750943219351
  endloop
endfacet
facet normal 0.678531 0.0440005 0.733252
  outer loop
    vertex 6.60386136267599 5.944030340518857 4.51541970392069
    vertex 6.9174510501499 9.388060681037715 4.018565785050687
    vertex 3.990706310892502 5.944030340518857 6.933560639397535
  endloop
endfacet
facet normal 0.222305 0.0440005 0.973984
  outer loop
    vertex 3.47106991294047 2.5 7.207750943219351
    vertex 3.990706310892502 5.944030340518857 6.933560639397535
    vertex -1.959434878635765e-15 2.5 8
  endloop
endfacet
facet normal -0.997742 0.0671597 5.97364e-15
  outer loop
    vertex -7.799423297454601 17.5 -1.780167471650461
    vertex -8 14.52017951658173 4.826841534423019e-14
    vertex -7.79942329745458 17.5 1.780167471650555
  endloop
endfacet
facet normal -0.972727 -0.0671597 0.222019
  outer loop
    vertex -8 14.52017951658173 4.826841534423019e-14
    vertex -7.207750943219342 14.52017951658173 3.471069912940489
    vertex -7.79942329745458 17.5 1.780167471650555
  endloop
endfacet
facet normal -0.972727 0.0671597 0.222019
  outer loop
    vertex -8 14.52017951658173 4.826841534423019e-14
    vertex -7.79942329745458 11.54035903316347 1.780167471650555
    vertex -7.207750943219342 14.52017951658173 3.471069912940489
  endloop
endfacet
facet normal -0.898935 0.0671597 0.432904
  outer loop
    vertex -7.79942329745458 17.5 1.780167471650555
    vertex -7.207750943219342 14.52017951658173 3.471069912940489
    vertex -6.254651859744226 17.5 4.987918414869884
  endloop
endfacet
facet normal 0 1 -0
  outer loop
    vertex 3.47106991294043 17.5 -7.20775094321937
    vertex 1.735534956470209 17.5 -3.603875471609681
    vertex 6.254651859744222 17.5 -4.98791841486989
  endloop
endfacet
facet normal -0 1 0
  outer loop
    vertex 1.735534956470209 17.5 -3.603875471609681
    vertex 3.899711648727286 17.5 -0.8900837358252599
    vertex 6.254651859744222 17.5 -4.98791841486989
  endloop
endfacet
facet normal 0 1 -0
  outer loop
    vertex 1.735534956470209 17.5 -3.603875471609681
    vertex -1.319579366411615e-14 17.5 8.501136302844056e-15
    vertex 3.899711648727286 17.5 -0.8900837358252599
  endloop
endfacet
facet normal 0 1 -0
  outer loop
    vertex 6.254651859744222 17.5 -4.98791841486989
    vertex 3.899711648727286 17.5 -0.8900837358252599
    vertex 7.799423297454585 17.5 -1.780167471650528
  endloop
endfacet
facet normal 0 1 -0
  outer loop
    vertex 7.799423297454585 17.5 -1.780167471650528
    vertex 3.899711648727286 17.5 -0.8900837358252599
    vertex 7.799423297454592 17.5 1.780167471650504
  endloop
endfacet
facet normal 0 1 -0
  outer loop
    vertex 3.899711648727286 17.5 -0.8900837358252599
    vertex 3.127325929872116 17.5 2.493959207434934
    vertex 7.799423297454592 17.5 1.780167471650504
  endloop
endfacet
facet normal 0 1 0
  outer loop
    vertex 3.899711648727286 17.5 -0.8900837358252599
    vertex -1.319579366411615e-14 17.5 8.501136302844056e-15
    vertex 3.127325929872116 17.5 2.493959207434934
  endloop
endfacet
facet normal 0 1 0
  outer loop
    vertex 7.799423297454592 17.5 1.780167471650504
    vertex 3.127325929872116 17.5 2.493959207434934
    vertex 6.254651859744245 17.5 4.98791841486986
  endloop
endfacet
facet normal 0 1 0
  outer loop
    vertex 6.254651859744245 17.5 4.98791841486986
    vertex 3.127325929872116 17.5 2.493959207434934
    vertex 3.47106991294047 17.5 7.207750943219351
  endloop
endfacet
facet normal 0 1 -0
  outer loop
    vertex 3.127325929872116 17.5 2.493959207434934
    vertex -6.597896832058073e-15 17.5 4.000000000000004
    vertex 3.47106991294047 17.5 7.207750943219351
  endloop
endfacet
facet normal 0 1 0
  outer loop
    vertex 3.127325929872116 17.5 2.493959207434934
    vertex -1.319579366411615e-14 17.5 8.501136302844056e-15
    vertex -6.597896832058073e-15 17.5 4.000000000000004
  endloop
endfacet
facet normal 0 1 0
  outer loop
    vertex 3.47106991294047 17.5 7.207750943219351
    vertex -6.597896832058073e-15 17.5 4.000000000000004
    vertex -1.959434878635765e-15 17.5 8
  endloop
endfacet
facet normal -0 1 0
  outer loop
    vertex -3.471069912940525 17.5 -7.207750943219324
    vertex -1.735534956470269 17.5 -3.603875471609657
    vertex -5.231098774268963e-14 17.5 -8
  endloop
endfacet
facet normal 0 1 0
  outer loop
    vertex -1.735534956470269 17.5 -3.603875471609657
    vertex 1.735534956470209 17.5 -3.603875471609681
    vertex -5.231098774268963e-14 17.5 -8
  endloop
endfacet
facet normal -0 1 0
  outer loop
    vertex -1.735534956470269 17.5 -3.603875471609657
    vertex -1.319579366411615e-14 17.5 8.501136302844056e-15
    vertex 1.735534956470209 17.5 -3.603875471609681
  endloop
endfacet
facet normal 0 1 0
  outer loop
    vertex -5.231098774268963e-14 17.5 -8
    vertex 1.735534956470209 17.5 -3.603875471609681
    vertex 3.47106991294043 17.5 -7.20775094321937
  endloop
endfacet
facet normal 0 1 0
  outer loop
    vertex -1.959434878635765e-15 17.5 8
    vertex -6.597896832058073e-15 17.5 4.000000000000004
    vertex -3.47106991294046 17.5 7.207750943219355
  endloop
endfacet
facet normal 0 1 0
  outer loop
    vertex -6.597896832058073e-15 17.5 4.000000000000004
    vertex -3.12732592987212 17.5 2.493959207434946
    vertex -3.47106991294046 17.5 7.207750943219355
  endloop
endfacet
facet normal 0 1 0
  outer loop
    vertex -6.597896832058073e-15 17.5 4.000000000000004
    vertex -1.319579366411615e-14 17.5 8.501136302844056e-15
    vertex -3.12732592987212 17.5 2.493959207434946
  endloop
endfacet
facet normal 0 1 0
  outer loop
    vertex -3.47106991294046 17.5 7.207750943219355
    vertex -3.12732592987212 17.5 2.493959207434946
    vertex -6.254651859744226 17.5 4.987918414869884
  endloop
endfacet
facet normal -0 1 0
  outer loop
    vertex -7.799423297454601 17.5 -1.780167471650461
    vertex -3.899711648727307 17.5 -0.8900837358252264
    vertex -6.254651859744278 17.5 -4.987918414869819
  endloop
endfacet
facet normal 0 1 0
  outer loop
    vertex -3.899711648727307 17.5 -0.8900837358252264
    vertex -1.735534956470269 17.5 -3.603875471609657
    vertex -6.254651859744278 17.5 -4.987918414869819
  endloop
endfacet
facet normal -0 1 0
  outer loop
    vertex -3.899711648727307 17.5 -0.8900837358252264
    vertex -1.319579366411615e-14 17.5 8.501136302844056e-15
    vertex -1.735534956470269 17.5 -3.603875471609657
  endloop
endfacet
facet normal -0 1 0
  outer loop
    vertex -6.254651859744278 17.5 -4.987918414869819
    vertex -1.735534956470269 17.5 -3.603875471609657
    vertex -3.471069912940525 17.5 -7.207750943219324
  endloop
endfacet
facet normal 0 1 0
  outer loop
    vertex -6.254651859744226 17.5 4.987918414869884
    vertex -3.12732592987212 17.5 2.493959207434946
    vertex -7.79942329745458 17.5 1.780167471650555
  endloop
endfacet
facet normal 0 1 0
  outer loop
    vertex -3.12732592987212 17.5 2.493959207434946
    vertex -3.899711648727307 17.5 -0.8900837358252264
    vertex -7.79942329745458 17.5 1.780167471650555
  endloop
endfacet
facet normal 0 1 0
  outer loop
    vertex -3.12732592987212 17.5 2.493959207434946
    vertex -1.319579366411615e-14 17.5 8.501136302844056e-15
    vertex -3.899711648727307 17.5 -0.8900837358252264
  endloop
endfacet
facet normal 0 1 0
  outer loop
    vertex -7.79942329745458 17.5 1.780167471650555
    vertex -3.899711648727307 17.5 -0.8900837358252264
    vertex -7.799423297454601 17.5 -1.780167471650461
  endloop
endfacet
facet normal 0 -1 0
  outer loop
    vertex 3.47106991294043 2.5 -7.20775094321937
    vertex 6.254651859744222 2.5 -4.98791841486989
    vertex 1.735534956470209 2.5 -3.603875471609681
  endloop
endfacet
facet normal 0 -1 0
  outer loop
    vertex 6.254651859744222 2.5 -4.98791841486989
    vertex 3.899711648727286 2.5 -0.89008373582526
    vertex 1.735534956470209 2.5 -3.603875471609681
  endloop
endfacet
facet normal 0 -1 0
  outer loop
    vertex 6.254651859744222 2.5 -4.98791841486989
    vertex 7.799423297454585 2.5 -1.780167471650528
    vertex 3.899711648727286 2.5 -0.89008373582526
  endloop
endfacet
facet normal 0 -1 0
  outer loop
    vertex 1.735534956470209 2.5 -3.603875471609681
    vertex 3.899711648727286 2.5 -0.89008373582526
    vertex -1.319579366411615e-14 2.5 8.501136302844056e-15
  endloop
endfacet
facet normal 0 -1 0
  outer loop
    vertex 7.799423297454585 2.5 -1.780167471650528
    vertex 7.799423297454592 2.5 1.780167471650504
    vertex 3.899711648727286 2.5 -0.89008373582526
  endloop
endfacet
facet normal -0 -1 0
  outer loop
    vertex 7.799423297454592 2.5 1.780167471650504
    vertex 3.127325929872116 2.5 2.493959207434934
    vertex 3.899711648727286 2.5 -0.89008373582526
  endloop
endfacet
facet normal 0 -1 0
  outer loop
    vertex 7.799423297454592 2.5 1.780167471650504
    vertex 6.254651859744245 2.5 4.98791841486986
    vertex 3.127325929872116 2.5 2.493959207434934
  endloop
endfacet
facet normal 0 -1 0
  outer loop
    vertex 3.899711648727286 2.5 -0.89008373582526
    vertex 3.127325929872116 2.5 2.493959207434934
    vertex -1.319579366411615e-14 2.5 8.501136302844056e-15
  endloop
endfacet
facet normal -0 -1 0
  outer loop
    vertex 6.254651859744245 2.5 4.98791841486986
    vertex 3.47106991294047 2.5 7.207750943219351
    vertex 3.127325929872116 2.5 2.493959207434934
  endloop
endfacet
facet normal 0 -1 0
  outer loop
    vertex 3.47106991294047 2.5 7.207750943219351
    vertex -6.597896832058073e-15 2.5 4.000000000000004
    vertex 3.127325929872116 2.5 2.493959207434934
  endloop
endfacet
facet normal -0 -1 0
  outer loop
    vertex 3.47106991294047 2.5 7.207750943219351
    vertex -1.959434878635765e-15 2.5 8
    vertex -6.597896832058073e-15 2.5 4.000000000000004
  endloop
endfacet
facet normal -0 -1 0
  outer loop
    vertex 3.127325929872116 2.5 2.493959207434934
    vertex -6.597896832058073e-15 2.5 4.000000000000004
    vertex -1.319579366411615e-14 2.5 8.501136302844056e-15
  endloop
endfacet
facet normal 0 -1 0
  outer loop
    vertex -3.471069912940525 2.5 -7.207750943219324
    vertex -5.231098774268963e-14 2.5 -8
    vertex -1.735534956470269 2.5 -3.603875471609658
  endloop
endfacet
facet normal 0 -1 0
  outer loop
    vertex -5.231098774268963e-14 2.5 -8
    vertex 1.735534956470209 2.5 -3.603875471609681
    vertex -1.735534956470269 2.5 -3.603875471609658
  endloop
endfacet
facet normal 0 -1 0
  outer loop
    vertex -5.231098774268963e-14 2.5 -8
    vertex 3.47106991294043 2.5 -7.20775094321937
    vertex 1.735534956470209 2.5 -3.603875471609681
  endloop
endfacet
facet normal 0 -1 0
  outer loop
    vertex -1.735534956470269 2.5 -3.603875471609658
    vertex 1.735534956470209 2.5 -3.603875471609681
    vertex -1.319579366411615e-14 2.5 8.501136302844056e-15
  endloop
endfacet
facet normal 0 -1 0
  outer loop
    vertex -1.959434878635765e-15 2.5 8
    vertex -3.47106991294046 2.5 7.207750943219355
    vertex -6.597896832058073e-15 2.5 4.000000000000004
  endloop
endfacet
facet normal 0 -1 0
  outer loop
    vertex -3.47106991294046 2.5 7.207750943219355
    vertex -3.12732592987212 2.5 2.493959207434946
    vertex -6.597896832058073e-15 2.5 4.000000000000004
  endloop
endfacet
facet normal 0 -1 -0
  outer loop
    vertex -3.47106991294046 2.5 7.207750943219355
    vertex -6.254651859744226 2.5 4.987918414869884
    vertex -3.12732592987212 2.5 2.493959207434946
  endloop
endfacet
facet normal 0 -1 0
  outer loop
    vertex -6.597896832058073e-15 2.5 4.000000000000004
    vertex -3.12732592987212 2.5 2.493959207434946
    vertex -1.319579366411615e-14 2.5 8.501136302844056e-15
  endloop
endfacet
facet normal 0 -1 0
  outer loop
    vertex -7.799423297454601 2.5 -1.780167471650461
    vertex -6.254651859744278 2.5 -4.987918414869819
    vertex -3.899711648727307 2.5 -0.8900837358252263
  endloop
endfacet
facet normal 0 -1 0
  outer loop
    vertex -6.254651859744278 2.5 -4.987918414869819
    vertex -1.735534956470269 2.5 -3.603875471609658
    vertex -3.899711648727307 2.5 -0.8900837358252263
  endloop
endfacet
facet normal 0 -1 0
  outer loop
    vertex -6.254651859744278 2.5 -4.987918414869819
    vertex -3.471069912940525 2.5 -7.207750943219324
    vertex -1.735534956470269 2.5 -3.603875471609658
  endloop
endfacet
facet normal 0 -1 0
  outer loop
    vertex -3.899711648727307 2.5 -0.8900837358252263
    vertex -1.735534956470269 2.5 -3.603875471609658
    vertex -1.319579366411615e-14 2.5 8.501136302844056e-15
  endloop
endfacet
facet normal 0 -1 -0
  outer loop
    vertex -6.254651859744226 2.5 4.987918414869884
    vertex -7.79942329745458 2.5 1.780167471650555
    vertex -3.12732592987212 2.5 2.493959207434946
  endloop
endfacet
facet normal 0 -1 0
  outer loop
    vertex -7.79942329745458 2.5 1.780167471650555
    vertex -3.899711648727307 2.5 -0.8900837358252263
    vertex -3.12732592987212 2.5 2.493959207434946
  endloop
endfacet
facet normal 0 -1 -0
  outer loop
    vertex -7.79942329745458 2.5 1.780167471650555
    vertex -7.799423297454601 2.5 -1.780167471650461
    vertex -3.899711648727307 2.5 -0.8900837358252263
  endloop
endfacet
facet normal 0 -1 -0
  outer loop
    vertex -3.12732592987212 2.5 2.493959207434946
    vertex -3.899711648727307 2.5 -0.8900837358252263
    vertex -1.319579366411615e-14 2.5 8.501136302844056e-15
  endloop
endfacet
endsolid Created by Gmsh
