solid Created by Gmsh
facet normal -0.344799 0.663745 0.663745
  outer loop
    vertex -1.592040838891559e-15 58.83883476483184 0.3535533905932766
    vertex -4.207509816292276 55.37048020380128 1.636211047538989
    vertex -1.592040838891559e-15 54.59619407771256 4.59619407771256
  endloop
endfacet
facet normal -0.344799 0.663745 0.663745
  outer loop
    vertex -4.207509816292276 55.37048020380128 1.636211047538989
    vertex -4.207509816292276 51.12783951668199 5.878851734658276
    vertex -1.592040838891559e-15 54.59619407771256 4.59619407771256
  endloop
endfacet
facet normal -0.870429 0.348104 0.348104
  outer loop
    vertex -4.207509816292276 55.37048020380128 1.636211047538989
    vertex -6.414159567956148 50.23612730621281 1.252870367926804
    vertex -4.207509816292276 51.12783951668199 5.878851734658276
  endloop
endfacet
facet normal -0.344799 0.663745 0.663745
  outer loop
    vertex -1.592040838891559e-15 54.59619407771256 4.59619407771256
    vertex -4.207509816292276 51.12783951668199 5.878851734658276
    vertex -1.592040838891559e-15 50.35355339059328 8.838834764831844
  endloop
endfacet
facet normal 0.707107 -0.5 -0.5
  outer loop
    vertex 2.820244304264149 50.1016129122628 -8.383668461975764
    vertex 5.856297641365726 50.53644765765468 -4.524875401950474
    vertex 2.820244304264149 45.85897222514352 -4.141027774856479
  endloop
endfacet
facet normal 0.707107 -0.5 -0.5
  outer loop
    vertex 5.856297641365726 50.53644765765468 -4.524875401950474
    vertex 5.85629764136573 46.2938069705354 -0.2822347148311879
    vertex 2.820244304264149 45.85897222514352 -4.141027774856479
  endloop
endfacet
facet normal 0.993712 -0.0791708 -0.0791708
  outer loop
    vertex 5.856297641365726 50.53644765765468 -4.524875401950474
    vertex 6.337031429181852 51.84143177130295 0.2040670263312121
    vertex 5.85629764136573 46.2938069705354 -0.2822347148311879
  endloop
endfacet
facet normal 0.707107 -0.5 -0.5
  outer loop
    vertex 2.820244304264149 45.85897222514352 -4.141027774856479
    vertex 5.85629764136573 46.2938069705354 -0.2822347148311879
    vertex 2.820244304264149 41.61633153802423 0.1016129122628033
  endloop
endfacet
facet normal 0.111964 -0.702661 -0.702661
  outer loop
    vertex 2.820244304264149 41.61633153802423 0.1016129122628033
    vertex -1.446386070716012 43.80706294651652 -2.768978738850068
    vertex 2.820244304264149 45.85897222514352 -4.141027774856479
  endloop
endfacet
facet normal 0.111964 -0.702661 -0.702661
  outer loop
    vertex -1.446386070716012 43.80706294651652 -2.768978738850068
    vertex -1.446386070716012 48.04970363363581 -7.01161942596935
    vertex 2.820244304264149 45.85897222514352 -4.141027774856479
  endloop
endfacet
facet normal -0.532032 -0.598724 -0.598724
  outer loop
    vertex -1.446386070716012 43.80706294651652 -2.768978738850068
    vertex -5.081904636042168 47.95300223766856 -3.684362507303185
    vertex -1.446386070716012 48.04970363363581 -7.01161942596935
  endloop
endfacet
facet normal 0.111964 -0.702661 -0.702661
  outer loop
    vertex 2.820244304264149 45.85897222514352 -4.141027774856479
    vertex -1.446386070716012 48.04970363363581 -7.01161942596935
    vertex 2.820244304264149 50.1016129122628 -8.383668461975764
  endloop
endfacet
facet normal 0.330279 0.667426 0.667426
  outer loop
    vertex -1.592040838891559e-15 50.35355339059328 8.838834764831844
    vertex 4.052683712081766 51.88147007217209 5.305428386805498
    vertex -1.592040838891559e-15 54.59619407771256 4.59619407771256
  endloop
endfacet
facet normal 0.330279 0.667426 0.667426
  outer loop
    vertex 4.052683712081766 51.88147007217209 5.305428386805498
    vertex 4.052683712081766 56.12411075929137 1.062787699686213
    vertex -1.592040838891559e-15 54.59619407771256 4.59619407771256
  endloop
endfacet
facet normal 0.846724 0.376203 0.376203
  outer loop
    vertex 4.052683712081766 51.88147007217209 5.305428386805498
    vertex 6.337031429181852 51.84143177130295 0.2040670263312121
    vertex 4.052683712081766 56.12411075929137 1.062787699686213
  endloop
endfacet
facet normal 0.330279 0.667426 0.667426
  outer loop
    vertex -1.592040838891559e-15 54.59619407771256 4.59619407771256
    vertex 4.052683712081766 56.12411075929137 1.062787699686213
    vertex -1.592040838891559e-15 58.83883476483184 0.3535533905932766
  endloop
endfacet
facet normal -0.22054 -0.589105 -0.777378
  outer loop
    vertex -2.820244304264098 41.61633153802422 0.1016129122627865
    vertex -4.052683712081738 44.69457161319449 -1.881470072172101
    vertex 2.966181905969985e-14 41.16116523516816 -0.3535533905932757
  endloop
endfacet
facet normal -0.430022 -0.725547 -0.537274
  outer loop
    vertex -4.052683712081738 44.69457161319449 -1.881470072172101
    vertex -1.446386070716012 43.80706294651652 -2.768978738850068
    vertex 2.966181905969985e-14 41.16116523516816 -0.3535533905932757
  endloop
endfacet
facet normal -0.430022 -0.537274 -0.725547
  outer loop
    vertex -4.052683712081738 44.69457161319449 -1.881470072172101
    vertex -5.081904636042168 47.95300223766856 -3.684362507303185
    vertex -1.446386070716012 43.80706294651652 -2.768978738850068
  endloop
endfacet
facet normal 0.22054 -0.589105 -0.777378
  outer loop
    vertex 2.966181905969985e-14 41.16116523516816 -0.3535533905932757
    vertex -1.446386070716012 43.80706294651652 -2.768978738850068
    vertex 2.820244304264149 41.61633153802423 0.1016129122628033
  endloop
endfacet
facet normal 0.61794 0.642054 0.453781
  outer loop
    vertex 5.081904636042189 48.62303944769801 7.108320821936576
    vertex 5.856297641365724 50.2822347148312 3.706193029464611
    vertex 2.820244304264125 49.89838708773721 8.383668461975773
  endloop
endfacet
facet normal 0.774872 0.342813 0.531086
  outer loop
    vertex 5.856297641365724 50.2822347148312 3.706193029464611
    vertex 4.052683712081766 51.88147007217209 5.305428386805498
    vertex 2.820244304264125 49.89838708773721 8.383668461975773
  endloop
endfacet
facet normal 0.774872 0.531086 0.342813
  outer loop
    vertex 5.856297641365724 50.2822347148312 3.706193029464611
    vertex 6.337031429181852 51.84143177130295 0.2040670263312121
    vertex 4.052683712081766 51.88147007217209 5.305428386805498
  endloop
endfacet
facet normal 0.22054 0.777378 0.589105
  outer loop
    vertex 2.820244304264125 49.89838708773721 8.383668461975773
    vertex 4.052683712081766 51.88147007217209 5.305428386805498
    vertex -1.592040838891559e-15 50.35355339059328 8.838834764831844
  endloop
endfacet
facet normal 0.61794 -0.453781 -0.642054
  outer loop
    vertex 2.820244304264149 41.61633153802423 0.1016129122628033
    vertex 5.85629764136573 46.2938069705354 -0.2822347148311879
    vertex 5.081904636042205 42.89167917806344 1.376960552302006
  endloop
endfacet
facet normal 0.96625 -0.250082 -0.0618091
  outer loop
    vertex 5.85629764136573 46.2938069705354 -0.2822347148311879
    vertex 6.5 48.2880208426833 1.711979157316715
    vertex 5.081904636042205 42.89167917806344 1.376960552302006
  endloop
endfacet
facet normal 0.96625 -0.0618091 -0.250082
  outer loop
    vertex 5.85629764136573 46.2938069705354 -0.2822347148311879
    vertex 6.337031429181852 51.84143177130295 0.2040670263312121
    vertex 6.5 48.2880208426833 1.711979157316715
  endloop
endfacet
facet normal 0.892949 -0.209935 -0.398208
  outer loop
    vertex 5.081904636042205 42.89167917806344 1.376960552302006
    vertex 6.5 48.2880208426833 1.711979157316715
    vertex 6.337031429181857 44.73460991406365 3.219891288302213
  endloop
endfacet
facet normal -0.899322 0.263506 0.348976
  outer loop
    vertex -5.081904636042209 48.62303944769799 7.108320821936559
    vertex -5.940503185300881 49.49002624203531 4.241038460011578
    vertex -6.337031429181861 46.78010871169777 5.265390085936339
  endloop
endfacet
facet normal -0.979534 0.178493 0.0930234
  outer loop
    vertex -5.940503185300881 49.49002624203531 4.241038460011578
    vertex -6.496907042970212 47.48272140601558 2.233733623991857
    vertex -6.337031429181861 46.78010871169777 5.265390085936339
  endloop
endfacet
facet normal -0.979534 0.0930234 0.178493
  outer loop
    vertex -5.940503185300881 49.49002624203531 4.241038460011578
    vertex -6.414159567956148 50.23612730621281 1.252870367926804
    vertex -6.496907042970212 47.48272140601558 2.233733623991857
  endloop
endfacet
facet normal -0.998172 -0.0427348 0.0427348
  outer loop
    vertex -6.337031429181861 46.78010871169777 5.265390085936339
    vertex -6.496907042970212 47.48272140601558 2.233733623991857
    vertex -6.337031429181843 44.7346099140636 3.219891288302172
  endloop
endfacet
facet normal -0.980851 -0.137714 0.137714
  outer loop
    vertex -6.337031429181843 53.21989128830217 -5.265390085936396
    vertex -5.856297641365703 50.53644765765465 -4.52487540195051
    vertex -6.337031429181861 55.26539008593634 -3.219891288302229
  endloop
endfacet
facet normal -0.956259 -0.0166187 -0.292048
  outer loop
    vertex -5.856297641365703 50.53644765765465 -4.52487540195051
    vertex -6.5 52.53066152980255 -2.530661529802603
    vertex -6.337031429181861 55.26539008593634 -3.219891288302229
  endloop
endfacet
facet normal -0.956259 -0.292048 -0.0166187
  outer loop
    vertex -5.856297641365703 50.53644765765465 -4.52487540195051
    vertex -5.081904636042168 47.95300223766856 -3.684362507303185
    vertex -6.5 52.53066152980255 -2.530661529802603
  endloop
endfacet
facet normal -0.883717 0.163213 0.438642
  outer loop
    vertex -6.337031429181861 55.26539008593634 -3.219891288302229
    vertex -6.5 52.53066152980255 -2.530661529802603
    vertex -5.081904636042209 57.10832082193656 -1.376960552302009
  endloop
endfacet
facet normal 0.21826 -0.813892 -0.538463
  outer loop
    vertex 2.820244304264149 50.1016129122628 -8.383668461975764
    vertex -1.446386070716012 48.04970363363581 -7.01161942596935
    vertex 2.966181905969985e-14 49.64644660940672 -8.838834764831844
  endloop
endfacet
facet normal -0.425575 -0.487168 -0.762596
  outer loop
    vertex -1.446386070716012 48.04970363363581 -7.01161942596935
    vertex -4.052683712081738 48.93721230031377 -6.124110759291383
    vertex 2.966181905969985e-14 49.64644660940672 -8.838834764831844
  endloop
endfacet
facet normal -0.425575 -0.762596 -0.487168
  outer loop
    vertex -1.446386070716012 48.04970363363581 -7.01161942596935
    vertex -5.081904636042168 47.95300223766856 -3.684362507303185
    vertex -4.052683712081738 48.93721230031377 -6.124110759291383
  endloop
endfacet
facet normal -0.21826 -0.813892 -0.538463
  outer loop
    vertex 2.966181905969985e-14 49.64644660940672 -8.838834764831844
    vertex -4.052683712081738 48.93721230031377 -6.124110759291383
    vertex -2.820244304264098 50.10161291226279 -8.38366846197578
  endloop
endfacet
facet normal 0.883717 -0.438642 -0.163213
  outer loop
    vertex 6.337031429181857 53.21989128830221 -5.265390085936355
    vertex 6.5 52.53066152980259 -2.530661529802571
    vertex 5.081904636042205 51.37696055230201 -7.108320821936562
  endloop
endfacet
facet normal 0.956259 -0.0166187 -0.292048
  outer loop
    vertex 6.5 52.53066152980259 -2.530661529802571
    vertex 5.856297641365726 50.53644765765468 -4.524875401950474
    vertex 5.081904636042205 51.37696055230201 -7.108320821936562
  endloop
endfacet
facet normal 0.956259 -0.292048 -0.0166187
  outer loop
    vertex 6.5 52.53066152980259 -2.530661529802571
    vertex 6.337031429181852 51.84143177130295 0.2040670263312121
    vertex 5.856297641365726 50.53644765765468 -4.524875401950474
  endloop
endfacet
facet normal 0.611551 -0.679967 -0.404538
  outer loop
    vertex 5.081904636042205 51.37696055230201 -7.108320821936562
    vertex 5.856297641365726 50.53644765765468 -4.524875401950474
    vertex 2.820244304264149 50.1016129122628 -8.383668461975764
  endloop
endfacet
facet normal 0.21826 0.538463 0.813892
  outer loop
    vertex -1.592040838891559e-15 58.83883476483184 0.3535533905932766
    vertex 4.052683712081766 56.12411075929137 1.062787699686213
    vertex 2.820244304264125 58.38366846197577 -0.1016129122627953
  endloop
endfacet
facet normal 0.766861 0.570146 0.294717
  outer loop
    vertex 4.052683712081766 56.12411075929137 1.062787699686213
    vertex 5.856297641365724 54.52487540195048 -0.5364476576546728
    vertex 2.820244304264125 58.38366846197577 -0.1016129122627953
  endloop
endfacet
facet normal 0.766861 0.294717 0.570146
  outer loop
    vertex 4.052683712081766 56.12411075929137 1.062787699686213
    vertex 6.337031429181852 51.84143177130295 0.2040670263312121
    vertex 5.856297641365724 54.52487540195048 -0.5364476576546728
  endloop
endfacet
facet normal 0.611551 0.404538 0.679967
  outer loop
    vertex 2.820244304264125 58.38366846197577 -0.1016129122627953
    vertex 5.856297641365724 54.52487540195048 -0.5364476576546728
    vertex 5.081904636042189 57.10832082193657 -1.376960552301992
  endloop
endfacet
facet normal 0.998965 -0.0321655 0.0321655
  outer loop
    vertex 6.337031429181857 44.73460991406365 3.219891288302213
    vertex 6.5 48.2880208426833 1.711979157316715
    vertex 6.337031429181851 46.7801087116978 5.265390085936371
  endloop
endfacet
facet normal 0.973919 0.189349 0.125018
  outer loop
    vertex 6.5 48.2880208426833 1.711979157316715
    vertex 5.856297641365724 50.2822347148312 3.706193029464611
    vertex 6.337031429181851 46.7801087116978 5.265390085936371
  endloop
endfacet
facet normal 0.973919 0.125018 0.189349
  outer loop
    vertex 6.5 48.2880208426833 1.711979157316715
    vertex 6.337031429181852 51.84143177130295 0.2040670263312121
    vertex 5.856297641365724 50.2822347148312 3.706193029464611
  endloop
endfacet
facet normal 0.900036 0.274319 0.33865
  outer loop
    vertex 6.337031429181851 46.7801087116978 5.265390085936371
    vertex 5.856297641365724 50.2822347148312 3.706193029464611
    vertex 5.081904636042189 48.62303944769801 7.108320821936576
  endloop
endfacet
facet normal -0.900036 -0.33865 -0.274319
  outer loop
    vertex -6.337031429181843 44.7346099140636 3.219891288302172
    vertex -5.856297641365703 46.29380697053536 -0.282234714831227
    vertex -5.081904636042168 42.89167917806341 1.376960552301973
  endloop
endfacet
facet normal -0.781022 -0.408252 -0.472583
  outer loop
    vertex -5.856297641365703 46.29380697053536 -0.282234714831227
    vertex -4.052683712081738 44.69457161319449 -1.881470072172101
    vertex -5.081904636042168 42.89167917806341 1.376960552301973
  endloop
endfacet
facet normal -0.781022 -0.472583 -0.408252
  outer loop
    vertex -5.856297641365703 46.29380697053536 -0.282234714831227
    vertex -5.081904636042168 47.95300223766856 -3.684362507303185
    vertex -4.052683712081738 44.69457161319449 -1.881470072172101
  endloop
endfacet
facet normal -0.622844 -0.584432 -0.520101
  outer loop
    vertex -5.081904636042168 42.89167917806341 1.376960552301973
    vertex -4.052683712081738 44.69457161319449 -1.881470072172101
    vertex -2.820244304264098 41.61633153802422 0.1016129122627865
  endloop
endfacet
facet normal -0.614689 0.426648 0.663422
  outer loop
    vertex -5.081904636042209 57.10832082193656 -1.376960552302009
    vertex -5.940503185300883 53.73266692915458 -0.00160222710770519
    vertex -2.82024430426414 58.38366846197577 -0.1016129122627998
  endloop
endfacet
facet normal -0.789389 0.536019 0.299245
  outer loop
    vertex -5.940503185300883 53.73266692915458 -0.00160222710770519
    vertex -4.207509816292276 55.37048020380128 1.636211047538989
    vertex -2.82024430426414 58.38366846197577 -0.1016129122627998
  endloop
endfacet
facet normal -0.789389 0.299245 0.536019
  outer loop
    vertex -5.940503185300883 53.73266692915458 -0.00160222710770519
    vertex -6.414159567956148 50.23612730621281 1.252870367926804
    vertex -4.207509816292276 55.37048020380128 1.636211047538989
  endloop
endfacet
facet normal -0.21938 0.56126 0.798035
  outer loop
    vertex -2.82024430426414 58.38366846197577 -0.1016129122627998
    vertex -4.207509816292276 55.37048020380128 1.636211047538989
    vertex -1.592040838891559e-15 58.83883476483184 0.3535533905932766
  endloop
endfacet
facet normal -0.974018 -0.124541 -0.18915
  outer loop
    vertex -6.337031429181843 44.7346099140636 3.219891288302172
    vertex -6.496907042970212 47.48272140601558 2.233733623991857
    vertex -5.856297641365703 46.29380697053536 -0.282234714831227
  endloop
endfacet
facet normal -0.966467 -0.210987 -0.146378
  outer loop
    vertex -6.496907042970212 47.48272140601558 2.233733623991857
    vertex -6.289401334796567 48.99467473380169 -1.315636107827188
    vertex -5.856297641365703 46.29380697053536 -0.282234714831227
  endloop
endfacet
facet normal -0.998495 0.0108604 -0.0537484
  outer loop
    vertex -6.496907042970212 47.48272140601558 2.233733623991857
    vertex -6.414159567956148 50.23612730621281 1.252870367926804
    vertex -6.289401334796567 48.99467473380169 -1.315636107827188
  endloop
endfacet
facet normal -0.900239 -0.273867 -0.338476
  outer loop
    vertex -5.856297641365703 46.29380697053536 -0.282234714831227
    vertex -6.289401334796567 48.99467473380169 -1.315636107827188
    vertex -5.081904636042168 47.95300223766856 -3.684362507303185
  endloop
endfacet
facet normal -0.906079 -0.184759 -0.380639
  outer loop
    vertex -5.081904636042168 47.95300223766856 -3.684362507303185
    vertex -6.289401334796567 48.99467473380169 -1.315636107827188
    vertex -6.5 52.53066152980255 -2.530661529802603
  endloop
endfacet
facet normal -0.977665 0.0138322 0.209712
  outer loop
    vertex -6.289401334796567 48.99467473380169 -1.315636107827188
    vertex -5.940503185300883 53.73266692915458 -0.00160222710770519
    vertex -6.5 52.53066152980255 -2.530661529802603
  endloop
endfacet
facet normal -0.990358 0.099624 -0.0962559
  outer loop
    vertex -6.289401334796567 48.99467473380169 -1.315636107827188
    vertex -6.414159567956148 50.23612730621281 1.252870367926804
    vertex -5.940503185300883 53.73266692915458 -0.00160222710770519
  endloop
endfacet
facet normal -0.95767 0.276384 0.0805037
  outer loop
    vertex -6.5 52.53066152980255 -2.530661529802603
    vertex -5.940503185300883 53.73266692915458 -0.00160222710770519
    vertex -5.081904636042209 57.10832082193656 -1.376960552302009
  endloop
endfacet
facet normal -0.217502 0.823161 0.524498
  outer loop
    vertex -1.592040838891559e-15 50.35355339059328 8.838834764831844
    vertex -4.207509816292276 51.12783951668199 5.878851734658276
    vertex -2.82024430426414 49.8983870877372 8.383668461975768
  endloop
endfacet
facet normal -0.782632 0.264725 0.563389
  outer loop
    vertex -4.207509816292276 51.12783951668199 5.878851734658276
    vertex -5.940503185300881 49.49002624203531 4.241038460011578
    vertex -2.82024430426414 49.8983870877372 8.383668461975768
  endloop
endfacet
facet normal -0.782632 0.563389 0.264725
  outer loop
    vertex -4.207509816292276 51.12783951668199 5.878851734658276
    vertex -6.414159567956148 50.23612730621281 1.252870367926804
    vertex -5.940503185300881 49.49002624203531 4.241038460011578
  endloop
endfacet
facet normal -0.609427 0.689701 0.391038
  outer loop
    vertex -2.82024430426414 49.8983870877372 8.383668461975768
    vertex -5.940503185300881 49.49002624203531 4.241038460011578
    vertex -5.081904636042209 48.62303944769799 7.108320821936559
  endloop
endfacet
facet normal 0.898935 0.353599 0.25862
  outer loop
    vertex 5.081904636042189 57.10832082193657 -1.376960552301992
    vertex 5.856297641365724 54.52487540195048 -0.5364476576546728
    vertex 6.337031429181851 55.26539008593637 -3.219891288302197
  endloop
endfacet
facet normal 0.972727 0.109502 0.20448
  outer loop
    vertex 5.856297641365724 54.52487540195048 -0.5364476576546728
    vertex 6.5 52.53066152980259 -2.530661529802571
    vertex 6.337031429181851 55.26539008593637 -3.219891288302197
  endloop
endfacet
facet normal 0.972727 0.20448 0.109502
  outer loop
    vertex 5.856297641365724 54.52487540195048 -0.5364476576546728
    vertex 6.337031429181852 51.84143177130295 0.2040670263312121
    vertex 6.5 52.53066152980259 -2.530661529802571
  endloop
endfacet
facet normal 0.997742 0.0474891 -0.0474891
  outer loop
    vertex 6.337031429181851 55.26539008593637 -3.219891288302197
    vertex 6.5 52.53066152980259 -2.530661529802571
    vertex 6.337031429181857 53.21989128830221 -5.265390085936355
  endloop
endfacet
facet normal -0.622082 -0.504101 -0.599079
  outer loop
    vertex -2.820244304264098 50.10161291226279 -8.38366846197578
    vertex -4.052683712081738 48.93721230031377 -6.124110759291383
    vertex -5.081904636042168 51.37696055230197 -7.108320821936594
  endloop
endfacet
facet normal -0.780066 -0.487368 -0.392389
  outer loop
    vertex -4.052683712081738 48.93721230031377 -6.124110759291383
    vertex -5.856297641365703 50.53644765765465 -4.52487540195051
    vertex -5.081904636042168 51.37696055230197 -7.108320821936594
  endloop
endfacet
facet normal -0.780066 -0.392389 -0.487368
  outer loop
    vertex -4.052683712081738 48.93721230031377 -6.124110759291383
    vertex -5.081904636042168 47.95300223766856 -3.684362507303185
    vertex -5.856297641365703 50.53644765765465 -4.52487540195051
  endloop
endfacet
facet normal -0.898935 -0.25862 -0.353599
  outer loop
    vertex -5.081904636042168 51.37696055230197 -7.108320821936594
    vertex -5.856297641365703 50.53644765765465 -4.52487540195051
    vertex -6.337031429181843 53.21989128830217 -5.265390085936396
  endloop
endfacet
facet normal 5.57183e-16 0.707107 -0.707107
  outer loop
    vertex 5.081904636042189 57.10832082193657 -1.376960552301992
    vertex 2.540952318021098 55.67548075452792 -2.80980061971064
    vertex 2.820244304264125 58.38366846197577 -0.1016129122627953
  endloop
endfacet
facet normal 2.6451e-16 0.707107 -0.707107
  outer loop
    vertex 2.540952318021098 55.67548075452792 -2.80980061971064
    vertex 3.362389731721903e-15 56.54073772597556 -1.944543648263007
    vertex 2.820244304264125 58.38366846197577 -0.1016129122627953
  endloop
endfacet
facet normal 4.57098e-16 0.707107 -0.707107
  outer loop
    vertex 2.540952318021098 55.67548075452792 -2.80980061971064
    vertex 6.724779463443805e-15 54.24264068711928 -4.242640687119289
    vertex 3.362389731721903e-15 56.54073772597556 -1.944543648263007
  endloop
endfacet
facet normal -2.54366e-16 0.707107 -0.707107
  outer loop
    vertex 2.820244304264125 58.38366846197577 -0.1016129122627953
    vertex 3.362389731721903e-15 56.54073772597556 -1.944543648263007
    vertex -1.592040838891559e-15 58.83883476483184 0.3535533905932766
  endloop
endfacet
facet normal 7.02535e-16 0.707107 -0.707107
  outer loop
    vertex 6.337031429181857 53.21989128830221 -5.265390085936355
    vertex 3.168515714590932 53.73126598771075 -4.754015386527822
    vertex 6.337031429181851 55.26539008593637 -3.219891288302197
  endloop
endfacet
facet normal 4.40849e-16 0.707107 -0.707107
  outer loop
    vertex 3.168515714590932 53.73126598771075 -4.754015386527822
    vertex 2.540952318021098 55.67548075452792 -2.80980061971064
    vertex 6.337031429181851 55.26539008593637 -3.219891288302197
  endloop
endfacet
facet normal -8.73864e-16 0.707107 -0.707107
  outer loop
    vertex 3.168515714590932 53.73126598771075 -4.754015386527822
    vertex 6.724779463443805e-15 54.24264068711928 -4.242640687119289
    vertex 2.540952318021098 55.67548075452792 -2.80980061971064
  endloop
endfacet
facet normal 1.33239e-16 0.707107 -0.707107
  outer loop
    vertex 6.337031429181851 55.26539008593637 -3.219891288302197
    vertex 2.540952318021098 55.67548075452792 -2.80980061971064
    vertex 5.081904636042189 57.10832082193657 -1.376960552301992
  endloop
endfacet
facet normal -4.11831e-16 0.707107 -0.707107
  outer loop
    vertex -1.592040838891559e-15 58.83883476483184 0.3535533905932766
    vertex 3.362389731721903e-15 56.54073772597556 -1.944543648263007
    vertex -2.82024430426414 58.38366846197577 -0.1016129122627998
  endloop
endfacet
facet normal -1.98382e-16 0.707107 -0.707107
  outer loop
    vertex 3.362389731721903e-15 56.54073772597556 -1.944543648263007
    vertex -2.540952318021101 55.67548075452792 -2.809800619710649
    vertex -2.82024430426414 58.38366846197577 -0.1016129122627998
  endloop
endfacet
facet normal 2.68881e-17 0.707107 -0.707107
  outer loop
    vertex 3.362389731721903e-15 56.54073772597556 -1.944543648263007
    vertex 6.724779463443805e-15 54.24264068711928 -4.242640687119289
    vertex -2.540952318021101 55.67548075452792 -2.809800619710649
  endloop
endfacet
facet normal 3.87606e-16 0.707107 -0.707107
  outer loop
    vertex -2.82024430426414 58.38366846197577 -0.1016129122627998
    vertex -2.540952318021101 55.67548075452792 -2.809800619710649
    vertex -5.081904636042209 57.10832082193656 -1.376960552302009
  endloop
endfacet
facet normal -7.26761e-16 0.707107 -0.707107
  outer loop
    vertex 2.820244304264149 50.1016129122628 -8.383668461975764
    vertex 1.410122152132078 52.17212679969104 -6.313154574547527
    vertex 5.081904636042205 51.37696055230201 -7.108320821936562
  endloop
endfacet
facet normal -4.18807e-16 0.707107 -0.707107
  outer loop
    vertex 1.410122152132078 52.17212679969104 -6.313154574547527
    vertex 3.168515714590932 53.73126598771075 -4.754015386527822
    vertex 5.081904636042205 51.37696055230201 -7.108320821936562
  endloop
endfacet
facet normal -1.1293e-15 0.707107 -0.707107
  outer loop
    vertex 1.410122152132078 52.17212679969104 -6.313154574547527
    vertex 6.724779463443805e-15 54.24264068711928 -4.242640687119289
    vertex 3.168515714590932 53.73126598771075 -4.754015386527822
  endloop
endfacet
facet normal 3.87606e-16 0.707107 -0.707107
  outer loop
    vertex 5.081904636042205 51.37696055230201 -7.108320821936562
    vertex 3.168515714590932 53.73126598771075 -4.754015386527822
    vertex 6.337031429181857 53.21989128830221 -5.265390085936355
  endloop
endfacet
facet normal 1.93803e-16 0.707107 -0.707107
  outer loop
    vertex -5.081904636042209 57.10832082193656 -1.376960552302009
    vertex -2.540952318021101 55.67548075452792 -2.809800619710649
    vertex -6.337031429181861 55.26539008593634 -3.219891288302229
  endloop
endfacet
facet normal 3.30637e-17 0.707107 -0.707107
  outer loop
    vertex -2.540952318021101 55.67548075452792 -2.809800619710649
    vertex -3.168515714590918 53.73126598771073 -4.754015386527843
    vertex -6.337031429181861 55.26539008593634 -3.219891288302229
  endloop
endfacet
facet normal 8.6042e-16 0.707107 -0.707107
  outer loop
    vertex -2.540952318021101 55.67548075452792 -2.809800619710649
    vertex 6.724779463443805e-15 54.24264068711928 -4.242640687119289
    vertex -3.168515714590918 53.73126598771073 -4.754015386527843
  endloop
endfacet
facet normal -5.81408e-16 0.707107 -0.707107
  outer loop
    vertex -6.337031429181861 55.26539008593634 -3.219891288302229
    vertex -3.168515714590918 53.73126598771073 -4.754015386527843
    vertex -6.337031429181843 53.21989128830217 -5.265390085936396
  endloop
endfacet
facet normal -1.8169e-16 0.707107 -0.707107
  outer loop
    vertex -2.820244304264098 50.10161291226279 -8.38366846197578
    vertex -1.410122152132046 52.17212679969104 -6.313154574547536
    vertex 2.966181905969985e-14 49.64644660940672 -8.838834764831844
  endloop
endfacet
facet normal 4.45378e-16 0.707107 -0.707107
  outer loop
    vertex -1.410122152132046 52.17212679969104 -6.313154574547536
    vertex 1.410122152132078 52.17212679969104 -6.313154574547527
    vertex 2.966181905969985e-14 49.64644660940672 -8.838834764831844
  endloop
endfacet
facet normal 4.45378e-16 0.707107 -0.707107
  outer loop
    vertex -1.410122152132046 52.17212679969104 -6.313154574547536
    vertex 6.724779463443805e-15 54.24264068711928 -4.242640687119289
    vertex 1.410122152132078 52.17212679969104 -6.313154574547527
  endloop
endfacet
facet normal 5.57183e-16 0.707107 -0.707107
  outer loop
    vertex 2.966181905969985e-14 49.64644660940672 -8.838834764831844
    vertex 1.410122152132078 52.17212679969104 -6.313154574547527
    vertex 2.820244304264149 50.1016129122628 -8.383668461975764
  endloop
endfacet
facet normal -5.4507e-16 0.707107 -0.707107
  outer loop
    vertex -6.337031429181843 53.21989128830217 -5.265390085936396
    vertex -3.168515714590918 53.73126598771073 -4.754015386527843
    vertex -5.081904636042168 51.37696055230197 -7.108320821936594
  endloop
endfacet
facet normal -6.17189e-16 0.707107 -0.707107
  outer loop
    vertex -3.168515714590918 53.73126598771073 -4.754015386527843
    vertex -1.410122152132046 52.17212679969104 -6.313154574547536
    vertex -5.081904636042168 51.37696055230197 -7.108320821936594
  endloop
endfacet
facet normal 7.79755e-16 0.707107 -0.707107
  outer loop
    vertex -3.168515714590918 53.73126598771073 -4.754015386527843
    vertex 6.724779463443805e-15 54.24264068711928 -4.242640687119289
    vertex -1.410122152132046 52.17212679969104 -6.313154574547536
  endloop
endfacet
facet normal -4.84507e-16 0.707107 -0.707107
  outer loop
    vertex -5.081904636042168 51.37696055230197 -7.108320821936594
    vertex -1.410122152132046 52.17212679969104 -6.313154574547536
    vertex -2.820244304264098 50.10161291226279 -8.38366846197578
  endloop
endfacet
facet normal -2.90704e-16 -0.707107 0.707107
  outer loop
    vertex -2.820244304264098 41.61633153802422 0.1016129122627865
    vertex 2.966181905969985e-14 41.16116523516816 -0.3535533905932757
    vertex -1.410122152132046 43.68684542545247 2.172126799691033
  endloop
endfacet
facet normal -3.52679e-16 -0.707107 0.707107
  outer loop
    vertex 2.966181905969985e-14 41.16116523516816 -0.3535533905932757
    vertex 1.410122152132078 43.68684542545247 2.172126799691041
    vertex -1.410122152132046 43.68684542545247 2.172126799691033
  endloop
endfacet
facet normal -3.6338e-16 -0.707107 0.707107
  outer loop
    vertex 2.966181905969985e-14 41.16116523516816 -0.3535533905932757
    vertex 2.820244304264149 41.61633153802423 0.1016129122628033
    vertex 1.410122152132078 43.68684542545247 2.172126799691041
  endloop
endfacet
facet normal -3.34033e-16 -0.707107 0.707107
  outer loop
    vertex -1.410122152132046 43.68684542545247 2.172126799691033
    vertex 1.410122152132078 43.68684542545247 2.172126799691041
    vertex 6.471014200672341e-15 45.75735931288071 4.242640687119279
  endloop
endfacet
facet normal 4.23944e-16 -0.707107 0.707107
  outer loop
    vertex -6.337031429181843 44.7346099140636 3.219891288302172
    vertex -5.081904636042168 42.89167917806341 1.376960552301973
    vertex -3.168515714590918 45.24598461347216 3.731265987710725
  endloop
endfacet
facet normal 5.06977e-16 -0.707107 0.707107
  outer loop
    vertex -5.081904636042168 42.89167917806341 1.376960552301973
    vertex -1.410122152132046 43.68684542545247 2.172126799691033
    vertex -3.168515714590918 45.24598461347216 3.731265987710725
  endloop
endfacet
facet normal 5.08732e-16 -0.707107 0.707107
  outer loop
    vertex -5.081904636042168 42.89167917806341 1.376960552301973
    vertex -2.820244304264098 41.61633153802422 0.1016129122627865
    vertex -1.410122152132046 43.68684542545247 2.172126799691033
  endloop
endfacet
facet normal -8.06643e-16 -0.707107 0.707107
  outer loop
    vertex -3.168515714590918 45.24598461347216 3.731265987710725
    vertex -1.410122152132046 43.68684542545247 2.172126799691033
    vertex 6.471014200672341e-15 45.75735931288071 4.242640687119279
  endloop
endfacet
facet normal -1.93803e-16 -0.707107 0.707107
  outer loop
    vertex -5.081904636042209 48.62303944769799 7.108320821936559
    vertex -6.337031429181861 46.78010871169777 5.265390085936339
    vertex -2.540952318021101 47.19019938028935 5.675480754527919
  endloop
endfacet
facet normal -2.20425e-17 -0.707107 0.707107
  outer loop
    vertex -6.337031429181861 46.78010871169777 5.265390085936339
    vertex -3.168515714590918 45.24598461347216 3.731265987710725
    vertex -2.540952318021101 47.19019938028935 5.675480754527919
  endloop
endfacet
facet normal 5.32958e-16 -0.707107 0.707107
  outer loop
    vertex -6.337031429181861 46.78010871169777 5.265390085936339
    vertex -6.337031429181843 44.7346099140636 3.219891288302172
    vertex -3.168515714590918 45.24598461347216 3.731265987710725
  endloop
endfacet
facet normal -8.6042e-16 -0.707107 0.707107
  outer loop
    vertex -2.540952318021101 47.19019938028935 5.675480754527919
    vertex -3.168515714590918 45.24598461347216 3.731265987710725
    vertex 6.471014200672341e-15 45.75735931288071 4.242640687119279
  endloop
endfacet
facet normal 6.29859e-16 -0.707107 0.707107
  outer loop
    vertex 2.820244304264149 41.61633153802423 0.1016129122628033
    vertex 5.081904636042205 42.89167917806344 1.376960552302006
    vertex 1.410122152132078 43.68684542545247 2.172126799691041
  endloop
endfacet
facet normal 3.08594e-16 -0.707107 0.707107
  outer loop
    vertex 5.081904636042205 42.89167917806344 1.376960552302006
    vertex 3.168515714590932 45.24598461347218 3.731265987710746
    vertex 1.410122152132078 43.68684542545247 2.172126799691041
  endloop
endfacet
facet normal -3.87606e-16 -0.707107 0.707107
  outer loop
    vertex 5.081904636042205 42.89167917806344 1.376960552302006
    vertex 6.337031429181857 44.73460991406365 3.219891288302213
    vertex 3.168515714590932 45.24598461347218 3.731265987710746
  endloop
endfacet
facet normal 1.02175e-15 -0.707107 0.707107
  outer loop
    vertex 1.410122152132078 43.68684542545247 2.172126799691041
    vertex 3.168515714590932 45.24598461347218 3.731265987710746
    vertex 6.471014200672341e-15 45.75735931288071 4.242640687119279
  endloop
endfacet
facet normal 4.36056e-16 -0.707107 0.707107
  outer loop
    vertex -1.592040838891559e-15 50.35355339059328 8.838834764831844
    vertex -2.82024430426414 49.8983870877372 8.383668461975768
    vertex 3.23550710033617e-15 48.05545635173699 6.540737725975561
  endloop
endfacet
facet normal 2.6451e-16 -0.707107 0.707107
  outer loop
    vertex -2.82024430426414 49.8983870877372 8.383668461975768
    vertex -2.540952318021101 47.19019938028935 5.675480754527919
    vertex 3.23550710033617e-15 48.05545635173699 6.540737725975561
  endloop
endfacet
facet normal -3.87606e-16 -0.707107 0.707107
  outer loop
    vertex -2.82024430426414 49.8983870877372 8.383668461975768
    vertex -5.081904636042209 48.62303944769799 7.108320821936559
    vertex -2.540952318021101 47.19019938028935 5.675480754527919
  endloop
endfacet
facet normal 5.37762e-17 -0.707107 0.707107
  outer loop
    vertex 3.23550710033617e-15 48.05545635173699 6.540737725975561
    vertex -2.540952318021101 47.19019938028935 5.675480754527919
    vertex 6.471014200672341e-15 45.75735931288071 4.242640687119279
  endloop
endfacet
facet normal -6.7831e-16 -0.707107 0.707107
  outer loop
    vertex 6.337031429181857 44.73460991406365 3.219891288302213
    vertex 6.337031429181851 46.7801087116978 5.265390085936371
    vertex 3.168515714590932 45.24598461347218 3.731265987710746
  endloop
endfacet
facet normal -4.07786e-16 -0.707107 0.707107
  outer loop
    vertex 6.337031429181851 46.7801087116978 5.265390085936371
    vertex 2.540952318021098 47.19019938028936 5.675480754527928
    vertex 3.168515714590932 45.24598461347218 3.731265987710746
  endloop
endfacet
facet normal -1.33239e-16 -0.707107 0.707107
  outer loop
    vertex 6.337031429181851 46.7801087116978 5.265390085936371
    vertex 5.081904636042189 48.62303944769801 7.108320821936576
    vertex 2.540952318021098 47.19019938028936 5.675480754527928
  endloop
endfacet
facet normal 7.93199e-16 -0.707107 0.707107
  outer loop
    vertex 3.168515714590932 45.24598461347218 3.731265987710746
    vertex 2.540952318021098 47.19019938028936 5.675480754527928
    vertex 6.471014200672341e-15 45.75735931288071 4.242640687119279
  endloop
endfacet
facet normal -4.11831e-16 -0.707107 0.707107
  outer loop
    vertex 5.081904636042189 48.62303944769801 7.108320821936576
    vertex 2.820244304264125 49.89838708773721 8.383668461975773
    vertex 2.540952318021098 47.19019938028936 5.675480754527928
  endloop
endfacet
facet normal -4.40849e-16 -0.707107 0.707107
  outer loop
    vertex 2.820244304264125 49.89838708773721 8.383668461975773
    vertex 3.23550710033617e-15 48.05545635173699 6.540737725975561
    vertex 2.540952318021098 47.19019938028936 5.675480754527928
  endloop
endfacet
facet normal 0 -0.707107 0.707107
  outer loop
    vertex 2.820244304264125 49.89838708773721 8.383668461975773
    vertex -1.592040838891559e-15 50.35355339059328 8.838834764831844
    vertex 3.23550710033617e-15 48.05545635173699 6.540737725975561
  endloop
endfacet
facet normal -5.37762e-16 -0.707107 0.707107
  outer loop
    vertex 2.540952318021098 47.19019938028936 5.675480754527928
    vertex 3.23550710033617e-15 48.05545635173699 6.540737725975561
    vertex 6.471014200672341e-15 45.75735931288071 4.242640687119279
  endloop
endfacet
endsolid Created by Gmsh
