solid Created by Gmsh
facet normal -1 0 0
  outer loop
    vertex -10 0 10
    vertex -10 15 10
    vertex -10 7.500000000000001 5
  endloop
endfacet
facet normal -1 0 -0
  outer loop
    vertex -10 15 10
    vertex -10 22.5 5
    vertex -10 7.500000000000001 5
  endloop
endfacet
facet normal -1 0 0
  outer loop
    vertex -10 15 10
    vertex -10 30 10
    vertex -10 22.5 5
  endloop
endfacet
facet normal -1 0 0
  outer loop
    vertex -10 7.500000000000001 5
    vertex -10 22.5 5
    vertex -10 15 0
  endloop
endfacet
facet normal -1 0 0
  outer loop
    vertex -10 30 -10
    vertex -10 15 -10
    vertex -10 22.5 -5
  endloop
endfacet
facet normal -1 0 0
  outer loop
    vertex -10 15 -10
    vertex -10 7.500000000000001 -5
    vertex -10 22.5 -5
  endloop
endfacet
facet normal -1 0 0
  outer loop
    vertex -10 15 -10
    vertex -10 0 -10
    vertex -10 7.500000000000001 -5
  endloop
endfacet
facet normal -1 0 0
  outer loop
    vertex -10 22.5 -5
    vertex -10 7.500000000000001 -5
    vertex -10 15 0
  endloop
endfacet
facet normal -1 0 0
  outer loop
    vertex -10 60 -10
    vertex -10 45 -10
    vertex -10 52.5 -5
  endloop
endfacet
facet normal -1 0 0
  outer loop
    vertex -10 45 -10
    vertex -10 37.5 -5
    vertex -10 52.5 -5
  endloop
endfacet
facet normal -1 0 0
  outer loop
    vertex -10 45 -10
    vertex -10 30 -10
    vertex -10 37.5 -5
  endloop
endfacet
facet normal -1 0 0
  outer loop
    vertex -10 52.5 -5
    vertex -10 37.5 -5
    vertex -10 45 0
  endloop
endfacet
facet normal -1 0 0
  outer loop
    vertex -10 30 10
    vertex -10 45 10
    vertex -10 37.5 5
  endloop
endfacet
facet normal -1 0 -0
  outer loop
    vertex -10 45 10
    vertex -10 52.5 5
    vertex -10 37.5 5
  endloop
endfacet
facet normal -1 0 0
  outer loop
    vertex -10 45 10
    vertex -10 60 10
    vertex -10 52.5 5
  endloop
endfacet
facet normal -1 0 0
  outer loop
    vertex -10 37.5 5
    vertex -10 52.5 5
    vertex -10 45 0
  endloop
endfacet
facet normal -1 0 0
  outer loop
    vertex -10 0 -10
    vertex -10 0 0
    vertex -10 7.500000000000001 -5
  endloop
endfacet
facet normal -1 0 0
  outer loop
    vertex -10 0 0
    vertex -10 7.500000000000001 5
    vertex -10 7.500000000000001 -5
  endloop
endfacet
facet normal -1 0 0
  outer loop
    vertex -10 0 0
    vertex -10 0 10
    vertex -10 7.500000000000001 5
  endloop
endfacet
facet normal -1 0 0
  outer loop
    vertex -10 7.500000000000001 -5
    vertex -10 7.500000000000001 5
    vertex -10 15 0
  endloop
endfacet
facet normal -1 0 -0
  outer loop
    vertex -10 60 10
    vertex -10 60 0
    vertex -10 52.5 5
  endloop
endfacet
facet normal -1 -0 0
  outer loop
    vertex -10 60 0
    vertex -10 52.5 -5
    vertex -10 52.5 5
  endloop
endfacet
facet normal -1 0 -0
  outer loop
    vertex -10 60 0
    vertex -10 60 -10
    vertex -10 52.5 -5
  endloop
endfacet
facet normal -1 0 -0
  outer loop
    vertex -10 52.5 5
    vertex -10 52.5 -5
    vertex -10 45 0
  endloop
endfacet
facet normal -1 0 0
  outer loop
    vertex -10 30 -10
    vertex -10 30 0
    vertex -10 37.5 -5
  endloop
endfacet
facet normal -1 0 0
  outer loop
    vertex -10 30 0
    vertex -10 37.5 5
    vertex -10 37.5 -5
  endloop
endfacet
facet normal -1 0 0
  outer loop
    vertex -10 30 0
    vertex -10 30 10
    vertex -10 37.5 5
  endloop
endfacet
facet normal -1 0 0
  outer loop
    vertex -10 37.5 -5
    vertex -10 37.5 5
    vertex -10 45 0
  endloop
endfacet
facet normal -1 0 -0
  outer loop
    vertex -10 30 10
    vertex -10 30 0
    vertex -10 22.5 5
  endloop
endfacet
facet normal -1 -0 0
  outer loop
    vertex -10 30 0
    vertex -10 22.5 -5
    vertex -10 22.5 5
  endloop
endfacet
facet normal -1 0 -0
  outer loop
    vertex -10 30 0
    vertex -10 30 -10
    vertex -10 22.5 -5
  endloop
endfacet
facet normal -1 0 -0
  outer loop
    vertex -10 22.5 5
    vertex -10 22.5 -5
    vertex -10 15 0
  endloop
endfacet
facet normal 0 -1 0
  outer loop
    vertex -10 0 10
    vertex -10 0 0
    vertex -5 0 5
  endloop
endfacet
facet normal 0 -1 0
  outer loop
    vertex -10 0 0
    vertex -5 0 -5
    vertex -5 0 5
  endloop
endfacet
facet normal 0 -1 0
  outer loop
    vertex -10 0 0
    vertex -10 0 -10
    vertex -5 0 -5
  endloop
endfacet
facet normal 0 -1 0
  outer loop
    vertex -5 0 5
    vertex -5 0 -5
    vertex 0 0 0
  endloop
endfacet
facet normal -0 -1 0
  outer loop
    vertex 10 0 10
    vertex 0 0 10
    vertex 5 0 5
  endloop
endfacet
facet normal 0 -1 -0
  outer loop
    vertex 0 0 10
    vertex -5 0 5
    vertex 5 0 5
  endloop
endfacet
facet normal -0 -1 0
  outer loop
    vertex 0 0 10
    vertex -10 0 10
    vertex -5 0 5
  endloop
endfacet
facet normal -0 -1 0
  outer loop
    vertex 5 0 5
    vertex -5 0 5
    vertex 0 0 0
  endloop
endfacet
facet normal 0 -1 0
  outer loop
    vertex -10 0 -10
    vertex 0 0 -10
    vertex -5 0 -5
  endloop
endfacet
facet normal 0 -1 0
  outer loop
    vertex 0 0 -10
    vertex 5 0 -5
    vertex -5 0 -5
  endloop
endfacet
facet normal 0 -1 0
  outer loop
    vertex 0 0 -10
    vertex 10 0 -10
    vertex 5 0 -5
  endloop
endfacet
facet normal 0 -1 0
  outer loop
    vertex -5 0 -5
    vertex 5 0 -5
    vertex 0 0 0
  endloop
endfacet
facet normal 0 -1 0
  outer loop
    vertex 10 0 -10
    vertex 10 0 0
    vertex 5 0 -5
  endloop
endfacet
facet normal -0 -1 0
  outer loop
    vertex 10 0 0
    vertex 5 0 5
    vertex 5 0 -5
  endloop
endfacet
facet normal 0 -1 0
  outer loop
    vertex 10 0 0
    vertex 10 0 10
    vertex 5 0 5
  endloop
endfacet
facet normal 0 -1 0
  outer loop
    vertex 5 0 -5
    vertex 5 0 5
    vertex 0 0 0
  endloop
endfacet
facet normal 0 0 1
  outer loop
    vertex -10 0 10
    vertex -5 7.500000000000001 10
    vertex -10 15 10
  endloop
endfacet
facet normal 0 -0 1
  outer loop
    vertex -5 7.500000000000001 10
    vertex -5 22.5 10
    vertex -10 15 10
  endloop
endfacet
facet normal 0 0 1
  outer loop
    vertex -5 7.500000000000001 10
    vertex 0 15 10
    vertex -5 22.5 10
  endloop
endfacet
facet normal 0 0 1
  outer loop
    vertex -10 15 10
    vertex -5 22.5 10
    vertex -10 30 10
  endloop
endfacet
facet normal 0 0 1
  outer loop
    vertex -10 30 10
    vertex -5 37.5 10
    vertex -10 45 10
  endloop
endfacet
facet normal 0 -0 1
  outer loop
    vertex -5 37.5 10
    vertex -5 52.5 10
    vertex -10 45 10
  endloop
endfacet
facet normal 0 0 1
  outer loop
    vertex -5 37.5 10
    vertex 0 45 10
    vertex -5 52.5 10
  endloop
endfacet
facet normal 0 0 1
  outer loop
    vertex -10 45 10
    vertex -5 52.5 10
    vertex -10 60 10
  endloop
endfacet
facet normal 0 0 1
  outer loop
    vertex 10 30 10
    vertex 5 22.5 10
    vertex 10 15 10
  endloop
endfacet
facet normal 0 0 1
  outer loop
    vertex 5 22.5 10
    vertex 5 7.500000000000001 10
    vertex 10 15 10
  endloop
endfacet
facet normal 0 0 1
  outer loop
    vertex 5 22.5 10
    vertex 0 15 10
    vertex 5 7.500000000000001 10
  endloop
endfacet
facet normal 0 0 1
  outer loop
    vertex 10 15 10
    vertex 5 7.500000000000001 10
    vertex 10 0 10
  endloop
endfacet
facet normal 0 0 1
  outer loop
    vertex 10 60 10
    vertex 5 52.5 10
    vertex 10 45 10
  endloop
endfacet
facet normal 0 0 1
  outer loop
    vertex 5 52.5 10
    vertex 5 37.5 10
    vertex 10 45 10
  endloop
endfacet
facet normal 0 0 1
  outer loop
    vertex 5 52.5 10
    vertex 0 45 10
    vertex 5 37.5 10
  endloop
endfacet
facet normal 0 0 1
  outer loop
    vertex 10 45 10
    vertex 5 37.5 10
    vertex 10 30 10
  endloop
endfacet
facet normal 0 0 1
  outer loop
    vertex 10 0 10
    vertex 5 7.500000000000001 10
    vertex 0 0 10
  endloop
endfacet
facet normal 0 0 1
  outer loop
    vertex 5 7.500000000000001 10
    vertex -5 7.500000000000001 10
    vertex 0 0 10
  endloop
endfacet
facet normal 0 0 1
  outer loop
    vertex 5 7.500000000000001 10
    vertex 0 15 10
    vertex -5 7.500000000000001 10
  endloop
endfacet
facet normal 0 0 1
  outer loop
    vertex 0 0 10
    vertex -5 7.500000000000001 10
    vertex -10 0 10
  endloop
endfacet
facet normal -0 0 1
  outer loop
    vertex -10 60 10
    vertex -5 52.5 10
    vertex 0 60 10
  endloop
endfacet
facet normal 0 0 1
  outer loop
    vertex -5 52.5 10
    vertex 5 52.5 10
    vertex 0 60 10
  endloop
endfacet
facet normal -0 0 1
  outer loop
    vertex -5 52.5 10
    vertex 0 45 10
    vertex 5 52.5 10
  endloop
endfacet
facet normal -0 0 1
  outer loop
    vertex 0 60 10
    vertex 5 52.5 10
    vertex 10 60 10
  endloop
endfacet
facet normal -0 0 1
  outer loop
    vertex -10 30 10
    vertex -5 22.5 10
    vertex 0 30 10
  endloop
endfacet
facet normal 0 0 1
  outer loop
    vertex -5 22.5 10
    vertex 5 22.5 10
    vertex 0 30 10
  endloop
endfacet
facet normal -0 0 1
  outer loop
    vertex -5 22.5 10
    vertex 0 15 10
    vertex 5 22.5 10
  endloop
endfacet
facet normal -0 0 1
  outer loop
    vertex 0 30 10
    vertex 5 22.5 10
    vertex 10 30 10
  endloop
endfacet
facet normal 0 0 1
  outer loop
    vertex 10 30 10
    vertex 5 37.5 10
    vertex 0 30 10
  endloop
endfacet
facet normal 0 0 1
  outer loop
    vertex 5 37.5 10
    vertex -5 37.5 10
    vertex 0 30 10
  endloop
endfacet
facet normal 0 0 1
  outer loop
    vertex 5 37.5 10
    vertex 0 45 10
    vertex -5 37.5 10
  endloop
endfacet
facet normal 0 0 1
  outer loop
    vertex 0 30 10
    vertex -5 37.5 10
    vertex -10 30 10
  endloop
endfacet
facet normal 0 0 -1
  outer loop
    vertex -10 0 -10
    vertex -10 15 -10
    vertex -5 7.500000000000001 -10
  endloop
endfacet
facet normal 0 0 -1
  outer loop
    vertex -10 15 -10
    vertex -5 22.5 -10
    vertex -5 7.500000000000001 -10
  endloop
endfacet
facet normal 0 0 -1
  outer loop
    vertex -10 15 -10
    vertex -10 30 -10
    vertex -5 22.5 -10
  endloop
endfacet
facet normal 0 0 -1
  outer loop
    vertex -5 7.500000000000001 -10
    vertex -5 22.5 -10
    vertex 0 15 -10
  endloop
endfacet
facet normal 0 0 -1
  outer loop
    vertex -10 30 -10
    vertex -10 45 -10
    vertex -5 37.5 -10
  endloop
endfacet
facet normal 0 0 -1
  outer loop
    vertex -10 45 -10
    vertex -5 52.5 -10
    vertex -5 37.5 -10
  endloop
endfacet
facet normal 0 0 -1
  outer loop
    vertex -10 45 -10
    vertex -10 60 -10
    vertex -5 52.5 -10
  endloop
endfacet
facet normal 0 0 -1
  outer loop
    vertex -5 37.5 -10
    vertex -5 52.5 -10
    vertex 0 45 -10
  endloop
endfacet
facet normal 0 -0 -1
  outer loop
    vertex 10 30 -10
    vertex 10 15 -10
    vertex 5 22.5 -10
  endloop
endfacet
facet normal -0 0 -1
  outer loop
    vertex 10 15 -10
    vertex 5 7.500000000000001 -10
    vertex 5 22.5 -10
  endloop
endfacet
facet normal 0 -0 -1
  outer loop
    vertex 10 15 -10
    vertex 10 0 -10
    vertex 5 7.500000000000001 -10
  endloop
endfacet
facet normal 0 -0 -1
  outer loop
    vertex 5 22.5 -10
    vertex 5 7.500000000000001 -10
    vertex 0 15 -10
  endloop
endfacet
facet normal 0 -0 -1
  outer loop
    vertex 10 60 -10
    vertex 10 45 -10
    vertex 5 52.5 -10
  endloop
endfacet
facet normal -0 0 -1
  outer loop
    vertex 10 45 -10
    vertex 5 37.5 -10
    vertex 5 52.5 -10
  endloop
endfacet
facet normal 0 -0 -1
  outer loop
    vertex 10 45 -10
    vertex 10 30 -10
    vertex 5 37.5 -10
  endloop
endfacet
facet normal 0 -0 -1
  outer loop
    vertex 5 52.5 -10
    vertex 5 37.5 -10
    vertex 0 45 -10
  endloop
endfacet
facet normal 0 0 -1
  outer loop
    vertex 10 0 -10
    vertex 0 0 -10
    vertex 5 7.500000000000001 -10
  endloop
endfacet
facet normal 0 0 -1
  outer loop
    vertex 0 0 -10
    vertex -5 7.500000000000001 -10
    vertex 5 7.500000000000001 -10
  endloop
endfacet
facet normal 0 0 -1
  outer loop
    vertex 0 0 -10
    vertex -10 0 -10
    vertex -5 7.500000000000001 -10
  endloop
endfacet
facet normal 0 0 -1
  outer loop
    vertex 5 7.500000000000001 -10
    vertex -5 7.500000000000001 -10
    vertex 0 15 -10
  endloop
endfacet
facet normal 0 0 -1
  outer loop
    vertex -10 60 -10
    vertex 0 60 -10
    vertex -5 52.5 -10
  endloop
endfacet
facet normal 0 -0 -1
  outer loop
    vertex 0 60 -10
    vertex 5 52.5 -10
    vertex -5 52.5 -10
  endloop
endfacet
facet normal 0 0 -1
  outer loop
    vertex 0 60 -10
    vertex 10 60 -10
    vertex 5 52.5 -10
  endloop
endfacet
facet normal 0 0 -1
  outer loop
    vertex -5 52.5 -10
    vertex 5 52.5 -10
    vertex 0 45 -10
  endloop
endfacet
facet normal 0 0 -1
  outer loop
    vertex 10 30 -10
    vertex 0 30 -10
    vertex 5 37.5 -10
  endloop
endfacet
facet normal 0 0 -1
  outer loop
    vertex 0 30 -10
    vertex -5 37.5 -10
    vertex 5 37.5 -10
  endloop
endfacet
facet normal 0 0 -1
  outer loop
    vertex 0 30 -10
    vertex -10 30 -10
    vertex -5 37.5 -10
  endloop
endfacet
facet normal 0 0 -1
  outer loop
    vertex 5 37.5 -10
    vertex -5 37.5 -10
    vertex 0 45 -10
  endloop
endfacet
facet normal 0 0 -1
  outer loop
    vertex -10 30 -10
    vertex 0 30 -10
    vertex -5 22.5 -10
  endloop
endfacet
facet normal 0 -0 -1
  outer loop
    vertex 0 30 -10
    vertex 5 22.5 -10
    vertex -5 22.5 -10
  endloop
endfacet
facet normal 0 0 -1
  outer loop
    vertex 0 30 -10
    vertex 10 30 -10
    vertex 5 22.5 -10
  endloop
endfacet
facet normal 0 0 -1
  outer loop
    vertex -5 22.5 -10
    vertex 5 22.5 -10
    vertex 0 15 -10
  endloop
endfacet
facet normal 1 0 0
  outer loop
    vertex 10 30 -10
    vertex 10 22.5 -5
    vertex 10 15 -10
  endloop
endfacet
facet normal 1 0 0
  outer loop
    vertex 10 22.5 -5
    vertex 10 7.500000000000001 -5
    vertex 10 15 -10
  endloop
endfacet
facet normal 1 0 0
  outer loop
    vertex 10 22.5 -5
    vertex 10 15 0
    vertex 10 7.500000000000001 -5
  endloop
endfacet
facet normal 1 0 0
  outer loop
    vertex 10 15 -10
    vertex 10 7.500000000000001 -5
    vertex 10 0 -10
  endloop
endfacet
facet normal 1 -0 0
  outer loop
    vertex 10 0 10
    vertex 10 7.500000000000001 5
    vertex 10 15 10
  endloop
endfacet
facet normal 1 0 0
  outer loop
    vertex 10 7.500000000000001 5
    vertex 10 22.5 5
    vertex 10 15 10
  endloop
endfacet
facet normal 1 -0 0
  outer loop
    vertex 10 7.500000000000001 5
    vertex 10 15 0
    vertex 10 22.5 5
  endloop
endfacet
facet normal 1 -0 0
  outer loop
    vertex 10 15 10
    vertex 10 22.5 5
    vertex 10 30 10
  endloop
endfacet
facet normal 1 -0 0
  outer loop
    vertex 10 30 10
    vertex 10 37.5 5
    vertex 10 45 10
  endloop
endfacet
facet normal 1 0 0
  outer loop
    vertex 10 37.5 5
    vertex 10 52.5 5
    vertex 10 45 10
  endloop
endfacet
facet normal 1 -0 0
  outer loop
    vertex 10 37.5 5
    vertex 10 45 0
    vertex 10 52.5 5
  endloop
endfacet
facet normal 1 -0 0
  outer loop
    vertex 10 45 10
    vertex 10 52.5 5
    vertex 10 60 10
  endloop
endfacet
facet normal 1 0 0
  outer loop
    vertex 10 60 -10
    vertex 10 52.5 -5
    vertex 10 45 -10
  endloop
endfacet
facet normal 1 0 0
  outer loop
    vertex 10 52.5 -5
    vertex 10 37.5 -5
    vertex 10 45 -10
  endloop
endfacet
facet normal 1 0 0
  outer loop
    vertex 10 52.5 -5
    vertex 10 45 0
    vertex 10 37.5 -5
  endloop
endfacet
facet normal 1 0 0
  outer loop
    vertex 10 45 -10
    vertex 10 37.5 -5
    vertex 10 30 -10
  endloop
endfacet
facet normal 1 0 0
  outer loop
    vertex 10 0 -10
    vertex 10 7.500000000000001 -5
    vertex 10 0 0
  endloop
endfacet
facet normal 1 0 -0
  outer loop
    vertex 10 7.500000000000001 -5
    vertex 10 7.500000000000001 5
    vertex 10 0 0
  endloop
endfacet
facet normal 1 0 0
  outer loop
    vertex 10 7.500000000000001 -5
    vertex 10 15 0
    vertex 10 7.500000000000001 5
  endloop
endfacet
facet normal 1 0 0
  outer loop
    vertex 10 0 0
    vertex 10 7.500000000000001 5
    vertex 10 0 10
  endloop
endfacet
facet normal 1 0 0
  outer loop
    vertex 10 60 10
    vertex 10 52.5 5
    vertex 10 60 0
  endloop
endfacet
facet normal 1 0 0
  outer loop
    vertex 10 52.5 5
    vertex 10 52.5 -5
    vertex 10 60 0
  endloop
endfacet
facet normal 1 0 0
  outer loop
    vertex 10 52.5 5
    vertex 10 45 0
    vertex 10 52.5 -5
  endloop
endfacet
facet normal 1 0 0
  outer loop
    vertex 10 60 0
    vertex 10 52.5 -5
    vertex 10 60 -10
  endloop
endfacet
facet normal 1 0 0
  outer loop
    vertex 10 30 -10
    vertex 10 37.5 -5
    vertex 10 30 0
  endloop
endfacet
facet normal 1 0 -0
  outer loop
    vertex 10 37.5 -5
    vertex 10 37.5 5
    vertex 10 30 0
  endloop
endfacet
facet normal 1 0 0
  outer loop
    vertex 10 37.5 -5
    vertex 10 45 0
    vertex 10 37.5 5
  endloop
endfacet
facet normal 1 0 0
  outer loop
    vertex 10 30 0
    vertex 10 37.5 5
    vertex 10 30 10
  endloop
endfacet
facet normal 1 0 0
  outer loop
    vertex 10 30 10
    vertex 10 22.5 5
    vertex 10 30 0
  endloop
endfacet
facet normal 1 0 0
  outer loop
    vertex 10 22.5 5
    vertex 10 22.5 -5
    vertex 10 30 0
  endloop
endfacet
facet normal 1 0 0
  outer loop
    vertex 10 22.5 5
    vertex 10 15 0
    vertex 10 22.5 -5
  endloop
endfacet
facet normal 1 0 0
  outer loop
    vertex 10 30 0
    vertex 10 22.5 -5
    vertex 10 30 -10
  endloop
endfacet
facet normal 0 1 0
  outer loop
    vertex -10 60 10
    vertex -5 60 5
    vertex -10 60 0
  endloop
endfacet
facet normal 0 1 0
  outer loop
    vertex -5 60 5
    vertex -5 60 -5
    vertex -10 60 0
  endloop
endfacet
facet normal 0 1 0
  outer loop
    vertex -5 60 5
    vertex 0 60 0
    vertex -5 60 -5
  endloop
endfacet
facet normal 0 1 0
  outer loop
    vertex -10 60 0
    vertex -5 60 -5
    vertex -10 60 -10
  endloop
endfacet
facet normal 0 1 0
  outer loop
    vertex -10 60 -10
    vertex -5 60 -5
    vertex 0 60 -10
  endloop
endfacet
facet normal -0 1 0
  outer loop
    vertex -5 60 -5
    vertex 5 60 -5
    vertex 0 60 -10
  endloop
endfacet
facet normal 0 1 0
  outer loop
    vertex -5 60 -5
    vertex 0 60 0
    vertex 5 60 -5
  endloop
endfacet
facet normal 0 1 0
  outer loop
    vertex 0 60 -10
    vertex 5 60 -5
    vertex 10 60 -10
  endloop
endfacet
facet normal 0 1 0
  outer loop
    vertex 10 60 10
    vertex 5 60 5
    vertex 0 60 10
  endloop
endfacet
facet normal 0 1 0
  outer loop
    vertex 5 60 5
    vertex -5 60 5
    vertex 0 60 10
  endloop
endfacet
facet normal 0 1 0
  outer loop
    vertex 5 60 5
    vertex 0 60 0
    vertex -5 60 5
  endloop
endfacet
facet normal 0 1 0
  outer loop
    vertex 0 60 10
    vertex -5 60 5
    vertex -10 60 10
  endloop
endfacet
facet normal 0 1 -0
  outer loop
    vertex 10 60 -10
    vertex 5 60 -5
    vertex 10 60 0
  endloop
endfacet
facet normal 0 1 0
  outer loop
    vertex 5 60 -5
    vertex 5 60 5
    vertex 10 60 0
  endloop
endfacet
facet normal 0 1 -0
  outer loop
    vertex 5 60 -5
    vertex 0 60 0
    vertex 5 60 5
  endloop
endfacet
facet normal 0 1 -0
  outer loop
    vertex 10 60 0
    vertex 5 60 5
    vertex 10 60 10
  endloop
endfacet
endsolid Created by Gmsh
