solid Created by Gmsh
facet normal -0.24381 0.24381 0.938677
  outer loop
    vertex 4.242640687119287 34.24264068711929 6.5
    vertex -1.108024144878088 34.84229330114038 4.954478897503161
    vertex 8.881784197001252e-16 30 6.5
  endloop
endfacet
facet normal -0.24381 0.24381 0.938677
  outer loop
    vertex -1.108024144878088 34.84229330114038 4.954478897503161
    vertex -5.350664831997374 30.59965261402109 4.954478897503161
    vertex 8.881784197001252e-16 30 6.5
  endloop
endfacet
facet normal -0.615486 0.615486 0.492294
  outer loop
    vertex -1.108024144878088 34.84229330114038 4.954478897503161
    vertex -5.043867256971364 34.02712419525737 1.05288035255512
    vertex -5.350664831997374 30.59965261402109 4.954478897503161
  endloop
endfacet
facet normal -0.24381 0.24381 0.938677
  outer loop
    vertex 8.881784197001252e-16 30 6.5
    vertex -5.350664831997374 30.59965261402109 4.954478897503161
    vertex -4.242640687119284 25.75735931288072 6.5
  endloop
endfacet
facet normal 0.272213 -0.272213 0.92293
  outer loop
    vertex -4.242640687119284 25.75735931288072 6.5
    vertex 0.872811259477329 24.34074149081061 4.573404887896451
    vertex 8.881784197001252e-16 30 6.5
  endloop
endfacet
facet normal 0.272213 -0.272213 0.92293
  outer loop
    vertex 0.872811259477329 24.34074149081061 4.573404887896451
    vertex 5.115451946596615 28.5833821779299 4.573404887896453
    vertex 8.881784197001252e-16 30 6.5
  endloop
endfacet
facet normal 0.655271 -0.655271 0.375819
  outer loop
    vertex 0.872811259477329 24.34074149081061 4.573404887896451
    vertex 4.052162638653533 24.86022423616091 -0.06429776349687474
    vertex 5.115451946596615 28.5833821779299 4.573404887896453
  endloop
endfacet
facet normal 0.272213 -0.272213 0.92293
  outer loop
    vertex 8.881784197001252e-16 30 6.5
    vertex 5.115451946596615 28.5833821779299 4.573404887896453
    vertex 4.242640687119287 34.24264068711929 6.5
  endloop
endfacet
facet normal 0.661417 -0.611966 0.433618
  outer loop
    vertex 7.836089916608073 30.6491914576305 4.052683712081773
    vertex 6.195143194591218 27.5036909299353 2.116442478690058
    vertex 8.723598583286055 29.76168279095253 1.446386070716054
  endloop
endfacet
facet normal 0.677888 -0.727339 0.106983
  outer loop
    vertex 6.195143194591218 27.5036909299353 2.116442478690058
    vertex 6.414110085244861 27.28472403928165 -0.7597073198845078
    vertex 8.723598583286055 29.76168279095253 1.446386070716054
  endloop
endfacet
facet normal 0.727339 -0.677888 0.106983
  outer loop
    vertex 6.195143194591218 27.5036909299353 2.116442478690058
    vertex 4.052162638653533 24.86022423616091 -0.06429776349687474
    vertex 6.414110085244861 27.28472403928165 -0.7597073198845078
  endloop
endfacet
facet normal 0.7314 -0.681949 2.57331e-15
  outer loop
    vertex 8.723598583286055 29.76168279095253 1.446386070716054
    vertex 6.414110085244861 27.28472403928165 -0.7597073198845078
    vertex 8.723598583286059 29.76168279095252 -1.446386070716031
  endloop
endfacet
facet normal -0.678651 0.593182 0.433091
  outer loop
    vertex -7.836089916608084 29.35080854236951 4.052683712081749
    vertex -6.57607619497468 31.8250639769984 2.638261151863115
    vertex -8.723598583286057 30.23831720904749 1.446386070716009
  endloop
endfacet
facet normal -0.6499 0.73537 0.191991
  outer loop
    vertex -6.57607619497468 31.8250639769984 2.638261151863115
    vertex -6.969513135811017 32.21850091783474 -0.2004965710530787
    vertex -8.723598583286057 30.23831720904749 1.446386070716009
  endloop
endfacet
facet normal -0.73537 0.6499 0.191991
  outer loop
    vertex -6.57607619497468 31.8250639769984 2.638261151863115
    vertex -5.043867256971364 34.02712419525737 1.05288035255512
    vertex -6.969513135811017 32.21850091783474 -0.2004965710530787
  endloop
endfacet
facet normal -0.748549 0.663079 -5.66067e-15
  outer loop
    vertex -8.723598583286057 30.23831720904749 1.446386070716009
    vertex -6.969513135811017 32.21850091783474 -0.2004965710530787
    vertex -8.723598583286044 30.23831720904748 -1.44638607071609
  endloop
endfacet
facet normal -0.831281 0.555852 -6.30388e-15
  outer loop
    vertex -0.238317209047473 38.72359858328605 -1.44638607071609
    vertex -1.61036624505389 36.67168930465905 -2.82024430426417
    vertex -0.2383172090474854 38.72359858328606 1.446386070716009
  endloop
endfacet
facet normal -0.538463 0.813892 -0.21826
  outer loop
    vertex -1.61036624505389 36.67168930465905 -2.82024430426417
    vertex -2.065532547909976 37.12685560751514 -3.583298899747355e-14
    vertex -0.2383172090474854 38.72359858328606 1.446386070716009
  endloop
endfacet
facet normal -0.813892 0.538463 -0.21826
  outer loop
    vertex -1.61036624505389 36.67168930465905 -2.82024430426417
    vertex -2.77476685700289 34.41213160197465 -4.0526837120818
    vertex -2.065532547909976 37.12685560751514 -3.583298899747355e-14
  endloop
endfacet
facet normal -0.762596 0.487168 0.425575
  outer loop
    vertex -0.2383172090474854 38.72359858328606 1.446386070716009
    vertex -2.065532547909976 37.12685560751514 -3.583298899747355e-14
    vertex 0.6491914576304874 37.83608991660809 4.052683712081749
  endloop
endfacet
facet normal 0.674401 -0.738366 2.64188e-15
  outer loop
    vertex 0.2383172090474863 21.27640141671395 -1.446386070716031
    vertex 2.171469398125573 23.04208335216236 -0.7597073198845063
    vertex 0.2383172090474828 21.27640141671395 1.446386070716054
  endloop
endfacet
facet normal 0.734307 -0.670342 0.106939
  outer loop
    vertex 2.171469398125573 23.04208335216236 -0.7597073198845063
    vertex 1.95250250747193 23.26105024281601 2.116442478690058
    vertex 0.2383172090474828 21.27640141671395 1.446386070716054
  endloop
endfacet
facet normal 0.670342 -0.734307 0.106939
  outer loop
    vertex 2.171469398125573 23.04208335216236 -0.7597073198845063
    vertex 4.052162638653533 24.86022423616091 -0.06429776349687474
    vertex 1.95250250747193 23.26105024281601 2.116442478690058
  endloop
endfacet
facet normal 0.604447 -0.668412 0.43344
  outer loop
    vertex 0.2383172090474828 21.27640141671395 1.446386070716054
    vertex 1.95250250747193 23.26105024281601 2.116442478690058
    vertex -0.649191457630498 22.16391008339193 4.052683712081773
  endloop
endfacet
facet normal -0.0166187 0.292048 -0.956259
  outer loop
    vertex -6.236854559267165 27.7515731850286 -5.856297641365738
    vertex -1.50791213098548 26.44658907138032 -6.337031429181848
    vertex -4.242640687119263 25.75735931288069 -6.5
  endloop
endfacet
facet normal 0.163213 -0.438642 -0.883717
  outer loop
    vertex -1.50791213098548 26.44658907138032 -6.337031429181848
    vertex 0.3350186050147226 24.60365833538012 -5.08190463604218
    vertex -4.242640687119263 25.75735931288069 -6.5
  endloop
endfacet
facet normal 0.438642 -0.163213 -0.883717
  outer loop
    vertex -1.50791213098548 26.44658907138032 -6.337031429181848
    vertex 2.774766857002926 25.58786839802533 -4.052683712081754
    vertex 0.3350186050147226 24.60365833538012 -5.08190463604218
  endloop
endfacet
facet normal 0.292048 -0.0166187 -0.956259
  outer loop
    vertex -4.242640687119263 25.75735931288069 -6.5
    vertex 0.3350186050147226 24.60365833538012 -5.08190463604218
    vertex -2.248426814971367 23.7631454407328 -5.856297641365714
  endloop
endfacet
facet normal 0.0166187 -0.292048 -0.956259
  outer loop
    vertex 6.236854559267204 32.24842681497137 -5.856297641365714
    vertex 1.507912130985526 33.55341092861965 -6.33703142918186
    vertex 4.242640687119309 34.24264068711927 -6.5
  endloop
endfacet
facet normal -0.163213 0.438642 -0.883717
  outer loop
    vertex 1.507912130985526 33.55341092861965 -6.33703142918186
    vertex -0.3350186050146844 35.39634166461985 -5.081904636042216
    vertex 4.242640687119309 34.24264068711927 -6.5
  endloop
endfacet
facet normal -0.438642 0.163213 -0.883717
  outer loop
    vertex 1.507912130985526 33.55341092861965 -6.33703142918186
    vertex -2.77476685700289 34.41213160197465 -4.0526837120818
    vertex -0.3350186050146844 35.39634166461985 -5.081904636042216
  endloop
endfacet
facet normal -0.292048 0.0166187 -0.956259
  outer loop
    vertex 4.242640687119309 34.24264068711927 -6.5
    vertex -0.3350186050146844 35.39634166461985 -5.081904636042216
    vertex 2.248426814971407 36.23685455926717 -5.856297641365738
  endloop
endfacet
facet normal -0.668587 0.604256 -0.433435
  outer loop
    vertex -8.723598583286044 30.23831720904748 -1.44638607071609
    vertex -5.853006932173175 32.42904861753977 -2.82024430426417
    vertex -7.836089916608055 29.35080854236949 -4.0526837120818
  endloop
endfacet
facet normal -0.520101 0.584432 -0.622844
  outer loop
    vertex -5.853006932173175 32.42904861753977 -2.82024430426417
    vertex -4.577659292133971 31.15370097750057 -5.081904636042216
    vertex -7.836089916608055 29.35080854236949 -4.0526837120818
  endloop
endfacet
facet normal -0.584432 0.520101 -0.622844
  outer loop
    vertex -5.853006932173175 32.42904861753977 -2.82024430426417
    vertex -2.77476685700289 34.41213160197465 -4.0526837120818
    vertex -4.577659292133971 31.15370097750057 -5.081904636042216
  endloop
endfacet
facet normal -0.472583 0.408252 -0.781022
  outer loop
    vertex -7.836089916608055 29.35080854236949 -4.0526837120818
    vertex -4.577659292133971 31.15370097750057 -5.081904636042216
    vertex -6.236854559267165 27.7515731850286 -5.856297641365738
  endloop
endfacet
facet normal 0.668587 -0.604256 -0.433435
  outer loop
    vertex 8.723598583286059 29.76168279095252 -1.446386070716031
    vertex 5.853006932173201 27.57095138246022 -2.820244304264115
    vertex 7.836089916608085 30.64919145763049 -4.052683712081754
  endloop
endfacet
facet normal 0.520101 -0.584432 -0.622844
  outer loop
    vertex 5.853006932173201 27.57095138246022 -2.820244304264115
    vertex 4.577659292134008 28.84629902249941 -5.08190463604218
    vertex 7.836089916608085 30.64919145763049 -4.052683712081754
  endloop
endfacet
facet normal 0.584432 -0.520101 -0.622844
  outer loop
    vertex 5.853006932173201 27.57095138246022 -2.820244304264115
    vertex 2.774766857002926 25.58786839802533 -4.052683712081754
    vertex 4.577659292134008 28.84629902249941 -5.08190463604218
  endloop
endfacet
facet normal 0.472583 -0.408252 -0.781022
  outer loop
    vertex 7.836089916608085 30.64919145763049 -4.052683712081754
    vertex 4.577659292134008 28.84629902249941 -5.08190463604218
    vertex 6.236854559267204 32.24842681497137 -5.856297641365714
  endloop
endfacet
facet normal -0.0197289 -0.324932 0.945531
  outer loop
    vertex 4.242640687119287 34.24264068711929 6.5
    vertex 5.115451946596615 28.5833821779299 4.573404887896453
    vertex 6.236854559267186 32.24842681497139 5.856297641365726
  endloop
endfacet
facet normal 0.7548 -0.410138 0.511922
  outer loop
    vertex 5.115451946596615 28.5833821779299 4.573404887896453
    vertex 6.195143194591218 27.5036909299353 2.116442478690058
    vertex 6.236854559267186 32.24842681497139 5.856297641365726
  endloop
endfacet
facet normal 0.410138 -0.7548 0.511922
  outer loop
    vertex 5.115451946596615 28.5833821779299 4.573404887896453
    vertex 4.052162638653533 24.86022423616091 -0.06429776349687474
    vertex 6.195143194591218 27.5036909299353 2.116442478690058
  endloop
endfacet
facet normal 0.25525 -0.599911 0.758257
  outer loop
    vertex 6.236854559267186 32.24842681497139 5.856297641365726
    vertex 6.195143194591218 27.5036909299353 2.116442478690058
    vertex 7.836089916608073 30.6491914576305 4.052683712081773
  endloop
endfacet
facet normal -0.553038 0.316263 0.770796
  outer loop
    vertex 0.6491914576304874 37.83608991660809 4.052683712081749
    vertex -2.333435507855393 36.06770466411768 2.638261151863115
    vertex 2.248426814971377 36.2368545592672 5.856297641365718
  endloop
endfacet
facet normal -0.439795 0.67657 0.590621
  outer loop
    vertex -2.333435507855393 36.06770466411768 2.638261151863115
    vertex -1.108024144878088 34.84229330114038 4.954478897503161
    vertex 2.248426814971377 36.2368545592672 5.856297641365718
  endloop
endfacet
facet normal -0.67657 0.439795 0.590621
  outer loop
    vertex -2.333435507855393 36.06770466411768 2.638261151863115
    vertex -5.043867256971364 34.02712419525737 1.05288035255512
    vertex -1.108024144878088 34.84229330114038 4.954478897503161
  endloop
endfacet
facet normal -0.273512 0.0367377 0.961167
  outer loop
    vertex 2.248426814971377 36.2368545592672 5.856297641365718
    vertex -1.108024144878088 34.84229330114038 4.954478897503161
    vertex 4.242640687119287 34.24264068711929 6.5
  endloop
endfacet
facet normal 0.663215 -0.695214 -0.277171
  outer loop
    vertex 8.723598583286059 29.76168279095252 -1.446386070716031
    vertex 6.414110085244861 27.28472403928165 -0.7597073198845078
    vertex 5.853006932173201 27.57095138246022 -2.820244304264115
  endloop
endfacet
facet normal 0.694404 -0.662406 -0.281107
  outer loop
    vertex 6.414110085244861 27.28472403928165 -0.7597073198845078
    vertex 3.64946521653956 24.98804584838179 -2.177132808179312
    vertex 5.853006932173201 27.57095138246022 -2.820244304264115
  endloop
endfacet
facet normal 0.680293 -0.712291 -0.172753
  outer loop
    vertex 6.414110085244861 27.28472403928165 -0.7597073198845078
    vertex 4.052162638653533 24.86022423616091 -0.06429776349687474
    vertex 3.64946521653956 24.98804584838179 -2.177132808179312
  endloop
endfacet
facet normal 0.602574 -0.634572 -0.483965
  outer loop
    vertex 5.853006932173201 27.57095138246022 -2.820244304264115
    vertex 3.64946521653956 24.98804584838179 -2.177132808179312
    vertex 2.774766857002926 25.58786839802533 -4.052683712081754
  endloop
endfacet
facet normal -0.656431 0.721039 -0.221814
  outer loop
    vertex -8.723598583286044 30.23831720904748 -1.44638607071609
    vertex -6.969513135811017 32.21850091783474 -0.2004965710530787
    vertex -5.853006932173175 32.42904861753977 -2.82024430426417
  endloop
endfacet
facet normal -0.7157 0.651091 -0.252695
  outer loop
    vertex -6.969513135811017 32.21850091783474 -0.2004965710530787
    vertex -4.292122912623934 34.60243375425281 -1.641167526445481
    vertex -5.853006932173175 32.42904861753977 -2.82024430426417
  endloop
endfacet
facet normal -0.673738 0.738347 -0.0303264
  outer loop
    vertex -6.969513135811017 32.21850091783474 -0.2004965710530787
    vertex -5.043867256971364 34.02712419525737 1.05288035255512
    vertex -4.292122912623934 34.60243375425281 -1.641167526445481
  endloop
endfacet
facet normal -0.604261 0.66887 -0.432992
  outer loop
    vertex -5.853006932173175 32.42904861753977 -2.82024430426417
    vertex -4.292122912623934 34.60243375425281 -1.641167526445481
    vertex -2.77476685700289 34.41213160197465 -4.0526837120818
  endloop
endfacet
facet normal -0.182616 0.386581 -0.903995
  outer loop
    vertex -2.77476685700289 34.41213160197465 -4.0526837120818
    vertex 2.753353101070388e-14 29.99999999999998 -6.5
    vertex -4.577659292133971 31.15370097750057 -5.081904636042216
  endloop
endfacet
facet normal -0.278022 0.0740573 -0.957716
  outer loop
    vertex 2.753353101070388e-14 29.99999999999998 -6.5
    vertex -1.50791213098548 26.44658907138032 -6.337031429181848
    vertex -4.577659292133971 31.15370097750057 -5.081904636042216
  endloop
endfacet
facet normal 0.424302 -0.220336 -0.878305
  outer loop
    vertex 2.753353101070388e-14 29.99999999999998 -6.5
    vertex 2.774766857002926 25.58786839802533 -4.052683712081754
    vertex -1.50791213098548 26.44658907138032 -6.337031429181848
  endloop
endfacet
facet normal -0.0332402 0.237205 -0.970891
  outer loop
    vertex -4.577659292133971 31.15370097750057 -5.081904636042216
    vertex -1.50791213098548 26.44658907138032 -6.337031429181848
    vertex -6.236854559267165 27.7515731850286 -5.856297641365738
  endloop
endfacet
facet normal 0.0332402 -0.237205 -0.970891
  outer loop
    vertex 6.236854559267204 32.24842681497137 -5.856297641365714
    vertex 4.577659292134008 28.84629902249941 -5.08190463604218
    vertex 1.507912130985526 33.55341092861965 -6.33703142918186
  endloop
endfacet
facet normal 0.278022 -0.0740573 -0.957716
  outer loop
    vertex 4.577659292134008 28.84629902249941 -5.08190463604218
    vertex 2.753353101070388e-14 29.99999999999998 -6.5
    vertex 1.507912130985526 33.55341092861965 -6.33703142918186
  endloop
endfacet
facet normal 0.182616 -0.386581 -0.903995
  outer loop
    vertex 4.577659292134008 28.84629902249941 -5.08190463604218
    vertex 2.774766857002926 25.58786839802533 -4.052683712081754
    vertex 2.753353101070388e-14 29.99999999999998 -6.5
  endloop
endfacet
facet normal -0.424302 0.220336 -0.878305
  outer loop
    vertex 1.507912130985526 33.55341092861965 -6.33703142918186
    vertex 2.753353101070388e-14 29.99999999999998 -6.5
    vertex -2.77476685700289 34.41213160197465 -4.0526837120818
  endloop
endfacet
facet normal -0.542754 0.738634 -0.399796
  outer loop
    vertex -2.77476685700289 34.41213160197465 -4.0526837120818
    vertex -4.292122912623934 34.60243375425281 -1.641167526445481
    vertex -2.065532547909976 37.12685560751514 -3.583298899747355e-14
  endloop
endfacet
facet normal -0.789254 0.593374 0.15807
  outer loop
    vertex -4.292122912623934 34.60243375425281 -1.641167526445481
    vertex -2.333435507855393 36.06770466411768 2.638261151863115
    vertex -2.065532547909976 37.12685560751514 -3.583298899747355e-14
  endloop
endfacet
facet normal -0.602349 0.798229 0.00238162
  outer loop
    vertex -4.292122912623934 34.60243375425281 -1.641167526445481
    vertex -5.043867256971364 34.02712419525737 1.05288035255512
    vertex -2.333435507855393 36.06770466411768 2.638261151863115
  endloop
endfacet
facet normal -0.579235 0.775115 0.252357
  outer loop
    vertex -2.065532547909976 37.12685560751514 -3.583298899747355e-14
    vertex -2.333435507855393 36.06770466411768 2.638261151863115
    vertex 0.6491914576304874 37.83608991660809 4.052683712081749
  endloop
endfacet
facet normal 0.638388 -0.595186 -0.488072
  outer loop
    vertex 2.774766857002926 25.58786839802533 -4.052683712081754
    vertex 3.64946521653956 24.98804584838179 -2.177132808179312
    vertex 1.610366245053914 23.32831069534093 -2.820244304264111
  endloop
endfacet
facet normal 0.657611 -0.700813 -0.276423
  outer loop
    vertex 3.64946521653956 24.98804584838179 -2.177132808179312
    vertex 2.171469398125573 23.04208335216236 -0.7597073198845063
    vertex 1.610366245053914 23.32831069534093 -2.820244304264111
  endloop
endfacet
facet normal 0.717149 -0.673948 -0.177458
  outer loop
    vertex 3.64946521653956 24.98804584838179 -2.177132808179312
    vertex 4.052162638653533 24.86022423616091 -0.06429776349687474
    vertex 2.171469398125573 23.04208335216236 -0.7597073198845063
  endloop
endfacet
facet normal 0.69972 -0.656518 -0.281737
  outer loop
    vertex 1.610366245053914 23.32831069534093 -2.820244304264111
    vertex 2.171469398125573 23.04208335216236 -0.7597073198845063
    vertex 0.2383172090474863 21.27640141671395 -1.446386070716031
  endloop
endfacet
facet normal -0.00446543 0.303129 0.952939
  outer loop
    vertex -4.242640687119284 25.75735931288072 6.5
    vertex -5.350664831997374 30.59965261402109 4.954478897503161
    vertex -6.236854559267194 27.75157318502863 5.856297641365718
  endloop
endfacet
facet normal -0.702736 0.404073 0.585565
  outer loop
    vertex -5.350664831997374 30.59965261402109 4.954478897503161
    vertex -6.57607619497468 31.8250639769984 2.638261151863115
    vertex -6.236854559267194 27.75157318502863 5.856297641365718
  endloop
endfacet
facet normal -0.404073 0.702736 0.585565
  outer loop
    vertex -5.350664831997374 30.59965261402109 4.954478897503161
    vertex -5.043867256971364 34.02712419525737 1.05288035255512
    vertex -6.57607619497468 31.8250639769984 2.638261151863115
  endloop
endfacet
facet normal -0.281598 0.580262 0.764198
  outer loop
    vertex -6.236854559267194 27.75157318502863 5.856297641365718
    vertex -6.57607619497468 31.8250639769984 2.638261151863115
    vertex -7.836089916608084 29.35080854236951 4.052683712081749
  endloop
endfacet
facet normal 0.63793 -0.200598 0.743509
  outer loop
    vertex -0.649191457630498 22.16391008339193 4.052683712081773
    vertex 1.95250250747193 23.26105024281601 2.116442478690058
    vertex -2.248426814971384 23.76314544073282 5.856297641365726
  endloop
endfacet
facet normal 0.352474 -0.789806 0.501965
  outer loop
    vertex 1.95250250747193 23.26105024281601 2.116442478690058
    vertex 0.872811259477329 24.34074149081061 4.573404887896451
    vertex -2.248426814971384 23.76314544073282 5.856297641365726
  endloop
endfacet
facet normal 0.789806 -0.352474 0.501965
  outer loop
    vertex 1.95250250747193 23.26105024281601 2.116442478690058
    vertex 4.052162638653533 24.86022423616091 -0.06429776349687474
    vertex 0.872811259477329 24.34074149081061 4.573404887896451
  endloop
endfacet
facet normal 0.368299 0.0690321 0.927141
  outer loop
    vertex -2.248426814971384 23.76314544073282 5.856297641365726
    vertex 0.872811259477329 24.34074149081061 4.573404887896451
    vertex -4.242640687119284 25.75735931288072 6.5
  endloop
endfacet
facet normal 0.392389 -0.487368 -0.780066
  outer loop
    vertex -2.248426814971367 23.7631454407328 -5.856297641365714
    vertex 0.3350186050147226 24.60365833538012 -5.08190463604218
    vertex -0.6491914576304865 22.16391008339192 -4.052683712081754
  endloop
endfacet
facet normal 0.599079 -0.504101 -0.622082
  outer loop
    vertex 0.3350186050147226 24.60365833538012 -5.08190463604218
    vertex 1.610366245053914 23.32831069534093 -2.820244304264111
    vertex -0.6491914576304865 22.16391008339192 -4.052683712081754
  endloop
endfacet
facet normal 0.504101 -0.599079 -0.622082
  outer loop
    vertex 0.3350186050147226 24.60365833538012 -5.08190463604218
    vertex 2.774766857002926 25.58786839802533 -4.052683712081754
    vertex 1.610366245053914 23.32831069534093 -2.820244304264111
  endloop
endfacet
facet normal 0.588154 -0.683132 -0.432904
  outer loop
    vertex -0.6491914576304865 22.16391008339192 -4.052683712081754
    vertex 1.610366245053914 23.32831069534093 -2.820244304264111
    vertex 0.2383172090474863 21.27640141671395 -1.446386070716031
  endloop
endfacet
facet normal -0.392389 0.487368 -0.780066
  outer loop
    vertex 2.248426814971407 36.23685455926717 -5.856297641365738
    vertex -0.3350186050146844 35.39634166461985 -5.081904636042216
    vertex 0.6491914576305167 37.83608991660806 -4.0526837120818
  endloop
endfacet
facet normal -0.599079 0.504101 -0.622082
  outer loop
    vertex -0.3350186050146844 35.39634166461985 -5.081904636042216
    vertex -1.61036624505389 36.67168930465905 -2.82024430426417
    vertex 0.6491914576305167 37.83608991660806 -4.0526837120818
  endloop
endfacet
facet normal -0.504101 0.599079 -0.622082
  outer loop
    vertex -0.3350186050146844 35.39634166461985 -5.081904636042216
    vertex -2.77476685700289 34.41213160197465 -4.0526837120818
    vertex -1.61036624505389 36.67168930465905 -2.82024430426417
  endloop
endfacet
facet normal -0.588154 0.683132 -0.432904
  outer loop
    vertex 0.6491914576305167 37.83608991660806 -4.0526837120818
    vertex -1.61036624505389 36.67168930465905 -2.82024430426417
    vertex -0.238317209047473 38.72359858328605 -1.44638607071609
  endloop
endfacet
facet normal 0.707107 0.707107 -8.68422e-16
  outer loop
    vertex 8.723598583286059 29.76168279095252 -1.446386070716031
    vertex 6.483119635202675 32.00216173903591 -0.7231930353580187
    vertex 8.723598583286055 29.76168279095253 1.446386070716054
  endloop
endfacet
facet normal 0.707107 0.707107 -4.73913e-16
  outer loop
    vertex 6.483119635202675 32.00216173903591 -0.7231930353580187
    vertex 6.039365301863683 32.4459160723749 2.026341856040883
    vertex 8.723598583286055 29.76168279095253 1.446386070716054
  endloop
endfacet
facet normal 0.707107 0.707107 -7.25979e-16
  outer loop
    vertex 6.483119635202675 32.00216173903591 -0.7231930353580187
    vertex 4.242640687119292 34.24264068711928 -6.978544726215269e-15
    vertex 6.039365301863683 32.4459160723749 2.026341856040883
  endloop
endfacet
facet normal 0.707107 0.707107 1.30817e-15
  outer loop
    vertex 8.723598583286055 29.76168279095253 1.446386070716054
    vertex 6.039365301863683 32.4459160723749 2.026341856040883
    vertex 7.836089916608073 30.6491914576305 4.052683712081773
  endloop
endfacet
facet normal 0.707107 0.707107 1.25972e-15
  outer loop
    vertex 7.836089916608073 30.6491914576305 4.052683712081773
    vertex 6.039365301863683 32.4459160723749 2.026341856040883
    vertex 6.236854559267186 32.24842681497139 5.856297641365726
  endloop
endfacet
facet normal 0.707107 0.707107 1.28397e-15
  outer loop
    vertex 6.039365301863683 32.4459160723749 2.026341856040883
    vertex 4.24264068711929 34.24264068711929 3.249999999999996
    vertex 6.236854559267186 32.24842681497139 5.856297641365726
  endloop
endfacet
facet normal 0.707107 0.707107 -1.18308e-15
  outer loop
    vertex 6.039365301863683 32.4459160723749 2.026341856040883
    vertex 4.242640687119292 34.24264068711928 -6.978544726215269e-15
    vertex 4.24264068711929 34.24264068711929 3.249999999999996
  endloop
endfacet
facet normal 0.707107 0.707107 5.81408e-16
  outer loop
    vertex 6.236854559267186 32.24842681497139 5.856297641365726
    vertex 4.24264068711929 34.24264068711929 3.249999999999996
    vertex 4.242640687119287 34.24264068711929 6.5
  endloop
endfacet
facet normal 0.707107 0.707107 5.79726e-16
  outer loop
    vertex 4.242640687119287 34.24264068711929 6.5
    vertex 4.24264068711929 34.24264068711929 3.249999999999996
    vertex 2.248426814971377 36.2368545592672 5.856297641365718
  endloop
endfacet
facet normal 0.707107 0.707107 3.08594e-16
  outer loop
    vertex 4.24264068711929 34.24264068711929 3.249999999999996
    vertex 2.44591607237489 36.03936530186369 2.026341856040871
    vertex 2.248426814971377 36.2368545592672 5.856297641365718
  endloop
endfacet
facet normal 0.707107 0.707107 -1.15945e-15
  outer loop
    vertex 4.24264068711929 34.24264068711929 3.249999999999996
    vertex 4.242640687119292 34.24264068711928 -6.978544726215269e-15
    vertex 2.44591607237489 36.03936530186369 2.026341856040871
  endloop
endfacet
facet normal 0.707107 0.707107 2.60423e-16
  outer loop
    vertex 2.248426814971377 36.2368545592672 5.856297641365718
    vertex 2.44591607237489 36.03936530186369 2.026341856040871
    vertex 0.6491914576304874 37.83608991660809 4.052683712081749
  endloop
endfacet
facet normal 0.707107 0.707107 1.45352e-16
  outer loop
    vertex 6.236854559267204 32.24842681497137 -5.856297641365714
    vertex 5.239747623193248 33.24553375104533 -2.928148820682861
    vertex 7.836089916608085 30.64919145763049 -4.052683712081754
  endloop
endfacet
facet normal 0.707107 0.707107 -5.73104e-16
  outer loop
    vertex 5.239747623193248 33.24553375104533 -2.928148820682861
    vertex 6.483119635202675 32.00216173903591 -0.7231930353580187
    vertex 7.836089916608085 30.64919145763049 -4.052683712081754
  endloop
endfacet
facet normal 0.707107 0.707107 -5.37762e-17
  outer loop
    vertex 5.239747623193248 33.24553375104533 -2.928148820682861
    vertex 4.242640687119292 34.24264068711928 -6.978544726215269e-15
    vertex 6.483119635202675 32.00216173903591 -0.7231930353580187
  endloop
endfacet
facet normal 0.707107 0.707107 -1.69577e-16
  outer loop
    vertex 7.836089916608085 30.64919145763049 -4.052683712081754
    vertex 6.483119635202675 32.00216173903591 -0.7231930353580187
    vertex 8.723598583286059 29.76168279095252 -1.446386070716031
  endloop
endfacet
facet normal 0.707107 0.707107 5.57183e-16
  outer loop
    vertex 0.6491914576304874 37.83608991660809 4.052683712081749
    vertex 2.44591607237489 36.03936530186369 2.026341856040871
    vertex -0.2383172090474854 38.72359858328606 1.446386070716009
  endloop
endfacet
facet normal 0.707107 0.707107 2.20425e-17
  outer loop
    vertex 2.44591607237489 36.03936530186369 2.026341856040871
    vertex 2.00216173903591 36.48311963520267 -0.7231930353580485
    vertex -0.2383172090474854 38.72359858328606 1.446386070716009
  endloop
endfacet
facet normal 0.707107 0.707107 -3.09213e-16
  outer loop
    vertex 2.44591607237489 36.03936530186369 2.026341856040871
    vertex 4.242640687119292 34.24264068711928 -6.978544726215269e-15
    vertex 2.00216173903591 36.48311963520267 -0.7231930353580485
  endloop
endfacet
facet normal 0.707107 0.707107 -4.34211e-16
  outer loop
    vertex -0.2383172090474854 38.72359858328606 1.446386070716009
    vertex 2.00216173903591 36.48311963520267 -0.7231930353580485
    vertex -0.238317209047473 38.72359858328605 -1.44638607071609
  endloop
endfacet
facet normal 0.707107 0.707107 -5.32958e-16
  outer loop
    vertex 2.248426814971407 36.23685455926717 -5.856297641365738
    vertex 3.245533751045349 35.23974762319323 -2.928148820682873
    vertex 4.242640687119309 34.24264068711927 -6.5
  endloop
endfacet
facet normal 0.707107 0.707107 -1.7634e-16
  outer loop
    vertex 3.245533751045349 35.23974762319323 -2.928148820682873
    vertex 5.239747623193248 33.24553375104533 -2.928148820682861
    vertex 4.242640687119309 34.24264068711927 -6.5
  endloop
endfacet
facet normal 0.707107 0.707107 8.6042e-16
  outer loop
    vertex 3.245533751045349 35.23974762319323 -2.928148820682873
    vertex 4.242640687119292 34.24264068711928 -6.978544726215269e-15
    vertex 5.239747623193248 33.24553375104533 -2.928148820682861
  endloop
endfacet
facet normal 0.707107 0.707107 1.93803e-16
  outer loop
    vertex 4.242640687119309 34.24264068711927 -6.5
    vertex 5.239747623193248 33.24553375104533 -2.928148820682861
    vertex 6.236854559267204 32.24842681497137 -5.856297641365714
  endloop
endfacet
facet normal 0.707107 0.707107 0
  outer loop
    vertex -0.238317209047473 38.72359858328605 -1.44638607071609
    vertex 2.00216173903591 36.48311963520267 -0.7231930353580485
    vertex 0.6491914576305167 37.83608991660806 -4.0526837120818
  endloop
endfacet
facet normal 0.707107 0.707107 -8.81699e-17
  outer loop
    vertex 2.00216173903591 36.48311963520267 -0.7231930353580485
    vertex 3.245533751045349 35.23974762319323 -2.928148820682873
    vertex 0.6491914576305167 37.83608991660806 -4.0526837120818
  endloop
endfacet
facet normal 0.707107 0.707107 1.02175e-15
  outer loop
    vertex 2.00216173903591 36.48311963520267 -0.7231930353580485
    vertex 4.242640687119292 34.24264068711928 -6.978544726215269e-15
    vertex 3.245533751045349 35.23974762319323 -2.928148820682873
  endloop
endfacet
facet normal 0.707107 0.707107 -1.93803e-16
  outer loop
    vertex 0.6491914576305167 37.83608991660806 -4.0526837120818
    vertex 3.245533751045349 35.23974762319323 -2.928148820682873
    vertex 2.248426814971407 36.23685455926717 -5.856297641365738
  endloop
endfacet
facet normal -0.707107 -0.707107 9.69014e-17
  outer loop
    vertex -0.649191457630498 22.16391008339193 4.052683712081773
    vertex -2.248426814971384 23.76314544073282 5.856297641365726
    vertex -2.445916072374889 23.96063469813632 2.026341856040883
  endloop
endfacet
facet normal -0.707107 -0.707107 6.06168e-17
  outer loop
    vertex -2.248426814971384 23.76314544073282 5.856297641365726
    vertex -4.242640687119281 25.75735931288071 3.249999999999996
    vertex -2.445916072374889 23.96063469813632 2.026341856040883
  endloop
endfacet
facet normal -0.707107 -0.707107 1.93803e-16
  outer loop
    vertex -2.248426814971384 23.76314544073282 5.856297641365726
    vertex -4.242640687119284 25.75735931288072 6.5
    vertex -4.242640687119281 25.75735931288071 3.249999999999996
  endloop
endfacet
facet normal -0.707107 -0.707107 -3.76434e-16
  outer loop
    vertex -2.445916072374889 23.96063469813632 2.026341856040883
    vertex -4.242640687119281 25.75735931288071 3.249999999999996
    vertex -4.242640687119279 25.75735931288071 -6.978544726215269e-15
  endloop
endfacet
facet normal -0.707107 -0.707107 8.68422e-16
  outer loop
    vertex 0.2383172090474863 21.27640141671395 -1.446386070716031
    vertex 0.2383172090474828 21.27640141671395 1.446386070716054
    vertex -2.002161739035897 23.51688036479733 -0.7231930353580188
  endloop
endfacet
facet normal -0.707107 -0.707107 -3.52679e-16
  outer loop
    vertex 0.2383172090474828 21.27640141671395 1.446386070716054
    vertex -2.445916072374889 23.96063469813632 2.026341856040883
    vertex -2.002161739035897 23.51688036479733 -0.7231930353580188
  endloop
endfacet
facet normal -0.707107 -0.707107 -7.75211e-16
  outer loop
    vertex 0.2383172090474828 21.27640141671395 1.446386070716054
    vertex -0.649191457630498 22.16391008339193 4.052683712081773
    vertex -2.445916072374889 23.96063469813632 2.026341856040883
  endloop
endfacet
facet normal -0.707107 -0.707107 -4.43654e-16
  outer loop
    vertex -2.002161739035897 23.51688036479733 -0.7231930353580188
    vertex -2.445916072374889 23.96063469813632 2.026341856040883
    vertex -4.242640687119279 25.75735931288071 -6.978544726215269e-15
  endloop
endfacet
facet normal -0.707107 -0.707107 1.93242e-16
  outer loop
    vertex -4.242640687119284 25.75735931288072 6.5
    vertex -6.236854559267194 27.75157318502863 5.856297641365718
    vertex -4.242640687119281 25.75735931288071 3.249999999999996
  endloop
endfacet
facet normal -0.707107 -0.707107 -3.69211e-16
  outer loop
    vertex -6.236854559267194 27.75157318502863 5.856297641365718
    vertex -6.039365301863681 27.55408392762511 2.026341856040871
    vertex -4.242640687119281 25.75735931288071 3.249999999999996
  endloop
endfacet
facet normal -0.707107 -0.707107 -2.54366e-16
  outer loop
    vertex -6.236854559267194 27.75157318502863 5.856297641365718
    vertex -7.836089916608084 29.35080854236951 4.052683712081749
    vertex -6.039365301863681 27.55408392762511 2.026341856040871
  endloop
endfacet
facet normal -0.707107 -0.707107 -3.86484e-16
  outer loop
    vertex -4.242640687119281 25.75735931288071 3.249999999999996
    vertex -6.039365301863681 27.55408392762511 2.026341856040871
    vertex -4.242640687119279 25.75735931288071 -6.978544726215269e-15
  endloop
endfacet
facet normal -0.707107 -0.707107 -2.18028e-16
  outer loop
    vertex -2.248426814971367 23.7631454407328 -5.856297641365714
    vertex -0.6491914576304865 22.16391008339192 -4.052683712081754
    vertex -3.245533751045323 24.76025237680675 -2.928148820682861
  endloop
endfacet
facet normal -0.707107 -0.707107 6.61274e-16
  outer loop
    vertex -0.6491914576304865 22.16391008339192 -4.052683712081754
    vertex -2.002161739035897 23.51688036479733 -0.7231930353580188
    vertex -3.245533751045323 24.76025237680675 -2.928148820682861
  endloop
endfacet
facet normal -0.707107 -0.707107 4.84507e-17
  outer loop
    vertex -0.6491914576304865 22.16391008339192 -4.052683712081754
    vertex 0.2383172090474863 21.27640141671395 -1.446386070716031
    vertex -2.002161739035897 23.51688036479733 -0.7231930353580188
  endloop
endfacet
facet normal -0.707107 -0.707107 6.99091e-16
  outer loop
    vertex -3.245533751045323 24.76025237680675 -2.928148820682861
    vertex -2.002161739035897 23.51688036479733 -0.7231930353580188
    vertex -4.242640687119279 25.75735931288071 -6.978544726215269e-15
  endloop
endfacet
facet normal -0.707107 -0.707107 -6.05634e-16
  outer loop
    vertex -7.836089916608084 29.35080854236951 4.052683712081749
    vertex -8.723598583286057 30.23831720904749 1.446386070716009
    vertex -6.039365301863681 27.55408392762511 2.026341856040871
  endloop
endfacet
facet normal -0.707107 -0.707107 8.81699e-17
  outer loop
    vertex -8.723598583286057 30.23831720904749 1.446386070716009
    vertex -6.483119635202661 27.99783826096409 -0.7231930353580484
    vertex -6.039365301863681 27.55408392762511 2.026341856040871
  endloop
endfacet
facet normal -0.707107 -0.707107 -4.34211e-16
  outer loop
    vertex -8.723598583286057 30.23831720904749 1.446386070716009
    vertex -8.723598583286044 30.23831720904748 -1.44638607071609
    vertex -6.483119635202661 27.99783826096409 -0.7231930353580484
  endloop
endfacet
facet normal -0.707107 -0.707107 2.41993e-16
  outer loop
    vertex -6.039365301863681 27.55408392762511 2.026341856040871
    vertex -6.483119635202661 27.99783826096409 -0.7231930353580484
    vertex -4.242640687119279 25.75735931288071 -6.978544726215269e-15
  endloop
endfacet
facet normal -0.707107 -0.707107 -1.93803e-16
  outer loop
    vertex -6.236854559267165 27.7515731850286 -5.856297641365738
    vertex -4.242640687119263 25.75735931288069 -6.5
    vertex -5.239747623193222 26.75446624895465 -2.928148820682873
  endloop
endfacet
facet normal -0.707107 -0.707107 -2.20425e-16
  outer loop
    vertex -4.242640687119263 25.75735931288069 -6.5
    vertex -3.245533751045323 24.76025237680675 -2.928148820682861
    vertex -5.239747623193222 26.75446624895465 -2.928148820682873
  endloop
endfacet
facet normal -0.707107 -0.707107 -2.90704e-16
  outer loop
    vertex -4.242640687119263 25.75735931288069 -6.5
    vertex -2.248426814971367 23.7631454407328 -5.856297641365714
    vertex -3.245533751045323 24.76025237680675 -2.928148820682861
  endloop
endfacet
facet normal -0.707107 -0.707107 4.83986e-16
  outer loop
    vertex -5.239747623193222 26.75446624895465 -2.928148820682873
    vertex -3.245533751045323 24.76025237680675 -2.928148820682861
    vertex -4.242640687119279 25.75735931288071 -6.978544726215269e-15
  endloop
endfacet
facet normal -0.707107 -0.707107 5.32958e-16
  outer loop
    vertex -8.723598583286044 30.23831720904748 -1.44638607071609
    vertex -7.836089916608055 29.35080854236949 -4.0526837120818
    vertex -6.483119635202661 27.99783826096409 -0.7231930353580484
  endloop
endfacet
facet normal -0.707107 -0.707107 5.73104e-16
  outer loop
    vertex -7.836089916608055 29.35080854236949 -4.0526837120818
    vertex -5.239747623193222 26.75446624895465 -2.928148820682873
    vertex -6.483119635202661 27.99783826096409 -0.7231930353580484
  endloop
endfacet
facet normal -0.707107 -0.707107 -2.90704e-16
  outer loop
    vertex -7.836089916608055 29.35080854236949 -4.0526837120818
    vertex -6.236854559267165 27.7515731850286 -5.856297641365738
    vertex -5.239747623193222 26.75446624895465 -2.928148820682873
  endloop
endfacet
facet normal -0.707107 -0.707107 4.83986e-16
  outer loop
    vertex -6.483119635202661 27.99783826096409 -0.7231930353580484
    vertex -5.239747623193222 26.75446624895465 -2.928148820682873
    vertex -4.242640687119279 25.75735931288071 -6.978544726215269e-15
  endloop
endfacet
endsolid Created by Gmsh
