solid Created by Gmsh
facet normal 0.999486 -3.43117e-15 -0.0320516
  outer loop
    vertex 8.000000000000005 19.75 -1.652850165761999e-12
    vertex 8.000000000000002 3.250000000003999 2.714408559034902e-15
    vertex 7.983563142002692 3.250000000003999 -0.5125617598457022
  endloop
endfacet
facet normal 0.999486 -2.69007e-16 -0.0320516
  outer loop
    vertex 7.983563142002697 19.75 -0.5125617598457022
    vertex 8.000000000000005 19.75 -1.652850165761999e-12
    vertex 7.983563142002692 3.250000000003999 -0.5125617598457022
  endloop
endfacet
facet normal 0.995379 -2.68154e-16 -0.096023
  outer loop
    vertex 7.934320110585975 19.75 -1.023017293476048
    vertex 7.983563142002697 19.75 -0.5125617598457022
    vertex 7.983563142002692 3.250000000003999 -0.5125617598457022
  endloop
endfacet
facet normal 0.995379 -2.67901e-16 -0.096023
  outer loop
    vertex 7.934320110585975 19.75 -1.023017293476048
    vertex 7.983563142002692 3.250000000003999 -0.5125617598457022
    vertex 7.93432011058597 3.250000000003999 -1.023017293476048
  endloop
endfacet
facet normal 0.987182 -2.65694e-16 -0.1596
  outer loop
    vertex 7.852473255928528 19.75 -1.52926902961098
    vertex 7.934320110585975 19.75 -1.023017293476048
    vertex 7.93432011058597 3.250000000003999 -1.023017293476048
  endloop
endfacet
facet normal 0.987182 -2.65695e-16 -0.1596
  outer loop
    vertex 7.852473255928528 19.75 -1.52926902961098
    vertex 7.93432011058597 3.250000000003999 -1.023017293476048
    vertex 7.852473255928524 3.250000000003999 -1.52926902961098
  endloop
endfacet
facet normal 0.974928 -2.62414e-16 -0.222521
  outer loop
    vertex 7.73835890431224 19.75 -2.029236671276062
    vertex 7.852473255928528 19.75 -1.52926902961098
    vertex 7.852473255928524 3.250000000003999 -1.52926902961098
  endloop
endfacet
facet normal 0.974928 -2.62397e-16 -0.222521
  outer loop
    vertex 7.73835890431224 19.75 -2.029236671276062
    vertex 7.852473255928524 3.250000000003999 -1.52926902961098
    vertex 7.738358904312236 3.250000000003999 -2.029236671276062
  endloop
endfacet
facet normal 0.958668 -2.59134e-16 -0.284528
  outer loop
    vertex 7.592445976085354 19.75 -2.52086574418897
    vertex 7.73835890431224 19.75 -2.029236671276062
    vertex 7.738358904312236 3.250000000003999 -2.029236671276062
  endloop
endfacet
facet normal 0.958668 -2.58021e-16 -0.284528
  outer loop
    vertex 7.592445976085354 19.75 -2.52086574418897
    vertex 7.738358904312236 3.250000000003999 -2.029236671276062
    vertex 7.592445976085349 3.250000000003999 -2.52086574418897
  endloop
endfacet
facet normal 0.938468 -2.52573e-16 -0.345365
  outer loop
    vertex 7.415334058768178 19.75 -3.002136039034999
    vertex 7.592445976085354 19.75 -2.52086574418897
    vertex 7.592445976085349 3.250000000003999 -2.52086574418897
  endloop
endfacet
facet normal 0.938468 -2.52584e-16 -0.345365
  outer loop
    vertex 7.415334058768178 19.75 -3.002136039034999
    vertex 7.592445976085349 3.250000000003999 -2.52086574418897
    vertex 7.415334058768173 3.250000000003999 -3.002136039034999
  endloop
endfacet
facet normal 0.914413 -2.46013e-16 -0.404783
  outer loop
    vertex 7.207750943219355 19.75 -3.471069912940472
    vertex 7.415334058768178 19.75 -3.002136039034999
    vertex 7.415334058768173 3.250000000003999 -3.002136039034999
  endloop
endfacet
facet normal 0.914413 -2.4611e-16 -0.404783
  outer loop
    vertex 7.207750943219355 19.75 -3.471069912940472
    vertex 7.415334058768173 3.250000000003999 -3.002136039034999
    vertex 7.207750943219351 3.250000000003999 -3.471069912940472
  endloop
endfacet
facet normal 0.886599 -2.37813e-16 -0.462538
  outer loop
    vertex 6.970549632987115 19.75 -3.925740416031511
    vertex 7.207750943219355 19.75 -3.471069912940472
    vertex 7.207750943219351 3.250000000003999 -3.471069912940472
  endloop
endfacet
facet normal 0.886599 -2.38624e-16 -0.462538
  outer loop
    vertex 6.970549632987115 19.75 -3.925740416031511
    vertex 7.207750943219351 3.250000000003999 -3.471069912940472
    vertex 6.970549632987111 3.250000000003999 -3.925740416031511
  endloop
endfacet
facet normal 0.855143 -2.29612e-16 -0.518393
  outer loop
    vertex 6.704704839134725 19.75 -4.364279209684398
    vertex 6.970549632987115 19.75 -3.925740416031511
    vertex 6.970549632987111 3.250000000003999 -3.925740416031511
  endloop
endfacet
facet normal 0.855143 -2.30157e-16 -0.518393
  outer loop
    vertex 6.704704839134725 19.75 -4.364279209684398
    vertex 6.970549632987111 3.250000000003999 -3.925740416031511
    vertex 6.70470483913472 3.250000000003999 -4.364279209684398
  endloop
endfacet
facet normal 0.820172 -2.20745e-16 -0.572117
  outer loop
    vertex 6.704704839134725 19.75 -4.364279209684398
    vertex 6.70470483913472 3.250000000003999 -4.364279209684398
    vertex 6.411308974943647 3.250000000003999 -4.784884243929737
  endloop
endfacet
facet normal 0.820172 -2.20745e-16 -0.572117
  outer loop
    vertex 6.411308974943651 19.75 -4.784884243929737
    vertex 6.704704839134725 19.75 -4.364279209684398
    vertex 6.411308974943647 3.250000000003999 -4.784884243929737
  endloop
endfacet
facet normal 0.781831 -2.09931e-16 -0.62349
  outer loop
    vertex 6.091567666953072 19.75 -5.185827162462317
    vertex 6.411308974943651 19.75 -4.784884243929737
    vertex 6.411308974943647 3.250000000003999 -4.784884243929737
  endloop
endfacet
facet normal 0.781831 -2.10426e-16 -0.62349
  outer loop
    vertex 6.091567666953072 19.75 -5.185827162462317
    vertex 6.411308974943647 3.250000000003999 -4.784884243929737
    vertex 6.091567666953067 3.250000000003999 -5.185827162462317
  endloop
endfacet
facet normal 0.740278 -2.00091e-16 -0.672301
  outer loop
    vertex 5.746794800781815 19.75 -5.565460404827902
    vertex 6.091567666953072 19.75 -5.185827162462317
    vertex 6.091567666953067 3.250000000003999 -5.185827162462317
  endloop
endfacet
facet normal 0.740278 -1.99242e-16 -0.672301
  outer loop
    vertex 5.746794800781815 19.75 -5.565460404827902
    vertex 6.091567666953067 3.250000000003999 -5.185827162462317
    vertex 5.74679480078181 3.250000000003999 -5.565460404827902
  endloop
endfacet
facet normal 0.695683 -1.8697e-16 -0.718349
  outer loop
    vertex 5.378407122090527 19.75 -5.922223976602535
    vertex 5.746794800781815 19.75 -5.565460404827902
    vertex 5.74679480078181 3.250000000003999 -5.565460404827902
  endloop
endfacet
facet normal 0.695683 -1.87239e-16 -0.718349
  outer loop
    vertex 5.378407122090527 19.75 -5.922223976602535
    vertex 5.74679480078181 3.250000000003999 -5.565460404827902
    vertex 5.378407122090523 3.250000000003999 -5.922223976602535
  endloop
endfacet
facet normal 0.648228 -1.77129e-16 -0.761446
  outer loop
    vertex 4.987918414869859 19.75 -6.254651859744249
    vertex 5.378407122090527 19.75 -5.922223976602535
    vertex 5.378407122090523 3.250000000003999 -5.922223976602535
  endloop
endfacet
facet normal 0.648228 -1.74467e-16 -0.761446
  outer loop
    vertex 4.987918414869859 19.75 -6.254651859744249
    vertex 5.378407122090523 3.250000000003999 -5.922223976602535
    vertex 4.987918414869855 3.250000000003999 -6.254651859744249
  endloop
endfacet
facet normal 0.598111 -1.60729e-16 -0.801414
  outer loop
    vertex 4.576933280977348 19.75 -6.561378036775656
    vertex 4.987918414869859 19.75 -6.254651859744249
    vertex 4.987918414869855 3.250000000003999 -6.254651859744249
  endloop
endfacet
facet normal 0.598111 -1.60978e-16 -0.801414
  outer loop
    vertex 4.576933280977348 19.75 -6.561378036775656
    vertex 4.987918414869855 3.250000000003999 -6.254651859744249
    vertex 4.576933280977344 3.250000000003999 -6.561378036775656
  endloop
endfacet
facet normal 0.545535 -1.46828e-16 -0.838088
  outer loop
    vertex 4.147140546484192 19.75 -6.841142104042776
    vertex 4.576933280977344 3.250000000003999 -6.561378036775656
    vertex 4.147140546484188 3.250000000003999 -6.841142104042776
  endloop
endfacet
facet normal 0.545535 -1.45968e-16 -0.838088
  outer loop
    vertex 4.147140546484192 19.75 -6.841142104042776
    vertex 4.576933280977348 19.75 -6.561378036775656
    vertex 4.576933280977344 3.250000000003999 -6.561378036775656
  endloop
endfacet
facet normal 0.490718 -1.18867e-16 -0.871319
  outer loop
    vertex 3.700306321926676 19.75 -7.092794450984005
    vertex 4.147140546484188 3.250000000003999 -6.841142104042776
    vertex 3.700306321926672 3.250000000003999 -7.092794450984005
  endloop
endfacet
facet normal 0.490718 -1.32847e-16 -0.871319
  outer loop
    vertex 3.700306321926676 19.75 -7.092794450984005
    vertex 4.147140546484192 19.75 -6.841142104042776
    vertex 4.147140546484188 3.250000000003999 -6.841142104042776
  endloop
endfacet
facet normal 0.433884 -1.051e-16 -0.900969
  outer loop
    vertex 3.238266744979145 19.75 -7.315300984126503
    vertex 3.700306321926672 3.250000000003999 -7.092794450984005
    vertex 3.238266744979141 3.250000000004 -7.315300984126503
  endloop
endfacet
facet normal 0.433884 -1.04966e-16 -0.900969
  outer loop
    vertex 3.238266744979145 19.75 -7.315300984126503
    vertex 3.700306321926676 19.75 -7.092794450984005
    vertex 3.700306321926672 3.250000000003999 -7.092794450984005
  endloop
endfacet
facet normal 0.375267 -9.09011e-17 -0.926917
  outer loop
    vertex 2.762920435370458 19.75 -7.507747376398084
    vertex 3.238266744979141 3.250000000004 -7.315300984126503
    vertex 2.762920435370454 3.250000000004 -7.507747376398084
  endloop
endfacet
facet normal 0.375267 -9.02048e-17 -0.926917
  outer loop
    vertex 2.762920435370458 19.75 -7.507747376398084
    vertex 3.238266744979145 19.75 -7.315300984126503
    vertex 3.238266744979141 3.250000000004 -7.315300984126503
  endloop
endfacet
facet normal 0.315108 -7.63288e-17 -0.949056
  outer loop
    vertex 2.276220693048258 19.75 -7.669342824293286
    vertex 2.762920435370454 3.250000000004 -7.507747376398084
    vertex 2.276220693048254 3.250000000004 -7.669342824293286
  endloop
endfacet
facet normal 0.253655 -6.14429e-17 -0.967295
  outer loop
    vertex 2.276220693048258 19.75 -7.669342824293286
    vertex 2.276220693048254 3.250000000004 -7.669342824293286
    vertex 1.780167471650511 3.250000000004 -7.799423297454588
  endloop
endfacet
facet normal 0.315108 -7.70841e-17 -0.949056
  outer loop
    vertex 2.276220693048258 19.75 -7.669342824293286
    vertex 2.762920435370458 19.75 -7.507747376398084
    vertex 2.762920435370454 3.250000000004 -7.507747376398084
  endloop
endfacet
facet normal 0.253655 -6.48564e-17 -0.967295
  outer loop
    vertex 1.780167471650515 19.75 -7.799423297454588
    vertex 2.276220693048258 19.75 -7.669342824293286
    vertex 1.780167471650511 3.250000000004 -7.799423297454588
  endloop
endfacet
facet normal 0.191159 -4.88769e-17 -0.981559
  outer loop
    vertex 1.276799160267036 19.75 -7.8974542673156
    vertex 1.780167471650511 3.250000000004 -7.799423297454588
    vertex 1.276799160267032 3.250000000004 -7.8974542673156
  endloop
endfacet
facet normal 0.127877 -3.26966e-17 -0.99179
  outer loop
    vertex 1.276799160267036 19.75 -7.8974542673156
    vertex 1.276799160267032 3.250000000004 -7.8974542673156
    vertex 0.7681842072614543 3.250000000004 -7.963032903593584
  endloop
endfacet
facet normal 0.191159 -4.92026e-17 -0.981559
  outer loop
    vertex 1.276799160267036 19.75 -7.8974542673156
    vertex 1.780167471650515 19.75 -7.799423297454588
    vertex 1.780167471650511 3.250000000004 -7.799423297454588
  endloop
endfacet
facet normal 0.127877 -3.09757e-17 -0.99179
  outer loop
    vertex 0.7681842072614583 19.75 -7.963032903593584
    vertex 1.276799160267036 19.75 -7.8974542673156
    vertex 0.7681842072614543 3.250000000004 -7.963032903593584
  endloop
endfacet
facet normal 0.0640702 -1.57353e-17 -0.997945
  outer loop
    vertex 0.2564126205732477 19.75 -7.995889729605501
    vertex 0.7681842072614543 3.250000000004 -7.963032903593584
    vertex 0.2564126205732436 3.250000000004 -7.995889729605501
  endloop
endfacet
facet normal 0 0 -1
  outer loop
    vertex 0.2564126205732477 19.75 -7.995889729605501
    vertex 0.2564126205732436 3.250000000004 -7.995889729605501
    vertex -0.2564126205732371 3.250000000004 -7.995889729605501
  endloop
endfacet
facet normal 0.0640702 -1.55808e-17 -0.997945
  outer loop
    vertex 0.2564126205732477 19.75 -7.995889729605501
    vertex 0.7681842072614583 19.75 -7.963032903593584
    vertex 0.7681842072614543 3.250000000004 -7.963032903593584
  endloop
endfacet
facet normal 0 -0 -1
  outer loop
    vertex -0.2564126205732331 19.75 -7.995889729605501
    vertex 0.2564126205732477 19.75 -7.995889729605501
    vertex -0.2564126205732371 3.250000000004 -7.995889729605501
  endloop
endfacet
facet normal -0.0640702 1.55808e-17 -0.997945
  outer loop
    vertex -0.7681842072614438 19.75 -7.963032903593584
    vertex -0.2564126205732331 19.75 -7.995889729605501
    vertex -0.2564126205732371 3.250000000004 -7.995889729605501
  endloop
endfacet
facet normal -0.0640702 1.55198e-17 -0.997945
  outer loop
    vertex -0.7681842072614438 19.75 -7.963032903593584
    vertex -0.2564126205732371 3.250000000004 -7.995889729605501
    vertex -0.7681842072614478 3.250000000004 -7.963032903593584
  endloop
endfacet
facet normal -0.127877 3.11617e-17 -0.99179
  outer loop
    vertex -1.276799160267021 19.75 -7.897454267315601
    vertex -0.7681842072614438 19.75 -7.963032903593584
    vertex -0.7681842072614478 3.250000000004 -7.963032903593584
  endloop
endfacet
facet normal -0.127877 3.26966e-17 -0.99179
  outer loop
    vertex -1.276799160267021 19.75 -7.897454267315601
    vertex -0.7681842072614478 3.250000000004 -7.963032903593584
    vertex -1.276799160267026 3.250000000004 -7.897454267315601
  endloop
endfacet
facet normal -0.191159 4.92026e-17 -0.981559
  outer loop
    vertex -1.780167471650501 19.75 -7.799423297454589
    vertex -1.276799160267021 19.75 -7.897454267315601
    vertex -1.276799160267026 3.250000000004 -7.897454267315601
  endloop
endfacet
facet normal -0.191159 4.88769e-17 -0.981559
  outer loop
    vertex -1.780167471650501 19.75 -7.799423297454589
    vertex -1.276799160267026 3.250000000004 -7.897454267315601
    vertex -1.780167471650505 3.250000000004 -7.799423297454589
  endloop
endfacet
facet normal -0.253655 6.56035e-17 -0.967295
  outer loop
    vertex -2.276220693048244 19.75 -7.669342824293286
    vertex -1.780167471650501 19.75 -7.799423297454589
    vertex -1.780167471650505 3.250000000004 -7.799423297454589
  endloop
endfacet
facet normal -0.253655 6.14429e-17 -0.967295
  outer loop
    vertex -2.276220693048244 19.75 -7.669342824293286
    vertex -1.780167471650505 3.250000000004 -7.799423297454589
    vertex -2.276220693048248 3.250000000004 -7.669342824293286
  endloop
endfacet
facet normal -0.315108 7.63288e-17 -0.949056
  outer loop
    vertex -2.276220693048244 19.75 -7.669342824293286
    vertex -2.276220693048248 3.250000000004 -7.669342824293286
    vertex -2.762920435370448 3.250000000004 -7.507747376398086
  endloop
endfacet
facet normal -0.315108 7.63288e-17 -0.949056
  outer loop
    vertex -2.762920435370444 19.75 -7.507747376398086
    vertex -2.276220693048244 19.75 -7.669342824293286
    vertex -2.762920435370448 3.250000000004 -7.507747376398086
  endloop
endfacet
facet normal -0.375267 9.02048e-17 -0.926917
  outer loop
    vertex -3.238266744979131 19.75 -7.315300984126504
    vertex -2.762920435370444 19.75 -7.507747376398086
    vertex -2.762920435370448 3.250000000004 -7.507747376398086
  endloop
endfacet
facet normal -0.375267 9.09011e-17 -0.926917
  outer loop
    vertex -3.238266744979131 19.75 -7.315300984126504
    vertex -2.762920435370448 3.250000000004 -7.507747376398086
    vertex -3.238266744979135 3.250000000004 -7.315300984126504
  endloop
endfacet
facet normal -0.433884 1.04966e-16 -0.900969
  outer loop
    vertex -3.700306321926662 19.75 -7.092794450984006
    vertex -3.238266744979131 19.75 -7.315300984126504
    vertex -3.238266744979135 3.250000000004 -7.315300984126504
  endloop
endfacet
facet normal -0.433884 1.051e-16 -0.900969
  outer loop
    vertex -3.700306321926662 19.75 -7.092794450984006
    vertex -3.238266744979135 3.250000000004 -7.315300984126504
    vertex -3.700306321926666 3.250000000004002 -7.092794450984006
  endloop
endfacet
facet normal -0.490718 1.18867e-16 -0.871319
  outer loop
    vertex -3.700306321926662 19.75 -7.092794450984006
    vertex -3.700306321926666 3.250000000004002 -7.092794450984006
    vertex -4.147140546484183 3.250000000004002 -6.841142104042778
  endloop
endfacet
facet normal -0.490718 1.32074e-16 -0.871319
  outer loop
    vertex -4.147140546484178 19.75 -6.841142104042778
    vertex -3.700306321926662 19.75 -7.092794450984006
    vertex -4.147140546484183 3.250000000004002 -6.841142104042778
  endloop
endfacet
facet normal -0.545535 1.45968e-16 -0.838088
  outer loop
    vertex -4.576933280977334 19.75 -6.561378036775658
    vertex -4.147140546484178 19.75 -6.841142104042778
    vertex -4.147140546484183 3.250000000004002 -6.841142104042778
  endloop
endfacet
facet normal -0.545535 1.46828e-16 -0.838088
  outer loop
    vertex -4.576933280977334 19.75 -6.561378036775658
    vertex -4.147140546484183 3.250000000004002 -6.841142104042778
    vertex -4.576933280977339 3.250000000004002 -6.561378036775658
  endloop
endfacet
facet normal -0.598111 1.60729e-16 -0.801414
  outer loop
    vertex -4.987918414869844 19.75 -6.254651859744251
    vertex -4.576933280977334 19.75 -6.561378036775658
    vertex -4.576933280977339 3.250000000004002 -6.561378036775658
  endloop
endfacet
facet normal -0.598111 1.60978e-16 -0.801414
  outer loop
    vertex -4.987918414869844 19.75 -6.254651859744251
    vertex -4.576933280977339 3.250000000004002 -6.561378036775658
    vertex -4.987918414869848 3.250000000004002 -6.254651859744251
  endloop
endfacet
facet normal -0.648228 1.73849e-16 -0.761446
  outer loop
    vertex -5.378407122090509 19.75 -5.922223976602539
    vertex -4.987918414869844 19.75 -6.254651859744251
    vertex -4.987918414869848 3.250000000004002 -6.254651859744251
  endloop
endfacet
facet normal -0.648228 1.74467e-16 -0.761446
  outer loop
    vertex -5.378407122090509 19.75 -5.922223976602539
    vertex -4.987918414869848 3.250000000004002 -6.254651859744251
    vertex -5.378407122090514 3.250000000004002 -5.922223976602539
  endloop
endfacet
facet normal -0.695683 1.87239e-16 -0.718349
  outer loop
    vertex -5.378407122090509 19.75 -5.922223976602539
    vertex -5.378407122090514 3.250000000004002 -5.922223976602539
    vertex -5.7467948007818 3.250000000004002 -5.565460404827909
  endloop
endfacet
facet normal -0.695683 1.87239e-16 -0.718349
  outer loop
    vertex -5.746794800781796 19.75 -5.565460404827909
    vertex -5.378407122090509 19.75 -5.922223976602539
    vertex -5.7467948007818 3.250000000004002 -5.565460404827909
  endloop
endfacet
facet normal -0.740278 1.99242e-16 -0.672301
  outer loop
    vertex -5.746794800781796 19.75 -5.565460404827909
    vertex -5.7467948007818 3.250000000004002 -5.565460404827909
    vertex -6.091567666953055 3.250000000004002 -5.185827162462328
  endloop
endfacet
facet normal -0.740278 1.99242e-16 -0.672301
  outer loop
    vertex -6.091567666953051 19.75 -5.185827162462328
    vertex -5.746794800781796 19.75 -5.565460404827909
    vertex -6.091567666953055 3.250000000004002 -5.185827162462328
  endloop
endfacet
facet normal -0.781831 2.09931e-16 -0.62349
  outer loop
    vertex -6.411308974943628 19.75 -4.784884243929751
    vertex -6.091567666953051 19.75 -5.185827162462328
    vertex -6.091567666953055 3.250000000004002 -5.185827162462328
  endloop
endfacet
facet normal -0.781831 2.10426e-16 -0.62349
  outer loop
    vertex -6.411308974943628 19.75 -4.784884243929751
    vertex -6.091567666953055 3.250000000004002 -5.185827162462328
    vertex -6.411308974943632 3.250000000004002 -4.784884243929751
  endloop
endfacet
facet normal -0.820172 2.20745e-16 -0.572117
  outer loop
    vertex -6.411308974943628 19.75 -4.784884243929751
    vertex -6.411308974943632 3.250000000004002 -4.784884243929751
    vertex -6.704704839134705 3.250000000004002 -4.364279209684415
  endloop
endfacet
facet normal -0.820172 2.20745e-16 -0.572117
  outer loop
    vertex -6.704704839134701 19.75 -4.364279209684415
    vertex -6.411308974943628 19.75 -4.784884243929751
    vertex -6.704704839134705 3.250000000004002 -4.364279209684415
  endloop
endfacet
facet normal -0.855143 2.29612e-16 -0.518393
  outer loop
    vertex -6.970549632987091 19.75 -3.925740416031532
    vertex -6.704704839134701 19.75 -4.364279209684415
    vertex -6.704704839134705 3.250000000004002 -4.364279209684415
  endloop
endfacet
facet normal -0.855143 2.30157e-16 -0.518393
  outer loop
    vertex -6.970549632987091 19.75 -3.925740416031532
    vertex -6.704704839134705 3.250000000004002 -4.364279209684415
    vertex -6.970549632987096 3.250000000004002 -3.925740416031532
  endloop
endfacet
facet normal -0.886599 2.38624e-16 -0.462538
  outer loop
    vertex -6.970549632987091 19.75 -3.925740416031532
    vertex -6.970549632987096 3.250000000004002 -3.925740416031532
    vertex -7.207750943219335 3.250000000004002 -3.471069912940497
  endloop
endfacet
facet normal -0.886599 2.38624e-16 -0.462538
  outer loop
    vertex -7.207750943219331 19.75 -3.471069912940497
    vertex -6.970549632987091 19.75 -3.925740416031532
    vertex -7.207750943219335 3.250000000004002 -3.471069912940497
  endloop
endfacet
facet normal -0.914413 2.46013e-16 -0.404783
  outer loop
    vertex -7.415334058768154 19.75 -3.002136039035028
    vertex -7.207750943219331 19.75 -3.471069912940497
    vertex -7.207750943219335 3.250000000004002 -3.471069912940497
  endloop
endfacet
facet normal -0.914413 2.4611e-16 -0.404783
  outer loop
    vertex -7.415334058768154 19.75 -3.002136039035028
    vertex -7.207750943219335 3.250000000004002 -3.471069912940497
    vertex -7.415334058768158 3.250000000004002 -3.002136039035028
  endloop
endfacet
facet normal -0.938468 2.52584e-16 -0.345365
  outer loop
    vertex -7.415334058768154 19.75 -3.002136039035028
    vertex -7.415334058768158 3.250000000004002 -3.002136039035028
    vertex -7.592445976085335 3.250000000004002 -2.520865744189003
  endloop
endfacet
facet normal -0.938468 2.52584e-16 -0.345365
  outer loop
    vertex -7.59244597608533 19.75 -2.520865744189003
    vertex -7.415334058768154 19.75 -3.002136039035028
    vertex -7.592445976085335 3.250000000004002 -2.520865744189003
  endloop
endfacet
facet normal -0.958668 2.57494e-16 -0.284528
  outer loop
    vertex -7.738358904312218 19.75 -2.029236671276099
    vertex -7.59244597608533 19.75 -2.520865744189003
    vertex -7.592445976085335 3.250000000004002 -2.520865744189003
  endloop
endfacet
facet normal -0.958668 2.58021e-16 -0.284528
  outer loop
    vertex -7.738358904312218 19.75 -2.029236671276099
    vertex -7.592445976085335 3.250000000004002 -2.520865744189003
    vertex -7.738358904312222 3.250000000004002 -2.029236671276099
  endloop
endfacet
facet normal -0.974928 2.62414e-16 -0.222521
  outer loop
    vertex -7.852473255928507 19.75 -1.529269029611028
    vertex -7.738358904312218 19.75 -2.029236671276099
    vertex -7.738358904312222 3.250000000004002 -2.029236671276099
  endloop
endfacet
facet normal -0.974928 2.62397e-16 -0.222521
  outer loop
    vertex -7.852473255928507 19.75 -1.529269029611028
    vertex -7.738358904312222 3.250000000004002 -2.029236671276099
    vertex -7.852473255928511 3.250000000004002 -1.529269029611028
  endloop
endfacet
facet normal -0.987182 2.65694e-16 -0.1596
  outer loop
    vertex -7.934320110585957 19.75 -1.023017293476093
    vertex -7.852473255928507 19.75 -1.529269029611028
    vertex -7.852473255928511 3.250000000004002 -1.529269029611028
  endloop
endfacet
facet normal -0.987182 2.65695e-16 -0.1596
  outer loop
    vertex -7.934320110585957 19.75 -1.023017293476093
    vertex -7.852473255928511 3.250000000004002 -1.529269029611028
    vertex -7.934320110585961 3.250000000004002 -1.023017293476093
  endloop
endfacet
facet normal -0.995379 2.68154e-16 -0.096023
  outer loop
    vertex -7.983563142002681 19.75 -0.5125617598457511
    vertex -7.934320110585957 19.75 -1.023017293476093
    vertex -7.934320110585961 3.250000000004002 -1.023017293476093
  endloop
endfacet
facet normal -0.995379 2.67901e-16 -0.096023
  outer loop
    vertex -7.983563142002681 19.75 -0.5125617598457511
    vertex -7.934320110585961 3.250000000004002 -1.023017293476093
    vertex -7.983563142002685 3.250000000004002 -0.5125617598457511
  endloop
endfacet
facet normal -0.999486 2.69007e-16 -0.0320516
  outer loop
    vertex -7.999999999999994 19.75 -2.246466901388036e-16
    vertex -7.983563142002685 3.250000000004002 -0.5125617598457511
    vertex -7.999999999999998 3.250000000004002 -2.246466901388036e-16
  endloop
endfacet
facet normal -0.999486 2.69179e-16 -0.0320516
  outer loop
    vertex -7.999999999999994 19.75 -2.246466901388036e-16
    vertex -7.983563142002681 19.75 -0.5125617598457511
    vertex -7.983563142002685 3.250000000004002 -0.5125617598457511
  endloop
endfacet
facet normal -0.999486 2.68974e-16 0.0320516
  outer loop
    vertex -7.983563142002684 19.75 0.5125617598457051
    vertex -7.999999999999994 19.75 1.734723475977e-15
    vertex -7.999999999999998 3.250000000004002 1.734723475977e-15
  endloop
endfacet
facet normal -0.999486 2.69007e-16 0.0320516
  outer loop
    vertex -7.983563142002684 19.75 0.5125617598457051
    vertex -7.999999999999998 3.250000000004002 1.734723475977e-15
    vertex -7.983563142002689 3.250000000004002 0.5125617598457051
  endloop
endfacet
facet normal -0.995379 2.67744e-16 0.096023
  outer loop
    vertex -7.934320110585963 19.75 1.02301729347605
    vertex -7.983563142002684 19.75 0.5125617598457051
    vertex -7.983563142002689 3.250000000004002 0.5125617598457051
  endloop
endfacet
facet normal -0.995379 2.67901e-16 0.096023
  outer loop
    vertex -7.934320110585963 19.75 1.02301729347605
    vertex -7.983563142002689 3.250000000004002 0.5125617598457051
    vertex -7.934320110585968 3.250000000004002 1.02301729347605
  endloop
endfacet
facet normal -0.987182 2.65694e-16 0.1596
  outer loop
    vertex -7.852473255928516 19.75 1.52926902961098
    vertex -7.934320110585963 19.75 1.02301729347605
    vertex -7.934320110585968 3.250000000004002 1.02301729347605
  endloop
endfacet
facet normal -0.987182 2.65695e-16 0.1596
  outer loop
    vertex -7.852473255928516 19.75 1.52926902961098
    vertex -7.934320110585968 3.250000000004002 1.02301729347605
    vertex -7.852473255928521 3.250000000004002 1.52926902961098
  endloop
endfacet
facet normal -0.974928 2.62414e-16 0.222521
  outer loop
    vertex -7.738358904312229 19.75 2.029236671276061
    vertex -7.852473255928516 19.75 1.52926902961098
    vertex -7.852473255928521 3.250000000004002 1.52926902961098
  endloop
endfacet
facet normal -0.974928 2.62397e-16 0.222521
  outer loop
    vertex -7.738358904312229 19.75 2.029236671276061
    vertex -7.852473255928521 3.250000000004002 1.52926902961098
    vertex -7.738358904312234 3.250000000004002 2.029236671276061
  endloop
endfacet
facet normal -0.958668 2.57494e-16 0.284528
  outer loop
    vertex -7.592445976085343 19.75 2.520865744188967
    vertex -7.738358904312229 19.75 2.029236671276061
    vertex -7.738358904312234 3.250000000004002 2.029236671276061
  endloop
endfacet
facet normal -0.958668 2.58021e-16 0.284528
  outer loop
    vertex -7.592445976085343 19.75 2.520865744188967
    vertex -7.738358904312234 3.250000000004002 2.029236671276061
    vertex -7.592445976085347 3.250000000004002 2.520865744188967
  endloop
endfacet
facet normal -0.938468 2.52573e-16 0.345365
  outer loop
    vertex -7.415334058768168 19.75 3.002136039034994
    vertex -7.592445976085343 19.75 2.520865744188967
    vertex -7.592445976085347 3.250000000004002 2.520865744188967
  endloop
endfacet
facet normal -0.938468 2.52584e-16 0.345365
  outer loop
    vertex -7.415334058768168 19.75 3.002136039034994
    vertex -7.592445976085347 3.250000000004002 2.520865744188967
    vertex -7.415334058768172 3.250000000004002 3.002136039034994
  endloop
endfacet
facet normal -0.914413 2.46013e-16 0.404783
  outer loop
    vertex -7.207750943219347 19.75 3.471069912940466
    vertex -7.415334058768168 19.75 3.002136039034994
    vertex -7.415334058768172 3.250000000004002 3.002136039034994
  endloop
endfacet
facet normal -0.914413 2.4611e-16 0.404783
  outer loop
    vertex -7.207750943219347 19.75 3.471069912940466
    vertex -7.415334058768172 3.250000000004002 3.002136039034994
    vertex -7.207750943219351 3.250000000004002 3.471069912940466
  endloop
endfacet
facet normal -0.886599 2.38624e-16 0.462538
  outer loop
    vertex -7.207750943219347 19.75 3.471069912940466
    vertex -7.207750943219351 3.250000000004002 3.471069912940466
    vertex -6.970549632987113 3.250000000004002 3.925740416031504
  endloop
endfacet
facet normal -0.886599 2.38624e-16 0.462538
  outer loop
    vertex -6.970549632987109 19.75 3.925740416031504
    vertex -7.207750943219347 19.75 3.471069912940466
    vertex -6.970549632987113 3.250000000004002 3.925740416031504
  endloop
endfacet
facet normal -0.855143 2.31252e-16 0.518393
  outer loop
    vertex -6.704704839134719 19.75 4.36427920968439
    vertex -6.970549632987109 19.75 3.925740416031504
    vertex -6.970549632987113 3.250000000004002 3.925740416031504
  endloop
endfacet
facet normal -0.855143 2.30157e-16 0.518393
  outer loop
    vertex -6.704704839134719 19.75 4.36427920968439
    vertex -6.970549632987113 3.250000000004002 3.925740416031504
    vertex -6.704704839134724 3.250000000004002 4.36427920968439
  endloop
endfacet
facet normal -0.820172 2.19772e-16 0.572117
  outer loop
    vertex -6.411308974943648 19.75 4.784884243929728
    vertex -6.704704839134719 19.75 4.36427920968439
    vertex -6.704704839134724 3.250000000004002 4.36427920968439
  endloop
endfacet
facet normal -0.820172 2.20745e-16 0.572117
  outer loop
    vertex -6.411308974943648 19.75 4.784884243929728
    vertex -6.704704839134724 3.250000000004002 4.36427920968439
    vertex -6.411308974943653 3.250000000004002 4.784884243929728
  endloop
endfacet
facet normal -0.781831 2.09931e-16 0.62349
  outer loop
    vertex -6.091567666953071 19.75 5.185827162462306
    vertex -6.411308974943648 19.75 4.784884243929728
    vertex -6.411308974943653 3.250000000004002 4.784884243929728
  endloop
endfacet
facet normal -0.781831 2.10426e-16 0.62349
  outer loop
    vertex -6.091567666953071 19.75 5.185827162462306
    vertex -6.411308974943653 3.250000000004002 4.784884243929728
    vertex -6.091567666953075 3.250000000004002 5.185827162462306
  endloop
endfacet
facet normal -0.740278 1.9681e-16 0.672301
  outer loop
    vertex -5.746794800781816 19.75 5.565460404827891
    vertex -6.091567666953071 19.75 5.185827162462306
    vertex -6.091567666953075 3.250000000004002 5.185827162462306
  endloop
endfacet
facet normal -0.740278 1.99242e-16 0.672301
  outer loop
    vertex -5.746794800781816 19.75 5.565460404827891
    vertex -6.091567666953075 3.250000000004002 5.185827162462306
    vertex -5.746794800781821 3.250000000004002 5.565460404827891
  endloop
endfacet
facet normal -0.695683 1.87239e-16 0.718349
  outer loop
    vertex -5.746794800781816 19.75 5.565460404827891
    vertex -5.746794800781821 3.250000000004002 5.565460404827891
    vertex -5.378407122090534 3.250000000004002 5.922223976602524
  endloop
endfacet
facet normal -0.695683 1.87239e-16 0.718349
  outer loop
    vertex -5.37840712209053 19.75 5.922223976602524
    vertex -5.746794800781816 19.75 5.565460404827891
    vertex -5.378407122090534 3.250000000004002 5.922223976602524
  endloop
endfacet
facet normal -0.648228 1.73849e-16 0.761446
  outer loop
    vertex -4.987918414869864 19.75 6.254651859744238
    vertex -5.37840712209053 19.75 5.922223976602524
    vertex -5.378407122090534 3.250000000004002 5.922223976602524
  endloop
endfacet
facet normal -0.648228 1.74467e-16 0.761446
  outer loop
    vertex -4.987918414869864 19.75 6.254651859744238
    vertex -5.378407122090534 3.250000000004002 5.922223976602524
    vertex -4.987918414869869 3.250000000004002 6.254651859744238
  endloop
endfacet
facet normal -0.598111 1.60978e-16 0.801414
  outer loop
    vertex -4.576933280977353 19.75 6.561378036775648
    vertex -4.987918414869869 3.250000000004002 6.254651859744238
    vertex -4.576933280977357 3.250000000004002 6.561378036775648
  endloop
endfacet
facet normal -0.598111 1.60729e-16 0.801414
  outer loop
    vertex -4.576933280977353 19.75 6.561378036775648
    vertex -4.987918414869864 19.75 6.254651859744238
    vertex -4.987918414869869 3.250000000004002 6.254651859744238
  endloop
endfacet
facet normal -0.545535 1.46828e-16 0.838088
  outer loop
    vertex -4.576933280977353 19.75 6.561378036775648
    vertex -4.576933280977357 3.250000000004002 6.561378036775648
    vertex -4.1471405464842 3.250000000004002 6.84114210404277
  endloop
endfacet
facet normal -0.490718 1.32074e-16 0.871319
  outer loop
    vertex -4.147140546484196 19.75 6.84114210404277
    vertex -4.1471405464842 3.250000000004002 6.84114210404277
    vertex -3.700306321926683 3.250000000004002 7.092794450984001
  endloop
endfacet
facet normal -0.545535 1.46828e-16 0.838088
  outer loop
    vertex -4.147140546484196 19.75 6.84114210404277
    vertex -4.576933280977353 19.75 6.561378036775648
    vertex -4.1471405464842 3.250000000004002 6.84114210404277
  endloop
endfacet
facet normal -0.433884 1.051e-16 0.900969
  outer loop
    vertex -3.700306321926679 19.75 7.092794450984001
    vertex -3.700306321926683 3.250000000004002 7.092794450984001
    vertex -3.238266744979152 3.250000000004 7.3153009841265
  endloop
endfacet
facet normal -0.490718 1.18867e-16 0.871319
  outer loop
    vertex -3.700306321926679 19.75 7.092794450984001
    vertex -4.147140546484196 19.75 6.84114210404277
    vertex -3.700306321926683 3.250000000004002 7.092794450984001
  endloop
endfacet
facet normal -0.433884 1.051e-16 0.900969
  outer loop
    vertex -3.238266744979148 19.75 7.3153009841265
    vertex -3.700306321926679 19.75 7.092794450984001
    vertex -3.238266744979152 3.250000000004 7.3153009841265
  endloop
endfacet
facet normal -0.375267 9.09011e-17 0.926917
  outer loop
    vertex -2.762920435370459 19.75 7.507747376398084
    vertex -3.238266744979152 3.250000000004 7.3153009841265
    vertex -2.762920435370463 3.250000000004 7.507747376398084
  endloop
endfacet
facet normal -0.375267 9.02048e-17 0.926917
  outer loop
    vertex -2.762920435370459 19.75 7.507747376398084
    vertex -3.238266744979148 19.75 7.3153009841265
    vertex -3.238266744979152 3.250000000004 7.3153009841265
  endloop
endfacet
facet normal -0.315108 7.63288e-17 0.949056
  outer loop
    vertex -2.276220693048257 19.75 7.669342824293286
    vertex -2.762920435370463 3.250000000004 7.507747376398084
    vertex -2.276220693048261 3.250000000004 7.669342824293286
  endloop
endfacet
facet normal -0.253655 6.14429e-17 0.967295
  outer loop
    vertex -2.276220693048257 19.75 7.669342824293286
    vertex -2.276220693048261 3.250000000004 7.669342824293286
    vertex -1.780167471650518 3.250000000004 7.79942329745459
  endloop
endfacet
facet normal -0.315108 7.70841e-17 0.949056
  outer loop
    vertex -2.276220693048257 19.75 7.669342824293286
    vertex -2.762920435370459 19.75 7.507747376398084
    vertex -2.762920435370463 3.250000000004 7.507747376398084
  endloop
endfacet
facet normal -0.253655 6.48564e-17 0.967295
  outer loop
    vertex -1.780167471650513 19.75 7.79942329745459
    vertex -2.276220693048257 19.75 7.669342824293286
    vertex -1.780167471650518 3.250000000004 7.79942329745459
  endloop
endfacet
facet normal -0.191159 4.88769e-17 0.981559
  outer loop
    vertex -1.276799160267034 19.75 7.897454267315602
    vertex -1.780167471650518 3.250000000004 7.79942329745459
    vertex -1.276799160267038 3.250000000004 7.897454267315602
  endloop
endfacet
facet normal -0.127877 3.26966e-17 0.99179
  outer loop
    vertex -1.276799160267034 19.75 7.897454267315602
    vertex -1.276799160267038 3.250000000004 7.897454267315602
    vertex -0.7681842072614569 3.250000000004 7.963032903593587
  endloop
endfacet
facet normal -0.191159 4.92026e-17 0.981559
  outer loop
    vertex -1.276799160267034 19.75 7.897454267315602
    vertex -1.780167471650513 19.75 7.79942329745459
    vertex -1.780167471650518 3.250000000004 7.79942329745459
  endloop
endfacet
facet normal -0.127877 3.09757e-17 0.99179
  outer loop
    vertex -0.7681842072614529 19.75 7.963032903593587
    vertex -1.276799160267034 19.75 7.897454267315602
    vertex -0.7681842072614569 3.250000000004 7.963032903593587
  endloop
endfacet
facet normal -0.0640702 1.57353e-17 0.997945
  outer loop
    vertex -0.2564126205732404 19.75 7.995889729605505
    vertex -0.7681842072614569 3.250000000004 7.963032903593587
    vertex -0.2564126205732444 3.250000000004 7.995889729605505
  endloop
endfacet
facet normal -0.0640702 1.55808e-17 0.997945
  outer loop
    vertex -0.2564126205732404 19.75 7.995889729605505
    vertex -0.7681842072614529 19.75 7.963032903593587
    vertex -0.7681842072614569 3.250000000004 7.963032903593587
  endloop
endfacet
facet normal 0 0 1
  outer loop
    vertex 0.2564126205732422 19.75 7.995889729605505
    vertex -0.2564126205732404 19.75 7.995889729605505
    vertex -0.2564126205732444 3.250000000004 7.995889729605505
  endloop
endfacet
facet normal 0 0 1
  outer loop
    vertex 0.2564126205732422 19.75 7.995889729605505
    vertex -0.2564126205732444 3.250000000004 7.995889729605505
    vertex 0.2564126205732381 3.250000000004 7.995889729605505
  endloop
endfacet
facet normal 0.0640702 -1.57353e-17 0.997945
  outer loop
    vertex 0.2564126205732422 19.75 7.995889729605505
    vertex 0.2564126205732381 3.250000000004 7.995889729605505
    vertex 0.7681842072614505 3.250000000004 7.963032903593588
  endloop
endfacet
facet normal 0.0640702 -1.55198e-17 0.997945
  outer loop
    vertex 0.7681842072614545 19.75 7.963032903593588
    vertex 0.2564126205732422 19.75 7.995889729605505
    vertex 0.7681842072614505 3.250000000004 7.963032903593588
  endloop
endfacet
facet normal 0.127877 -3.03416e-17 0.99179
  outer loop
    vertex 1.276799160267034 19.75 7.897454267315604
    vertex 0.7681842072614545 19.75 7.963032903593588
    vertex 0.7681842072614505 3.250000000004 7.963032903593588
  endloop
endfacet
facet normal 0.127877 -3.26966e-17 0.99179
  outer loop
    vertex 1.276799160267034 19.75 7.897454267315604
    vertex 0.7681842072614505 3.250000000004 7.963032903593588
    vertex 1.27679916026703 3.250000000004 7.897454267315604
  endloop
endfacet
facet normal 0.191159 -4.92026e-17 0.981559
  outer loop
    vertex 1.780167471650515 19.75 7.799423297454592
    vertex 1.276799160267034 19.75 7.897454267315604
    vertex 1.27679916026703 3.250000000004 7.897454267315604
  endloop
endfacet
facet normal 0.191159 -4.88769e-17 0.981559
  outer loop
    vertex 1.780167471650515 19.75 7.799423297454592
    vertex 1.27679916026703 3.250000000004 7.897454267315604
    vertex 1.780167471650511 3.250000000004 7.799423297454592
  endloop
endfacet
facet normal 0.253655 -6.39634e-17 0.967295
  outer loop
    vertex 2.27622069304826 19.75 7.669342824293288
    vertex 1.780167471650515 19.75 7.799423297454592
    vertex 1.780167471650511 3.250000000004 7.799423297454592
  endloop
endfacet
facet normal 0.253655 -6.14429e-17 0.967295
  outer loop
    vertex 2.27622069304826 19.75 7.669342824293288
    vertex 1.780167471650511 3.250000000004 7.799423297454592
    vertex 2.276220693048256 3.250000000004 7.669342824293288
  endloop
endfacet
facet normal 0.315108 -7.70841e-17 0.949056
  outer loop
    vertex 2.762920435370463 19.75 7.507747376398086
    vertex 2.27622069304826 19.75 7.669342824293288
    vertex 2.276220693048256 3.250000000004 7.669342824293288
  endloop
endfacet
facet normal 0.315108 -7.63288e-17 0.949056
  outer loop
    vertex 2.762920435370463 19.75 7.507747376398086
    vertex 2.276220693048256 3.250000000004 7.669342824293288
    vertex 2.762920435370459 3.250000000004 7.507747376398086
  endloop
endfacet
facet normal 0.375267 -9.09011e-17 0.926917
  outer loop
    vertex 2.762920435370463 19.75 7.507747376398086
    vertex 2.762920435370459 3.250000000004 7.507747376398086
    vertex 3.238266744979144 3.250000000004 7.315300984126505
  endloop
endfacet
facet normal 0.375267 -9.09011e-17 0.926917
  outer loop
    vertex 3.238266744979148 19.75 7.315300984126505
    vertex 2.762920435370463 19.75 7.507747376398086
    vertex 3.238266744979144 3.250000000004 7.315300984126505
  endloop
endfacet
facet normal 0.433884 -1.04966e-16 0.900969
  outer loop
    vertex 3.700306321926683 19.75 7.092794450984004
    vertex 3.238266744979148 19.75 7.315300984126505
    vertex 3.238266744979144 3.250000000004 7.315300984126505
  endloop
endfacet
facet normal 0.433884 -1.051e-16 0.900969
  outer loop
    vertex 3.700306321926683 19.75 7.092794450984004
    vertex 3.238266744979144 3.250000000004 7.315300984126505
    vertex 3.700306321926679 3.250000000003999 7.092794450984004
  endloop
endfacet
facet normal 0.490718 -1.19726e-16 0.871319
  outer loop
    vertex 4.147140546484203 19.75 6.841142104042773
    vertex 3.700306321926683 19.75 7.092794450984004
    vertex 3.700306321926679 3.250000000003999 7.092794450984004
  endloop
endfacet
facet normal 0.490718 -1.32074e-16 0.871319
  outer loop
    vertex 4.147140546484203 19.75 6.841142104042773
    vertex 3.700306321926679 3.250000000003999 7.092794450984004
    vertex 4.147140546484199 3.250000000003999 6.841142104042773
  endloop
endfacet
facet normal 0.545535 -1.45968e-16 0.838088
  outer loop
    vertex 4.576933280977362 19.75 6.56137803677565
    vertex 4.147140546484203 19.75 6.841142104042773
    vertex 4.147140546484199 3.250000000003999 6.841142104042773
  endloop
endfacet
facet normal 0.545535 -1.46828e-16 0.838088
  outer loop
    vertex 4.576933280977362 19.75 6.56137803677565
    vertex 4.147140546484199 3.250000000003999 6.841142104042773
    vertex 4.576933280977357 3.250000000003999 6.56137803677565
  endloop
endfacet
facet normal 0.598111 -1.60729e-16 0.801414
  outer loop
    vertex 4.987918414869874 19.75 6.254651859744241
    vertex 4.576933280977362 19.75 6.56137803677565
    vertex 4.576933280977357 3.250000000003999 6.56137803677565
  endloop
endfacet
facet normal 0.598111 -1.60978e-16 0.801414
  outer loop
    vertex 4.987918414869874 19.75 6.254651859744241
    vertex 4.576933280977357 3.250000000003999 6.56137803677565
    vertex 4.98791841486987 3.250000000003999 6.254651859744241
  endloop
endfacet
facet normal 0.648228 -1.77129e-16 0.761446
  outer loop
    vertex 5.378407122090541 19.75 5.922223976602526
    vertex 4.987918414869874 19.75 6.254651859744241
    vertex 4.98791841486987 3.250000000003999 6.254651859744241
  endloop
endfacet
facet normal 0.648228 -1.74467e-16 0.761446
  outer loop
    vertex 5.378407122090541 19.75 5.922223976602526
    vertex 4.98791841486987 3.250000000003999 6.254651859744241
    vertex 5.378407122090537 3.250000000003999 5.922223976602526
  endloop
endfacet
facet normal 0.695683 -1.8697e-16 0.718349
  outer loop
    vertex 5.746794800781829 19.75 5.565460404827891
    vertex 5.378407122090541 19.75 5.922223976602526
    vertex 5.378407122090537 3.250000000003999 5.922223976602526
  endloop
endfacet
facet normal 0.695683 -1.87239e-16 0.718349
  outer loop
    vertex 5.746794800781829 19.75 5.565460404827891
    vertex 5.378407122090537 3.250000000003999 5.922223976602526
    vertex 5.746794800781824 3.250000000003999 5.565460404827891
  endloop
endfacet
facet normal 0.740278 -2.00091e-16 0.672301
  outer loop
    vertex 6.091567666953084 19.75 5.185827162462306
    vertex 5.746794800781829 19.75 5.565460404827891
    vertex 5.746794800781824 3.250000000003999 5.565460404827891
  endloop
endfacet
facet normal 0.740278 -1.99242e-16 0.672301
  outer loop
    vertex 6.091567666953084 19.75 5.185827162462306
    vertex 5.746794800781824 3.250000000003999 5.565460404827891
    vertex 6.09156766695308 3.250000000003999 5.185827162462306
  endloop
endfacet
facet normal 0.781831 -2.09931e-16 0.62349
  outer loop
    vertex 6.411308974943663 19.75 4.784884243929725
    vertex 6.091567666953084 19.75 5.185827162462306
    vertex 6.09156766695308 3.250000000003999 5.185827162462306
  endloop
endfacet
facet normal 0.781831 -2.10426e-16 0.62349
  outer loop
    vertex 6.411308974943663 19.75 4.784884243929725
    vertex 6.09156766695308 3.250000000003999 5.185827162462306
    vertex 6.411308974943658 3.250000000003999 4.784884243929725
  endloop
endfacet
facet normal 0.820172 -2.21412e-16 0.572117
  outer loop
    vertex 6.704704839134735 19.75 4.364279209684385
    vertex 6.411308974943663 19.75 4.784884243929725
    vertex 6.411308974943658 3.250000000003999 4.784884243929725
  endloop
endfacet
facet normal 0.820172 -2.20745e-16 0.572117
  outer loop
    vertex 6.704704839134735 19.75 4.364279209684385
    vertex 6.411308974943658 3.250000000003999 4.784884243929725
    vertex 6.704704839134731 3.250000000003999 4.364279209684385
  endloop
endfacet
facet normal 0.855143 -2.30157e-16 0.518393
  outer loop
    vertex 6.704704839134735 19.75 4.364279209684385
    vertex 6.704704839134731 3.250000000003999 4.364279209684385
    vertex 6.970549632987121 3.250000000003999 3.925740416031497
  endloop
endfacet
facet normal 0.855143 -2.30157e-16 0.518393
  outer loop
    vertex 6.970549632987125 19.75 3.925740416031497
    vertex 6.704704839134735 19.75 4.364279209684385
    vertex 6.970549632987121 3.250000000003999 3.925740416031497
  endloop
endfacet
facet normal 0.886599 -2.37813e-16 0.462538
  outer loop
    vertex 7.207750943219364 19.75 3.471069912940458
    vertex 6.970549632987125 19.75 3.925740416031497
    vertex 6.970549632987121 3.250000000003999 3.925740416031497
  endloop
endfacet
facet normal 0.886599 -2.38624e-16 0.462538
  outer loop
    vertex 7.207750943219364 19.75 3.471069912940458
    vertex 6.970549632987121 3.250000000003999 3.925740416031497
    vertex 7.207750943219359 3.250000000003999 3.471069912940458
  endloop
endfacet
facet normal 0.914413 -2.4611e-16 0.404783
  outer loop
    vertex 7.207750943219364 19.75 3.471069912940458
    vertex 7.207750943219359 3.250000000003999 3.471069912940458
    vertex 7.41533405876818 3.250000000003999 3.002136039034984
  endloop
endfacet
facet normal 0.914413 -2.4611e-16 0.404783
  outer loop
    vertex 7.415334058768185 19.75 3.002136039034984
    vertex 7.207750943219364 19.75 3.471069912940458
    vertex 7.41533405876818 3.250000000003999 3.002136039034984
  endloop
endfacet
facet normal 0.938468 -2.52573e-16 0.345365
  outer loop
    vertex 7.59244597608536 19.75 2.520865744188955
    vertex 7.415334058768185 19.75 3.002136039034984
    vertex 7.41533405876818 3.250000000003999 3.002136039034984
  endloop
endfacet
facet normal 0.938468 -2.52584e-16 0.345365
  outer loop
    vertex 7.59244597608536 19.75 2.520865744188955
    vertex 7.41533405876818 3.250000000003999 3.002136039034984
    vertex 7.592445976085355 3.250000000003999 2.520865744188955
  endloop
endfacet
facet normal 0.958668 -2.59134e-16 0.284528
  outer loop
    vertex 7.738358904312244 19.75 2.02923667127605
    vertex 7.59244597608536 19.75 2.520865744188955
    vertex 7.592445976085355 3.250000000003999 2.520865744188955
  endloop
endfacet
facet normal 0.958668 -2.58021e-16 0.284528
  outer loop
    vertex 7.738358904312244 19.75 2.02923667127605
    vertex 7.592445976085355 3.250000000003999 2.520865744188955
    vertex 7.73835890431224 3.250000000003999 2.02923667127605
  endloop
endfacet
facet normal 0.974928 -2.62414e-16 0.222521
  outer loop
    vertex 7.852473255928532 19.75 1.529269029610965
    vertex 7.738358904312244 19.75 2.02923667127605
    vertex 7.73835890431224 3.250000000003999 2.02923667127605
  endloop
endfacet
facet normal 0.974928 -2.62397e-16 0.222521
  outer loop
    vertex 7.852473255928532 19.75 1.529269029610965
    vertex 7.73835890431224 3.250000000003999 2.02923667127605
    vertex 7.852473255928528 3.250000000003999 1.529269029610965
  endloop
endfacet
facet normal 0.987182 -2.65694e-16 0.1596
  outer loop
    vertex 7.934320110585977 19.75 1.023017293476033
    vertex 7.852473255928532 19.75 1.529269029610965
    vertex 7.852473255928528 3.250000000003999 1.529269029610965
  endloop
endfacet
facet normal 0.987182 -2.65695e-16 0.1596
  outer loop
    vertex 7.934320110585977 19.75 1.023017293476033
    vertex 7.852473255928528 3.250000000003999 1.529269029610965
    vertex 7.934320110585973 3.250000000003999 1.023017293476033
  endloop
endfacet
facet normal 0.995379 -2.68154e-16 0.096023
  outer loop
    vertex 7.983563142002698 19.75 0.5125617598456864
    vertex 7.934320110585977 19.75 1.023017293476033
    vertex 7.934320110585973 3.250000000003999 1.023017293476033
  endloop
endfacet
facet normal 0.995379 -2.67901e-16 0.096023
  outer loop
    vertex 7.983563142002698 19.75 0.5125617598456864
    vertex 7.934320110585973 3.250000000003999 1.023017293476033
    vertex 7.983563142002693 3.250000000003999 0.5125617598456864
  endloop
endfacet
facet normal 0.999486 -2.15205e-16 0.0320516
  outer loop
    vertex 8.000000000000005 19.75 -1.652850165761999e-12
    vertex 7.983563142002693 3.250000000003999 0.5125617598456864
    vertex 8.000000000000002 3.249999999999996 -1.652850165761999e-12
  endloop
endfacet
facet normal 0.999486 -2.69179e-16 0.0320516
  outer loop
    vertex 8.000000000000005 19.75 -1.652850165761999e-12
    vertex 7.983563142002698 19.75 0.5125617598456864
    vertex 7.983563142002693 3.250000000003999 0.5125617598456864
  endloop
endfacet
facet normal 0 1 0
  outer loop
    vertex 4.286614359831977 19.75 -6.754623404016121
    vertex 5.831749019371293 19.75 -5.476376847429513
    vertex 5.47637684742951 19.75 -5.831749019371296
  endloop
endfacet
facet normal 0 1 0
  outer loop
    vertex 4.286614359831977 19.75 -6.754623404016121
    vertex 5.47637684742951 19.75 -5.831749019371296
    vertex 5.099391917989517 19.75 -6.164105942206318
  endloop
endfacet
facet normal 0 1 0
  outer loop
    vertex 4.286614359831977 19.75 -6.754623404016121
    vertex 5.099391917989517 19.75 -6.164105942206318
    vertex 4.702282018339787 19.75 -6.472135954999581
  endloop
endfacet
facet normal 0 1 0
  outer loop
    vertex 3.40623433252059 19.75 -7.238616419728153
    vertex 6.164105942206316 19.75 -5.099391917989521
    vertex 5.831749019371293 19.75 -5.476376847429513
  endloop
endfacet
facet normal 0 1 0
  outer loop
    vertex 3.40623433252059 19.75 -7.238616419728153
    vertex 5.831749019371293 19.75 -5.476376847429513
    vertex 4.286614359831977 19.75 -6.754623404016121
  endloop
endfacet
facet normal 0 1 0
  outer loop
    vertex 3.40623433252059 19.75 -7.238616419728153
    vertex 4.286614359831977 19.75 -6.754623404016121
    vertex 3.854029392813729 19.75 -7.010453440350907
  endloop
endfacet
facet normal 0 1 0
  outer loop
    vertex 7.438211887106016 19.75 -2.944996421477425
    vertex 7.238616419728161 19.75 -3.406234332520583
    vertex 7.010453440350913 19.75 -3.854029392813724
  endloop
endfacet
facet normal 0 1 0
  outer loop
    vertex 7.438211887106016 19.75 -2.944996421477425
    vertex 7.010453440350913 19.75 -3.854029392813724
    vertex 6.754623404016124 19.75 -4.286614359831976
  endloop
endfacet
facet normal 0 1 0
  outer loop
    vertex 2.472135954999594 19.75 -7.608452130361224
    vertex 3.40623433252059 19.75 -7.238616419728153
    vertex 2.944996421477435 19.75 -7.438211887106007
  endloop
endfacet
facet normal 0 1 0
  outer loop
    vertex 7.858298005829515 19.75 -1.499050516685797
    vertex 7.748665289029055 19.75 -1.989519097318839
    vertex 7.608452130361234 19.75 -2.47213595499958
  endloop
endfacet
facet normal 0 1 0
  outer loop
    vertex 7.858298005829515 19.75 -1.499050516685797
    vertex 7.608452130361234 19.75 -2.47213595499958
    vertex 7.438211887106016 19.75 -2.944996421477425
  endloop
endfacet
facet normal 0 1 0
  outer loop
    vertex 7.858298005829515 19.75 -1.499050516685797
    vertex 6.754623404016124 19.75 -4.286614359831976
    vertex 6.472135954999582 19.75 -4.702282018339788
  endloop
endfacet
facet normal 0 1 0
  outer loop
    vertex 7.858298005829515 19.75 -1.499050516685797
    vertex 7.438211887106016 19.75 -2.944996421477425
    vertex 6.754623404016124 19.75 -4.286614359831976
  endloop
endfacet
facet normal 0 1 0
  outer loop
    vertex 1.002665868514457 19.75 -7.936917610515819
    vertex 1.989519097318856 19.75 -7.748665289029044
    vertex 1.499050516685817 19.75 -7.858298005829505
  endloop
endfacet
facet normal 0 1 0
  outer loop
    vertex 7.984213827426179 19.75 -0.5023241562345051
    vertex 7.936917610515829 19.75 -1.002665868514432
    vertex 7.858298005829515 19.75 -1.499050516685797
  endloop
endfacet
facet normal 0 1 0
  outer loop
    vertex 7.984213827426179 19.75 -0.5023241562345051
    vertex 6.472135954999582 19.75 -4.702282018339788
    vertex 6.164105942206316 19.75 -5.099391917989521
  endloop
endfacet
facet normal 0 1 0
  outer loop
    vertex 7.984213827426179 19.75 -0.5023241562345051
    vertex 7.858298005829515 19.75 -1.499050516685797
    vertex 6.472135954999582 19.75 -4.702282018339788
  endloop
endfacet
facet normal 0 1 0
  outer loop
    vertex 7.98421382742618 19.75 0.50232415623449
    vertex 8.000000000000007 19.75 3.51108031537725e-15
    vertex 7.984213827426179 19.75 -0.5023241562345051
  endloop
endfacet
facet normal 0 1 0
  outer loop
    vertex 7.98421382742618 19.75 0.50232415623449
    vertex 6.164105942206316 19.75 -5.099391917989521
    vertex 3.40623433252059 19.75 -7.238616419728153
  endloop
endfacet
facet normal 0 1 0
  outer loop
    vertex 7.98421382742618 19.75 0.50232415623449
    vertex 7.984213827426179 19.75 -0.5023241562345051
    vertex 6.164105942206316 19.75 -5.099391917989521
  endloop
endfacet
facet normal 2.11335e-15 1 -7.27421e-15
  outer loop
    vertex -0.5023241562344758 19.75 -7.984213827426172
    vertex 2.472135954999594 19.75 -7.608452130361224
    vertex 1.989519097318856 19.75 -7.748665289029044
  endloop
endfacet
facet normal -1.99224e-28 1 7.51162e-14
  outer loop
    vertex -0.5023241562344758 19.75 -7.984213827426172
    vertex 1.002665868514457 19.75 -7.936917610515819
    vertex 0.5023241562345326 19.75 -7.98421382742617
  endloop
endfacet
facet normal -0 1 0
  outer loop
    vertex -0.5023241562344758 19.75 -7.984213827426172
    vertex 0.5023241562345326 19.75 -7.98421382742617
    vertex 2.930988785010413e-14 19.75 -7.999999999999998
  endloop
endfacet
facet normal 1.75408e-15 1 -4.43031e-15
  outer loop
    vertex -0.5023241562344758 19.75 -7.984213827426172
    vertex 3.40623433252059 19.75 -7.238616419728153
    vertex 2.472135954999594 19.75 -7.608452130361224
  endloop
endfacet
facet normal 2.82622e-15 1 -1.48156e-14
  outer loop
    vertex -0.5023241562344758 19.75 -7.984213827426172
    vertex 1.989519097318856 19.75 -7.748665289029044
    vertex 1.002665868514457 19.75 -7.936917610515819
  endloop
endfacet
facet normal 1.02454e-15 1 -6.05912e-16
  outer loop
    vertex -0.5023241562344758 19.75 -7.984213827426172
    vertex 7.98421382742618 19.75 0.50232415623449
    vertex 3.40623433252059 19.75 -7.238616419728153
  endloop
endfacet
facet normal 0 1 0
  outer loop
    vertex 7.858298005829519 19.75 1.499050516685781
    vertex 7.936917610515831 19.75 1.002665868514416
    vertex 7.98421382742618 19.75 0.50232415623449
  endloop
endfacet
facet normal 0 1 0
  outer loop
    vertex -2.472135954999537 19.75 -7.608452130361238
    vertex -1.49905051668576 19.75 -7.858298005829513
    vertex -1.989519097318798 19.75 -7.748665289029056
  endloop
endfacet
facet normal 0 1 0
  outer loop
    vertex -3.406234332520537 19.75 -7.238616419728173
    vertex -0.5023241562344758 19.75 -7.984213827426172
    vertex -1.002665868514399 19.75 -7.936917610515825
  endloop
endfacet
facet normal 0 1 0
  outer loop
    vertex -3.406234332520537 19.75 -7.238616419728173
    vertex -1.002665868514399 19.75 -7.936917610515825
    vertex -1.49905051668576 19.75 -7.858298005829513
  endloop
endfacet
facet normal 0 1 0
  outer loop
    vertex -3.406234332520537 19.75 -7.238616419728173
    vertex -2.472135954999537 19.75 -7.608452130361238
    vertex -2.944996421477381 19.75 -7.438211887106024
  endloop
endfacet
facet normal 8.55263e-17 1 3.33103e-16
  outer loop
    vertex -3.406234332520537 19.75 -7.238616419728173
    vertex 7.98421382742618 19.75 0.50232415623449
    vertex -0.5023241562344758 19.75 -7.984213827426172
  endloop
endfacet
facet normal 2.87242e-16 1 3.62871e-17
  outer loop
    vertex -3.406234332520537 19.75 -7.238616419728173
    vertex 7.858298005829519 19.75 1.499050516685781
    vertex 7.98421382742618 19.75 0.50232415623449
  endloop
endfacet
facet normal 0 1 0
  outer loop
    vertex -3.406234332520537 19.75 -7.238616419728173
    vertex -1.49905051668576 19.75 -7.858298005829513
    vertex -2.472135954999537 19.75 -7.608452130361238
  endloop
endfacet
facet normal 0 1 0
  outer loop
    vertex 7.238616419728169 19.75 3.406234332520569
    vertex 7.438211887106023 19.75 2.944996421477411
    vertex 7.60845213036124 19.75 2.472135954999565
  endloop
endfacet
facet normal 0 1 0
  outer loop
    vertex 7.238616419728169 19.75 3.406234332520569
    vertex 7.60845213036124 19.75 2.472135954999565
    vertex 7.748665289029059 19.75 1.989519097318823
  endloop
endfacet
facet normal 0 1 0
  outer loop
    vertex 6.472135954999594 19.75 4.702282018339776
    vertex 7.238616419728169 19.75 3.406234332520569
    vertex 7.748665289029059 19.75 1.989519097318823
  endloop
endfacet
facet normal 0 1 0
  outer loop
    vertex 6.472135954999594 19.75 4.702282018339776
    vertex 6.754623404016135 19.75 4.286614359831963
    vertex 7.010453440350922 19.75 3.854029392813711
  endloop
endfacet
facet normal 0 1 0
  outer loop
    vertex 6.472135954999594 19.75 4.702282018339776
    vertex 7.010453440350922 19.75 3.854029392813711
    vertex 7.238616419728169 19.75 3.406234332520569
  endloop
endfacet
facet normal 0 1 0
  outer loop
    vertex 6.472135954999594 19.75 4.702282018339776
    vertex 7.748665289029059 19.75 1.989519097318823
    vertex 7.858298005829519 19.75 1.499050516685781
  endloop
endfacet
facet normal 0 1 0
  outer loop
    vertex -5.099391917989468 19.75 -6.164105942206347
    vertex -4.286614359831926 19.75 -6.754623404016145
    vertex -4.702282018339737 19.75 -6.472135954999608
  endloop
endfacet
facet normal 0 1 0
  outer loop
    vertex -6.164105942206266 19.75 -5.099391917989564
    vertex -5.099391917989468 19.75 -6.164105942206347
    vertex -5.47637684742946 19.75 -5.83174901937133
  endloop
endfacet
facet normal 0 1 0
  outer loop
    vertex -6.164105942206266 19.75 -5.099391917989564
    vertex -5.47637684742946 19.75 -5.83174901937133
    vertex -5.831749019371244 19.75 -5.476376847429552
  endloop
endfacet
facet normal 0 1 0
  outer loop
    vertex 4.702282018339799 19.75 6.472135954999574
    vertex 5.099391917989532 19.75 6.164105942206309
    vertex 5.476376847429524 19.75 5.831749019371285
  endloop
endfacet
facet normal 0 1 0
  outer loop
    vertex 4.702282018339799 19.75 6.472135954999574
    vertex 5.476376847429524 19.75 5.831749019371285
    vertex 5.831749019371307 19.75 5.476376847429503
  endloop
endfacet
facet normal 0 1 0
  outer loop
    vertex 4.702282018339799 19.75 6.472135954999574
    vertex 5.831749019371307 19.75 5.476376847429503
    vertex 6.164105942206328 19.75 5.099391917989509
  endloop
endfacet
facet normal 0 1 0
  outer loop
    vertex 4.702282018339799 19.75 6.472135954999574
    vertex 6.164105942206328 19.75 5.099391917989509
    vertex 6.472135954999594 19.75 4.702282018339776
  endloop
endfacet
facet normal 0 1 0
  outer loop
    vertex -6.754623404016076 19.75 -4.286614359832029
    vertex -6.164105942206266 19.75 -5.099391917989564
    vertex -6.472135954999533 19.75 -4.702282018339837
  endloop
endfacet
facet normal 0 1 0
  outer loop
    vertex 3.854029392813736 19.75 7.010453440350906
    vertex 4.286614359831987 19.75 6.754623404016117
    vertex 4.702282018339799 19.75 6.472135954999574
  endloop
endfacet
facet normal 0 1 0
  outer loop
    vertex 3.406234332520595 19.75 7.238616419728155
    vertex 4.702282018339799 19.75 6.472135954999574
    vertex 6.472135954999594 19.75 4.702282018339776
  endloop
endfacet
facet normal 0 1 0
  outer loop
    vertex 3.406234332520595 19.75 7.238616419728155
    vertex 3.854029392813736 19.75 7.010453440350906
    vertex 4.702282018339799 19.75 6.472135954999574
  endloop
endfacet
facet normal 1.00856e-16 1 1.97941e-16
  outer loop
    vertex 3.406234332520595 19.75 7.238616419728155
    vertex -3.406234332520537 19.75 -7.238616419728173
    vertex -3.854029392813676 19.75 -7.010453440350929
  endloop
endfacet
facet normal 1.13309e-16 1 1.91596e-16
  outer loop
    vertex 3.406234332520595 19.75 7.238616419728155
    vertex -3.854029392813676 19.75 -7.010453440350929
    vertex -4.286614359831926 19.75 -6.754623404016145
  endloop
endfacet
facet normal 1.96912e-16 1 1.5274e-16
  outer loop
    vertex 3.406234332520595 19.75 7.238616419728155
    vertex 7.858298005829519 19.75 1.499050516685781
    vertex -3.406234332520537 19.75 -7.238616419728173
  endloop
endfacet
facet normal 0 1 0
  outer loop
    vertex 3.406234332520595 19.75 7.238616419728155
    vertex 6.472135954999594 19.75 4.702282018339776
    vertex 7.858298005829519 19.75 1.499050516685781
  endloop
endfacet
facet normal 1.31812e-16 1 1.81424e-16
  outer loop
    vertex 3.406234332520595 19.75 7.238616419728155
    vertex -4.286614359831926 19.75 -6.754623404016145
    vertex -5.099391917989468 19.75 -6.164105942206347
  endloop
endfacet
facet normal 0 1 0
  outer loop
    vertex -7.438211887105975 19.75 -2.944996421477494
    vertex -6.754623404016076 19.75 -4.286614359832029
    vertex -7.010453440350869 19.75 -3.854029392813783
  endloop
endfacet
facet normal 0 1 0
  outer loop
    vertex -7.438211887105975 19.75 -2.944996421477494
    vertex -7.010453440350869 19.75 -3.854029392813783
    vertex -7.238616419728118 19.75 -3.406234332520647
  endloop
endfacet
facet normal 8.99934e-17 1 2.07962e-16
  outer loop
    vertex 2.944996421477438 19.75 7.438211887106009
    vertex 3.406234332520595 19.75 7.238616419728155
    vertex -5.099391917989468 19.75 -6.164105942206347
  endloop
endfacet
facet normal 0 1 0
  outer loop
    vertex -7.608452130361197 19.75 -2.472135954999654
    vertex -5.099391917989468 19.75 -6.164105942206347
    vertex -6.164105942206266 19.75 -5.099391917989564
  endloop
endfacet
facet normal 0 1 0
  outer loop
    vertex -7.608452130361197 19.75 -2.472135954999654
    vertex -6.164105942206266 19.75 -5.099391917989564
    vertex -6.754623404016076 19.75 -4.286614359832029
  endloop
endfacet
facet normal 0 1 0
  outer loop
    vertex -7.608452130361197 19.75 -2.472135954999654
    vertex -6.754623404016076 19.75 -4.286614359832029
    vertex -7.438211887105975 19.75 -2.944996421477494
  endloop
endfacet
facet normal 0 1 0
  outer loop
    vertex -7.858298005829486 19.75 -1.499050516685879
    vertex -7.608452130361197 19.75 -2.472135954999654
    vertex -7.74866528902902 19.75 -1.989519097318917
  endloop
endfacet
facet normal 0 1 0
  outer loop
    vertex -7.936917610515806 19.75 -1.00266586851452
    vertex -7.608452130361197 19.75 -2.472135954999654
    vertex -7.858298005829486 19.75 -1.499050516685879
  endloop
endfacet
facet normal 0 1 0
  outer loop
    vertex -7.98421382742616 19.75 -0.5023241562345966
    vertex -7.608452130361197 19.75 -2.472135954999654
    vertex -7.936917610515806 19.75 -1.00266586851452
  endloop
endfacet
facet normal -3.53628e-15 1 -1.12526e-13
  outer loop
    vertex 9.769962616701378e-15 19.75 8.000000000000002
    vertex 0.5023241562345184 19.75 7.984213827426174
    vertex 1.002665868514447 19.75 7.936917610515824
  endloop
endfacet
facet normal 0 1 0
  outer loop
    vertex -7.999999999999993 19.75 -4.163336342325049e-17
    vertex -5.099391917989468 19.75 -6.164105942206347
    vertex -7.608452130361197 19.75 -2.472135954999654
  endloop
endfacet
facet normal 2.45945e-16 1 1.15733e-16
  outer loop
    vertex -7.999999999999993 19.75 -4.163336342325049e-17
    vertex 2.944996421477438 19.75 7.438211887106009
    vertex -5.099391917989468 19.75 -6.164105942206347
  endloop
endfacet
facet normal 0 1 0
  outer loop
    vertex -7.999999999999993 19.75 -4.163336342325049e-17
    vertex -7.608452130361197 19.75 -2.472135954999654
    vertex -7.98421382742616 19.75 -0.5023241562345966
  endloop
endfacet
facet normal 9.69082e-17 1 3.3356e-16
  outer loop
    vertex -7.999999999999993 19.75 -4.163336342325049e-17
    vertex 1.989519097318852 19.75 7.748665289029049
    vertex 2.472135954999594 19.75 7.608452130361227
  endloop
endfacet
facet normal 1.12408e-16 1 3.12226e-16
  outer loop
    vertex -7.999999999999993 19.75 -4.163336342325049e-17
    vertex 2.472135954999594 19.75 7.608452130361227
    vertex 2.944996421477438 19.75 7.438211887106009
  endloop
endfacet
facet normal 1.18031e-15 1 -3.75581e-14
  outer loop
    vertex -0.5023241562344971 19.75 7.984213827426174
    vertex 9.769962616701378e-15 19.75 8.000000000000002
    vertex 1.002665868514447 19.75 7.936917610515824
  endloop
endfacet
facet normal 2.94495e-15 1 1.85937e-14
  outer loop
    vertex -0.5023241562344971 19.75 7.984213827426174
    vertex 1.002665868514447 19.75 7.936917610515824
    vertex 1.49905051668581 19.75 7.858298005829509
  endloop
endfacet
facet normal 0 1 0
  outer loop
    vertex -7.858298005829504 19.75 1.499050516685799
    vertex -7.999999999999993 19.75 -4.163336342325049e-17
    vertex -7.984213827426167 19.75 0.5023241562345095
  endloop
endfacet
facet normal 0 1 0
  outer loop
    vertex -7.858298005829504 19.75 1.499050516685799
    vertex -7.984213827426167 19.75 0.5023241562345095
    vertex -7.936917610515817 19.75 1.002665868514436
  endloop
endfacet
facet normal 0 1 0
  outer loop
    vertex -1.98951909731883 19.75 7.74866528902905
    vertex -1.499050516685788 19.75 7.858298005829512
    vertex -1.002665868514423 19.75 7.936917610515826
  endloop
endfacet
facet normal 0 1 0
  outer loop
    vertex -1.98951909731883 19.75 7.74866528902905
    vertex -1.002665868514423 19.75 7.936917610515826
    vertex -0.5023241562344971 19.75 7.984213827426174
  endloop
endfacet
facet normal 1.33488e-15 1 -6.99768e-15
  outer loop
    vertex -2.472135954999573 19.75 7.608452130361231
    vertex -0.5023241562344971 19.75 7.984213827426174
    vertex 1.49905051668581 19.75 7.858298005829509
  endloop
endfacet
facet normal 0 1 0
  outer loop
    vertex -2.472135954999573 19.75 7.608452130361231
    vertex -1.98951909731883 19.75 7.74866528902905
    vertex -0.5023241562344971 19.75 7.984213827426174
  endloop
endfacet
facet normal 0 1 0
  outer loop
    vertex -7.438211887106004 19.75 2.944996421477425
    vertex -7.999999999999993 19.75 -4.163336342325049e-17
    vertex -7.858298005829504 19.75 1.499050516685799
  endloop
endfacet
facet normal 4.17407e-16 1 -7.96247e-17
  outer loop
    vertex -7.438211887106004 19.75 2.944996421477425
    vertex 1.989519097318852 19.75 7.748665289029049
    vertex -7.999999999999993 19.75 -4.163336342325049e-17
  endloop
endfacet
facet normal 0 1 0
  outer loop
    vertex -7.438211887106004 19.75 2.944996421477425
    vertex -7.858298005829504 19.75 1.499050516685799
    vertex -7.748665289029042 19.75 1.989519097318841
  endloop
endfacet
facet normal 0 1 0
  outer loop
    vertex -7.438211887106004 19.75 2.944996421477425
    vertex -7.748665289029042 19.75 1.989519097318841
    vertex -7.608452130361222 19.75 2.472135954999581
  endloop
endfacet
facet normal 1.14907e-16 1 5.14065e-16
  outer loop
    vertex -7.438211887106004 19.75 2.944996421477425
    vertex 1.49905051668581 19.75 7.858298005829509
    vertex 1.989519097318852 19.75 7.748665289029049
  endloop
endfacet
facet normal 0 1 0
  outer loop
    vertex -3.854029392813715 19.75 7.01045344035091
    vertex -3.406234332520576 19.75 7.238616419728158
    vertex -2.944996421477416 19.75 7.438211887106013
  endloop
endfacet
facet normal 0 1 0
  outer loop
    vertex -4.286614359831969 19.75 6.754623404016121
    vertex -3.854029392813715 19.75 7.01045344035091
    vertex -2.944996421477416 19.75 7.438211887106013
  endloop
endfacet
facet normal 0 1 0
  outer loop
    vertex -6.754623404016115 19.75 4.286614359831974
    vertex -7.438211887106004 19.75 2.944996421477425
    vertex -7.23861641972815 19.75 3.406234332520583
  endloop
endfacet
facet normal 0 1 0
  outer loop
    vertex -6.754623404016115 19.75 4.286614359831974
    vertex -7.23861641972815 19.75 3.406234332520583
    vertex -7.010453440350901 19.75 3.854029392813723
  endloop
endfacet
facet normal 1.02065e-15 1 -2.00314e-15
  outer loop
    vertex -4.70228201833978 19.75 6.47213595499958
    vertex -2.472135954999573 19.75 7.608452130361231
    vertex 1.49905051668581 19.75 7.858298005829509
  endloop
endfacet
facet normal 0 1 0
  outer loop
    vertex -4.70228201833978 19.75 6.47213595499958
    vertex -2.944996421477416 19.75 7.438211887106013
    vertex -2.472135954999573 19.75 7.608452130361231
  endloop
endfacet
facet normal 0 1 0
  outer loop
    vertex -4.70228201833978 19.75 6.47213595499958
    vertex -4.286614359831969 19.75 6.754623404016121
    vertex -2.944996421477416 19.75 7.438211887106013
  endloop
endfacet
facet normal 0 1 0
  outer loop
    vertex -6.164105942206309 19.75 5.09939191798952
    vertex -6.754623404016115 19.75 4.286614359831974
    vertex -6.472135954999573 19.75 4.702282018339785
  endloop
endfacet
facet normal 0 1 0
  outer loop
    vertex -5.476376847429503 19.75 5.831749019371292
    vertex -5.099391917989511 19.75 6.164105942206314
    vertex -4.70228201833978 19.75 6.47213595499958
  endloop
endfacet
facet normal 7.85e-16 1 -9.48902e-16
  outer loop
    vertex -5.476376847429503 19.75 5.831749019371292
    vertex -4.70228201833978 19.75 6.47213595499958
    vertex 1.49905051668581 19.75 7.858298005829509
  endloop
endfacet
facet normal 0 1 0
  outer loop
    vertex -5.831749019371287 19.75 5.47637684742951
    vertex -7.438211887106004 19.75 2.944996421477425
    vertex -6.754623404016115 19.75 4.286614359831974
  endloop
endfacet
facet normal 6.10517e-16 1 -3.87446e-16
  outer loop
    vertex -5.831749019371287 19.75 5.47637684742951
    vertex 1.49905051668581 19.75 7.858298005829509
    vertex -7.438211887106004 19.75 2.944996421477425
  endloop
endfacet
facet normal 0 1 0
  outer loop
    vertex -5.831749019371287 19.75 5.47637684742951
    vertex -6.754623404016115 19.75 4.286614359831974
    vertex -6.164105942206309 19.75 5.09939191798952
  endloop
endfacet
facet normal 7.17883e-16 1 -7.17883e-16
  outer loop
    vertex -5.831749019371287 19.75 5.47637684742951
    vertex -5.476376847429503 19.75 5.831749019371292
    vertex 1.49905051668581 19.75 7.858298005829509
  endloop
endfacet
facet normal 0 -1 0
  outer loop
    vertex -4.702282018339742 3.250000000000001 -6.472135954999608
    vertex -5.476376847429466 3.250000000000001 -5.83174901937133
    vertex -5.099391917989474 3.250000000000001 -6.164105942206347
  endloop
endfacet
facet normal 0 -1 0
  outer loop
    vertex -4.702282018339742 3.250000000000001 -6.472135954999608
    vertex -5.83174901937125 3.250000000000001 -5.476376847429552
    vertex -5.476376847429466 3.250000000000001 -5.83174901937133
  endloop
endfacet
facet normal 0 -1 0
  outer loop
    vertex -7.010453440350872 3.250000000000002 -3.854029392813783
    vertex -6.754623404016082 3.250000000000002 -4.286614359832029
    vertex -6.472135954999539 3.250000000000002 -4.702282018339837
  endloop
endfacet
facet normal 7.16359e-15 -1 1.2113e-14
  outer loop
    vertex -3.854029392813681 3.250000000000001 -7.010453440350929
    vertex -4.702282018339742 3.250000000000001 -6.472135954999608
    vertex -4.286614359831931 3.250000000000001 -6.754623404016145
  endloop
endfacet
facet normal -1.04088e-15 -1 -1.18065e-15
  outer loop
    vertex -3.40623433252054 3.250000000000001 -7.238616419728173
    vertex -5.83174901937125 3.250000000000001 -5.476376847429552
    vertex -4.702282018339742 3.250000000000001 -6.472135954999608
  endloop
endfacet
facet normal 2.13243e-15 -1 4.18513e-15
  outer loop
    vertex -3.40623433252054 3.250000000000001 -7.238616419728173
    vertex -4.702282018339742 3.250000000000001 -6.472135954999608
    vertex -3.854029392813681 3.250000000000001 -7.010453440350929
  endloop
endfacet
facet normal -5.0934e-16 -1 -4.49044e-16
  outer loop
    vertex -3.40623433252054 3.250000000000001 -7.238616419728173
    vertex -6.164105942206272 3.250000000000001 -5.099391917989564
    vertex -5.83174901937125 3.250000000000001 -5.476376847429552
  endloop
endfacet
facet normal 1.77349e-15 -1 2.49396e-15
  outer loop
    vertex -3.40623433252054 3.250000000000001 -7.238616419728173
    vertex -6.472135954999539 3.250000000000002 -4.702282018339837
    vertex -6.164105942206272 3.250000000000001 -5.099391917989564
  endloop
endfacet
facet normal 0 -1 0
  outer loop
    vertex -7.748665289029026 3.250000000000002 -1.989519097318917
    vertex -7.238616419728123 3.250000000000002 -3.406234332520647
    vertex -7.010453440350872 3.250000000000002 -3.854029392813783
  endloop
endfacet
facet normal 0 -1 0
  outer loop
    vertex -7.748665289029026 3.250000000000002 -1.989519097318917
    vertex -7.438211887105981 3.250000000000002 -2.944996421477494
    vertex -7.238616419728123 3.250000000000002 -3.406234332520647
  endloop
endfacet
facet normal 0 -1 0
  outer loop
    vertex -7.748665289029026 3.250000000000002 -1.989519097318917
    vertex -7.608452130361202 3.250000000000002 -2.472135954999654
    vertex -7.438211887105981 3.250000000000002 -2.944996421477494
  endloop
endfacet
facet normal 0 -1 0
  outer loop
    vertex -7.93691761051581 3.250000000000002 -1.00266586851452
    vertex -7.010453440350872 3.250000000000002 -3.854029392813783
    vertex -6.472135954999539 3.250000000000002 -4.702282018339837
  endloop
endfacet
facet normal -4.308e-16 -1 -1.70566e-16
  outer loop
    vertex -7.93691761051581 3.250000000000002 -1.00266586851452
    vertex -6.472135954999539 3.250000000000002 -4.702282018339837
    vertex -3.40623433252054 3.250000000000001 -7.238616419728173
  endloop
endfacet
facet normal 0 -1 0
  outer loop
    vertex -7.93691761051581 3.250000000000002 -1.00266586851452
    vertex -7.748665289029026 3.250000000000002 -1.989519097318917
    vertex -7.010453440350872 3.250000000000002 -3.854029392813783
  endloop
endfacet
facet normal 0 -1 0
  outer loop
    vertex -7.93691761051581 3.250000000000002 -1.00266586851452
    vertex -7.858298005829492 3.250000000000002 -1.499050516685879
    vertex -7.748665289029026 3.250000000000002 -1.989519097318917
  endloop
endfacet
facet normal -2.20146e-15 -1 -1.38995e-14
  outer loop
    vertex -0.5023241562344793 3.25 -7.984213827426172
    vertex -1.499050516685765 3.25 -7.858298005829513
    vertex -1.002665868514404 3.25 -7.936917610515825
  endloop
endfacet
facet normal -1.02464e-15 -1 -4.58396e-15
  outer loop
    vertex -0.5023241562344793 3.25 -7.984213827426172
    vertex -1.989519097318803 3.25 -7.748665289029056
    vertex -1.499050516685765 3.25 -7.858298005829513
  endloop
endfacet
facet normal -6.56518e-16 -1 -2.25975e-15
  outer loop
    vertex -0.5023241562344793 3.25 -7.984213827426172
    vertex -2.472135954999542 3.25 -7.608452130361238
    vertex -1.989519097318803 3.25 -7.748665289029056
  endloop
endfacet
facet normal 5.78909e-16 -1 4.21658e-15
  outer loop
    vertex -0.5023241562344793 3.25 -7.984213827426172
    vertex -2.944996421477384 3.250000000000001 -7.438211887106024
    vertex -2.472135954999542 3.25 -7.608452130361238
  endloop
endfacet
facet normal 0 -1 0
  outer loop
    vertex -7.984213827426171 3.250000000000002 0.5023241562345095
    vertex -7.984213827426165 3.250000000000002 -0.5023241562345966
    vertex -7.93691761051581 3.250000000000002 -1.00266586851452
  endloop
endfacet
facet normal 0 -1 -0
  outer loop
    vertex -7.984213827426171 3.250000000000002 0.5023241562345095
    vertex -7.999999999999998 3.250000000000002 -4.163336342325049e-17
    vertex -7.984213827426165 3.250000000000002 -0.5023241562345966
  endloop
endfacet
facet normal 0 -1 -0
  outer loop
    vertex -7.936917610515821 3.250000000000002 1.002665868514436
    vertex -7.984213827426171 3.250000000000002 0.5023241562345095
    vertex -7.93691761051581 3.250000000000002 -1.00266586851452
  endloop
endfacet
facet normal -2.20146e-15 -1 1.38995e-14
  outer loop
    vertex 1.499050516685813 3.25 -7.858298005829505
    vertex 0.5023241562345291 3.25 -7.98421382742617
    vertex 1.002665868514454 3.25 -7.936917610515819
  endloop
endfacet
facet normal 1.47539e-16 -1 -4.69476e-15
  outer loop
    vertex 1.499050516685813 3.25 -7.858298005829505
    vertex 2.482736238818026e-14 3.25 -7.999999999999998
    vertex 0.5023241562345291 3.25 -7.98421382742617
  endloop
endfacet
facet normal -5.13331e-16 -1 2.29651e-15
  outer loop
    vertex 1.989519097318851 3.25 -7.748665289029044
    vertex 2.482736238818026e-14 3.25 -7.999999999999998
    vertex 1.499050516685813 3.25 -7.858298005829505
  endloop
endfacet
facet normal 0 -1 0
  outer loop
    vertex -7.608452130361226 3.250000000000002 2.472135954999581
    vertex -7.748665289029047 3.250000000000002 1.989519097318841
    vertex -7.858298005829508 3.250000000000002 1.499050516685799
  endloop
endfacet
facet normal -2.9742e-17 -1 -9.46405e-16
  outer loop
    vertex 2.472135954999588 3.25 -7.608452130361224
    vertex -0.5023241562344793 3.25 -7.984213827426172
    vertex 2.482736238818026e-14 3.25 -7.999999999999998
  endloop
endfacet
facet normal -3.9495e-16 -1 1.35943e-15
  outer loop
    vertex 2.472135954999588 3.25 -7.608452130361224
    vertex 2.482736238818026e-14 3.25 -7.999999999999998
    vertex 1.989519097318851 3.25 -7.748665289029044
  endloop
endfacet
facet normal 0 -1 0
  outer loop
    vertex -7.43821188710601 3.250000000000002 2.944996421477425
    vertex -7.858298005829508 3.250000000000002 1.499050516685799
    vertex -7.936917610515821 3.250000000000002 1.002665868514436
  endloop
endfacet
facet normal 0 -1 0
  outer loop
    vertex -7.43821188710601 3.250000000000002 2.944996421477425
    vertex -7.608452130361226 3.250000000000002 2.472135954999581
    vertex -7.858298005829508 3.250000000000002 1.499050516685799
  endloop
endfacet
facet normal -5.58895e-15 -1 1.29153e-14
  outer loop
    vertex 3.406234332520585 3.249999999999999 -7.238616419728153
    vertex 2.472135954999588 3.25 -7.608452130361224
    vertex 2.94499642147743 3.249999999999999 -7.438211887106007
  endloop
endfacet
facet normal -2.60751e-16 -1 -6.0256e-16
  outer loop
    vertex 3.406234332520585 3.249999999999999 -7.238616419728153
    vertex -3.40623433252054 3.250000000000001 -7.238616419728173
    vertex -2.944996421477384 3.250000000000001 -7.438211887106024
  endloop
endfacet
facet normal -2.60751e-16 -1 -4.70179e-17
  outer loop
    vertex 3.406234332520585 3.249999999999999 -7.238616419728153
    vertex -7.93691761051581 3.250000000000002 -1.00266586851452
    vertex -3.40623433252054 3.250000000000001 -7.238616419728173
  endloop
endfacet
facet normal -2.90032e-16 -1 3.29168e-16
  outer loop
    vertex 3.406234332520585 3.249999999999999 -7.238616419728153
    vertex -2.944996421477384 3.250000000000001 -7.438211887106024
    vertex -0.5023241562344793 3.25 -7.984213827426172
  endloop
endfacet
facet normal -2.34903e-16 -1 -1.66465e-30
  outer loop
    vertex 3.406234332520585 3.249999999999999 -7.238616419728153
    vertex -7.936917610515821 3.250000000000002 1.002665868514436
    vertex -7.93691761051581 3.250000000000002 -1.00266586851452
  endloop
endfacet
facet normal 3.51328e-18 -1 -1.20965e-15
  outer loop
    vertex 3.406234332520585 3.249999999999999 -7.238616419728153
    vertex -0.5023241562344793 3.25 -7.984213827426172
    vertex 2.472135954999588 3.25 -7.608452130361224
  endloop
endfacet
facet normal -1.97972e-16 -1 5.08306e-17
  outer loop
    vertex 3.406234332520585 3.249999999999999 -7.238616419728153
    vertex -7.43821188710601 3.250000000000002 2.944996421477425
    vertex -7.936917610515821 3.250000000000002 1.002665868514436
  endloop
endfacet
facet normal -8.64241e-17 -1 1.69617e-16
  outer loop
    vertex 3.854029392813723 3.249999999999999 -7.010453440350907
    vertex -7.43821188710601 3.250000000000002 2.944996421477425
    vertex 3.406234332520585 3.249999999999999 -7.238616419728153
  endloop
endfacet
facet normal -1.67347e-16 -1 7.24175e-17
  outer loop
    vertex 4.286614359831972 3.249999999999999 -6.754623404016121
    vertex -7.238616419728155 3.250000000000002 3.406234332520583
    vertex -7.43821188710601 3.250000000000002 2.944996421477425
  endloop
endfacet
facet normal -1.5953e-16 -1 8.12844e-17
  outer loop
    vertex 4.286614359831972 3.249999999999999 -6.754623404016121
    vertex -7.010453440350907 3.250000000000002 3.854029392813723
    vertex -7.238616419728155 3.250000000000002 3.406234332520583
  endloop
endfacet
facet normal -9.47357e-17 -1 1.60189e-16
  outer loop
    vertex 4.286614359831972 3.249999999999999 -6.754623404016121
    vertex -7.43821188710601 3.250000000000002 2.944996421477425
    vertex 3.854029392813723 3.249999999999999 -7.010453440350907
  endloop
endfacet
facet normal 0 -1 0
  outer loop
    vertex -6.472135954999578 3.250000000000002 4.702282018339785
    vertex -6.75462340401612 3.250000000000002 4.286614359831974
    vertex -7.010453440350907 3.250000000000002 3.854029392813723
  endloop
endfacet
facet normal 0 -1 0
  outer loop
    vertex 5.476376847429504 3.249999999999999 -5.831749019371296
    vertex 4.702282018339782 3.249999999999999 -6.472135954999581
    vertex 5.099391917989513 3.249999999999999 -6.164105942206318
  endloop
endfacet
facet normal -5.98511e-15 -1 7.23476e-15
  outer loop
    vertex 5.476376847429504 3.249999999999999 -5.831749019371296
    vertex 4.286614359831972 3.249999999999999 -6.754623404016121
    vertex 4.702282018339782 3.249999999999999 -6.472135954999581
  endloop
endfacet
facet normal 1.05561e-14 -1 -9.30645e-15
  outer loop
    vertex -5.831749019371292 3.250000000000001 5.47637684742951
    vertex -6.164105942206313 3.250000000000001 5.09939191798952
    vertex -6.472135954999578 3.250000000000002 4.702282018339785
  endloop
endfacet
facet normal 1.05561e-14 -1 -9.30645e-15
  outer loop
    vertex 6.472135954999578 3.249999999999998 -4.702282018339788
    vertex 5.831749019371289 3.249999999999999 -5.476376847429513
    vertex 6.16410594220631 3.249999999999999 -5.099391917989521
  endloop
endfacet
facet normal 3.32134e-15 -1 -3.32134e-15
  outer loop
    vertex 6.472135954999578 3.249999999999998 -4.702282018339788
    vertex 5.476376847429504 3.249999999999999 -5.831749019371296
    vertex 5.831749019371289 3.249999999999999 -5.476376847429513
  endloop
endfacet
facet normal 0 -1 0
  outer loop
    vertex -4.702282018339785 3.250000000000001 6.47213595499958
    vertex -5.476376847429509 3.250000000000001 5.831749019371292
    vertex -5.831749019371292 3.250000000000001 5.47637684742951
  endloop
endfacet
facet normal 0 -1 0
  outer loop
    vertex -4.702282018339785 3.250000000000001 6.47213595499958
    vertex -5.099391917989517 3.250000000000001 6.164105942206314
    vertex -5.476376847429509 3.250000000000001 5.831749019371292
  endloop
endfacet
facet normal -2.16176e-16 -1 2.09623e-17
  outer loop
    vertex -4.702282018339785 3.250000000000001 6.47213595499958
    vertex -7.010453440350907 3.250000000000002 3.854029392813723
    vertex 4.286614359831972 3.249999999999999 -6.754623404016121
  endloop
endfacet
facet normal 1.86866e-15 -1 -2.11958e-15
  outer loop
    vertex -4.702282018339785 3.250000000000001 6.47213595499958
    vertex -5.831749019371292 3.250000000000001 5.47637684742951
    vertex -6.472135954999578 3.250000000000002 4.702282018339785
  endloop
endfacet
facet normal -6.86732e-16 -1 4.35813e-16
  outer loop
    vertex -4.702282018339785 3.250000000000001 6.47213595499958
    vertex -6.472135954999578 3.250000000000002 4.702282018339785
    vertex -7.010453440350907 3.250000000000002 3.854029392813723
  endloop
endfacet
facet normal -3.29683e-16 -1 -5.61772e-17
  outer loop
    vertex -4.702282018339785 3.250000000000001 6.47213595499958
    vertex 4.286614359831972 3.249999999999999 -6.754623404016121
    vertex 5.476376847429504 3.249999999999999 -5.831749019371296
  endloop
endfacet
facet normal 7.16359e-15 -1 -1.2113e-14
  outer loop
    vertex -3.854029392813721 3.250000000000001 7.01045344035091
    vertex -4.286614359831972 3.250000000000001 6.754623404016121
    vertex -4.702282018339785 3.250000000000001 6.47213595499958
  endloop
endfacet
facet normal 0 -1 0
  outer loop
    vertex 7.238616419728157 3.249999999999998 -3.406234332520583
    vertex 6.754623404016121 3.249999999999998 -4.286614359831976
    vertex 7.01045344035091 3.249999999999998 -3.854029392813724
  endloop
endfacet
facet normal 0 -1 0
  outer loop
    vertex 7.438211887106013 3.249999999999998 -2.944996421477425
    vertex 6.472135954999578 3.249999999999998 -4.702282018339788
    vertex 6.754623404016121 3.249999999999998 -4.286614359831976
  endloop
endfacet
facet normal 0 -1 0
  outer loop
    vertex 7.438211887106013 3.249999999999998 -2.944996421477425
    vertex 6.754623404016121 3.249999999999998 -4.286614359831976
    vertex 7.238616419728157 3.249999999999998 -3.406234332520583
  endloop
endfacet
facet normal 0 -1 0
  outer loop
    vertex 7.608452130361231 3.249999999999998 -2.47213595499958
    vertex 6.472135954999578 3.249999999999998 -4.702282018339788
    vertex 7.438211887106013 3.249999999999998 -2.944996421477425
  endloop
endfacet
facet normal -2.13243e-15 -1 4.18513e-15
  outer loop
    vertex -2.472135954999576 3.25 7.608452130361231
    vertex -3.406234332520579 3.250000000000001 7.238616419728158
    vertex -3.854029392813721 3.250000000000001 7.01045344035091
  endloop
endfacet
facet normal -5.58895e-15 -1 1.29153e-14
  outer loop
    vertex -2.472135954999576 3.25 7.608452130361231
    vertex -2.944996421477422 3.250000000000001 7.438211887106013
    vertex -3.406234332520579 3.250000000000001 7.238616419728158
  endloop
endfacet
facet normal 2.3515e-16 -1 -1.19549e-15
  outer loop
    vertex -1.989519097318834 3.25 7.74866528902905
    vertex -3.854029392813721 3.250000000000001 7.01045344035091
    vertex -4.702282018339785 3.250000000000001 6.47213595499958
  endloop
endfacet
facet normal 6.56518e-16 -1 -2.25975e-15
  outer loop
    vertex -1.989519097318834 3.25 7.74866528902905
    vertex -2.472135954999576 3.25 7.608452130361231
    vertex -3.854029392813721 3.250000000000001 7.01045344035091
  endloop
endfacet
facet normal 0 -1 0
  outer loop
    vertex 7.858298005829511 3.249999999999998 -1.499050516685797
    vertex 7.608452130361231 3.249999999999998 -2.47213595499958
    vertex 7.74866528902905 3.249999999999998 -1.989519097318839
  endloop
endfacet
facet normal 0 -1 0
  outer loop
    vertex -1.002665868514429 3.25 7.936917610515826
    vertex -1.499050516685792 3.25 7.858298005829512
    vertex -1.989519097318834 3.25 7.74866528902905
  endloop
endfacet
facet normal -2.31068e-16 -1 2.54045e-17
  outer loop
    vertex 7.984213827426174 3.249999999999998 -0.5023241562345051
    vertex -4.702282018339785 3.250000000000001 6.47213595499958
    vertex 5.476376847429504 3.249999999999999 -5.831749019371296
  endloop
endfacet
facet normal 0 -1 0
  outer loop
    vertex 7.984213827426174 3.249999999999998 -0.5023241562345051
    vertex 7.858298005829511 3.249999999999998 -1.499050516685797
    vertex 7.936917610515826 3.249999999999998 -1.002665868514432
  endloop
endfacet
facet normal -7.5381e-16 -1 2.71388e-16
  outer loop
    vertex 7.984213827426174 3.249999999999998 -0.5023241562345051
    vertex 5.476376847429504 3.249999999999999 -5.831749019371296
    vertex 6.472135954999578 3.249999999999998 -4.702282018339788
  endloop
endfacet
facet normal 0 -1 0
  outer loop
    vertex 7.984213827426174 3.249999999999998 -0.5023241562345051
    vertex 7.608452130361231 3.249999999999998 -2.47213595499958
    vertex 7.858298005829511 3.249999999999998 -1.499050516685797
  endloop
endfacet
facet normal 0 -1 0
  outer loop
    vertex 7.984213827426174 3.249999999999998 -0.5023241562345051
    vertex 6.472135954999578 3.249999999999998 -4.702282018339788
    vertex 7.608452130361231 3.249999999999998 -2.47213595499958
  endloop
endfacet
facet normal -2.89417e-16 -1 -8.07328e-17
  outer loop
    vertex 7.984213827426174 3.249999999999998 -0.5023241562345051
    vertex -1.989519097318834 3.25 7.74866528902905
    vertex -4.702282018339785 3.250000000000001 6.47213595499958
  endloop
endfacet
facet normal -1.75942e-15 -1 9.22321e-15
  outer loop
    vertex -0.5023241562345007 3.25 7.984213827426174
    vertex -1.002665868514429 3.25 7.936917610515826
    vertex -1.989519097318834 3.25 7.74866528902905
  endloop
endfacet
facet normal 7.39153e-17 -1 -2.35202e-15
  outer loop
    vertex 7.063793994177751e-15 3.25 8.000000000000002
    vertex -0.5023241562345007 3.25 7.984213827426174
    vertex -1.989519097318834 3.25 7.74866528902905
  endloop
endfacet
facet normal -2.16988e-16 -1 6.81913e-18
  outer loop
    vertex 8.000000000000002 3.249999999999998 3.51108031537725e-15
    vertex -1.989519097318834 3.25 7.74866528902905
    vertex 7.984213827426174 3.249999999999998 -0.5023241562345051
  endloop
endfacet
facet normal -2.33682e-16 -1 -1.4702e-17
  outer loop
    vertex 7.936917610515826 3.249999999999998 1.002665868514416
    vertex -1.989519097318834 3.25 7.74866528902905
    vertex 8.000000000000002 3.249999999999998 3.51108031537725e-15
  endloop
endfacet
facet normal 0 -1 0
  outer loop
    vertex 7.936917610515826 3.249999999999998 1.002665868514416
    vertex 8.000000000000002 3.249999999999998 3.51108031537725e-15
    vertex 7.984213827426176 3.249999999999998 0.50232415623449
  endloop
endfacet
facet normal 1.47539e-16 -1 4.69476e-15
  outer loop
    vertex 1.499050516685806 3.25 7.858298005829509
    vertex 0.5023241562345149 3.25 7.984213827426174
    vertex 7.063793994177751e-15 3.25 8.000000000000002
  endloop
endfacet
facet normal -2.20146e-15 -1 -1.38995e-14
  outer loop
    vertex 1.499050516685806 3.25 7.858298005829509
    vertex 1.002665868514441 3.25 7.936917610515824
    vertex 0.5023241562345149 3.25 7.984213827426174
  endloop
endfacet
facet normal -2.23214e-16 -1 3.94403e-31
  outer loop
    vertex 1.989519097318848 3.25 7.748665289029049
    vertex 7.063793994177751e-15 3.25 8.000000000000002
    vertex -1.989519097318834 3.25 7.74866528902905
  endloop
endfacet
facet normal -2.23214e-16 -1 7.0011e-19
  outer loop
    vertex 1.989519097318848 3.25 7.748665289029049
    vertex -1.989519097318834 3.25 7.74866528902905
    vertex 7.936917610515826 3.249999999999998 1.002665868514416
  endloop
endfacet
facet normal -5.13331e-16 -1 -2.29651e-15
  outer loop
    vertex 1.989519097318848 3.25 7.748665289029049
    vertex 1.499050516685806 3.25 7.858298005829509
    vertex 7.063793994177751e-15 3.25 8.000000000000002
  endloop
endfacet
facet normal -2.97925e-16 -1 -6.65941e-17
  outer loop
    vertex 1.989519097318848 3.25 7.748665289029049
    vertex 7.858298005829514 3.249999999999998 1.499050516685781
    vertex 7.748665289029054 3.249999999999998 1.989519097318823
  endloop
endfacet
facet normal -2.73065e-16 -1 -4.32493e-17
  outer loop
    vertex 1.989519097318848 3.25 7.748665289029049
    vertex 7.936917610515826 3.249999999999998 1.002665868514416
    vertex 7.858298005829514 3.249999999999998 1.499050516685781
  endloop
endfacet
facet normal -3.2606e-16 -1 -9.47292e-17
  outer loop
    vertex 7.608452130361234 3.249999999999998 2.472135954999565
    vertex 1.989519097318848 3.25 7.748665289029049
    vertex 7.748665289029054 3.249999999999998 1.989519097318823
  endloop
endfacet
facet normal 3.92616e-15 -1 1.35139e-14
  outer loop
    vertex 2.944996421477434 3.249999999999999 7.438211887106009
    vertex 2.472135954999588 3.25 7.608452130361227
    vertex 1.989519097318848 3.25 7.748665289029049
  endloop
endfacet
facet normal 0 -1 0
  outer loop
    vertex 7.010453440350917 3.249999999999998 3.854029392813711
    vertex 7.43821188710602 3.249999999999998 2.944996421477411
    vertex 7.238616419728165 3.249999999999998 3.406234332520569
  endloop
endfacet
facet normal -2.38965e-16 -1 -1.98251e-18
  outer loop
    vertex 3.854029392813731 3.249999999999999 7.010453440350906
    vertex 1.989519097318848 3.25 7.748665289029049
    vertex 7.608452130361234 3.249999999999998 2.472135954999565
  endloop
endfacet
facet normal -1.50167e-15 -1 -3.19121e-15
  outer loop
    vertex 3.854029392813731 3.249999999999999 7.010453440350906
    vertex 2.944996421477434 3.249999999999999 7.438211887106009
    vertex 1.989519097318848 3.25 7.748665289029049
  endloop
endfacet
facet normal 0 -1 0
  outer loop
    vertex 3.854029392813731 3.249999999999999 7.010453440350906
    vertex 3.40623433252059 3.249999999999999 7.238616419728155
    vertex 2.944996421477434 3.249999999999999 7.438211887106009
  endloop
endfacet
facet normal 0 -1 0
  outer loop
    vertex 6.472135954999588 3.249999999999998 4.702282018339776
    vertex 7.43821188710602 3.249999999999998 2.944996421477411
    vertex 7.010453440350917 3.249999999999998 3.854029392813711
  endloop
endfacet
facet normal 0 -1 0
  outer loop
    vertex 6.472135954999588 3.249999999999998 4.702282018339776
    vertex 7.010453440350917 3.249999999999998 3.854029392813711
    vertex 6.754623404016131 3.249999999999998 4.286614359831963
  endloop
endfacet
facet normal 0 -1 0
  outer loop
    vertex 6.472135954999588 3.249999999999998 4.702282018339776
    vertex 7.608452130361234 3.249999999999998 2.472135954999565
    vertex 7.43821188710602 3.249999999999998 2.944996421477411
  endloop
endfacet
facet normal -5.98511e-15 -1 -7.23476e-15
  outer loop
    vertex 5.476376847429519 3.249999999999999 5.831749019371285
    vertex 4.702282018339796 3.249999999999999 6.472135954999574
    vertex 4.286614359831981 3.249999999999999 6.754623404016117
  endloop
endfacet
facet normal 0 -1 0
  outer loop
    vertex 5.476376847429519 3.249999999999999 5.831749019371285
    vertex 5.099391917989527 3.249999999999999 6.164105942206309
    vertex 4.702282018339796 3.249999999999999 6.472135954999574
  endloop
endfacet
facet normal -2.03015e-16 -1 2.77583e-17
  outer loop
    vertex 5.831749019371303 3.249999999999999 5.476376847429503
    vertex 3.854029392813731 3.249999999999999 7.010453440350906
    vertex 7.608452130361234 3.249999999999998 2.472135954999565
  endloop
endfacet
facet normal 7.20617e-16 -1 1.2185e-15
  outer loop
    vertex 5.831749019371303 3.249999999999999 5.476376847429503
    vertex 4.286614359831981 3.249999999999999 6.754623404016117
    vertex 3.854029392813731 3.249999999999999 7.010453440350906
  endloop
endfacet
facet normal -1.80549e-15 -1 -9.19944e-16
  outer loop
    vertex 5.831749019371303 3.249999999999999 5.476376847429503
    vertex 7.608452130361234 3.249999999999998 2.472135954999565
    vertex 6.472135954999588 3.249999999999998 4.702282018339776
  endloop
endfacet
facet normal 1.05561e-14 -1 9.30645e-15
  outer loop
    vertex 5.831749019371303 3.249999999999999 5.476376847429503
    vertex 6.472135954999588 3.249999999999998 4.702282018339776
    vertex 6.164105942206325 3.249999999999999 5.099391917989509
  endloop
endfacet
facet normal -1.66395e-15 -1 -1.66395e-15
  outer loop
    vertex 5.831749019371303 3.249999999999999 5.476376847429503
    vertex 5.476376847429519 3.249999999999999 5.831749019371285
    vertex 4.286614359831981 3.249999999999999 6.754623404016117
  endloop
endfacet
endsolid Created by Gmsh
